<svg xmlns="http://www.w3.org/2000/svg" version="1.1" width="421" height="144">
<path d="M 2.878906 65.319336 L 2.878906 58.412109 L 6.729980 58.412109 L 6.729980 59.335938 L 3.738281 59.335938 L 3.738281 65.319336 Z " fill="rgb(0, 0, 0)" fill-opacity="1.000000" />
<path d="M 2.878906 78.319336 L 2.878906 64.300781 L 3.738281 64.300781 L 3.738281 78.319336 Z " fill="rgb(0, 0, 0)" fill-opacity="1.000000" />
<path d="M 2.878906 85.335938 L 2.878906 77.300781 L 3.738281 77.300781 L 3.738281 84.412109 L 6.729980 84.412109 L 6.729980 85.335938 Z " fill="rgb(0, 0, 0)" fill-opacity="1.000000" />
<path d="M 63.032227 101.418945 L 66.308594 94.866211 L 69.590332 101.418945 Z " fill="rgb(0, 0, 0)" fill-opacity="1.000000" />
<path d="M 65.878906 117.319336 L 65.878906 103.300781 L 66.738281 103.300781 L 66.738281 117.319336 Z " fill="rgb(0, 0, 0)" fill-opacity="1.000000" />
<path d="M 65.878906 124.335938 L 65.878906 116.300781 L 66.738281 116.300781 L 66.738281 123.412109 L 69.729980 123.412109 L 69.729980 124.335938 Z " fill="rgb(0, 0, 0)" fill-opacity="1.000000" />
<path d="M 149.878906 137.335938 L 149.878906 129.300781 L 150.738281 129.300781 L 150.738281 136.412109 L 153.729980 136.412109 L 153.729980 137.335938 Z " fill="rgb(0, 0, 0)" fill-opacity="1.000000" />
<path d="M 153.892578 137.335938 L 153.892578 136.412109 L 160.729980 136.412109 L 160.729980 137.335938 Z " fill="rgb(0, 0, 0)" fill-opacity="1.000000" />
<path d="M 160.892578 137.335938 L 160.892578 136.412109 L 167.729980 136.412109 L 167.729980 137.335938 Z " fill="rgb(0, 0, 0)" fill-opacity="1.000000" />
<path d="M 167.892578 137.335938 L 167.892578 136.412109 L 174.729980 136.412109 L 174.729980 137.335938 Z " fill="rgb(0, 0, 0)" fill-opacity="1.000000" />
<path d="M 174.892578 137.335938 L 174.892578 136.412109 L 181.729980 136.412109 L 181.729980 137.335938 Z " fill="rgb(0, 0, 0)" fill-opacity="1.000000" />
<path d="M 181.892578 137.335938 L 181.892578 136.412109 L 188.729980 136.412109 L 188.729980 137.335938 Z " fill="rgb(0, 0, 0)" fill-opacity="1.000000" />
<path d="M 188.892578 137.335938 L 188.892578 136.412109 L 195.729980 136.412109 L 195.729980 137.335938 Z " fill="rgb(0, 0, 0)" fill-opacity="1.000000" />
<path d="M 195.892578 137.335938 L 195.892578 136.412109 L 202.729980 136.412109 L 202.729980 137.335938 Z " fill="rgb(0, 0, 0)" fill-opacity="1.000000" />
<path d="M 202.892578 137.335938 L 202.892578 136.412109 L 209.729980 136.412109 L 209.729980 137.335938 Z " fill="rgb(0, 0, 0)" fill-opacity="1.000000" />
<path d="M 209.892578 137.335938 L 209.892578 136.412109 L 216.729980 136.412109 L 216.729980 137.335938 Z " fill="rgb(0, 0, 0)" fill-opacity="1.000000" />
<path d="M 216.892578 137.335938 L 216.892578 136.412109 L 223.729980 136.412109 L 223.729980 137.335938 Z " fill="rgb(0, 0, 0)" fill-opacity="1.000000" />
<path d="M 223.892578 137.335938 L 223.892578 136.412109 L 230.729980 136.412109 L 230.729980 137.335938 Z " fill="rgb(0, 0, 0)" fill-opacity="1.000000" />
<path d="M 230.892578 137.335938 L 230.892578 136.412109 L 237.729980 136.412109 L 237.729980 137.335938 Z " fill="rgb(0, 0, 0)" fill-opacity="1.000000" />
<path d="M 237.892578 137.335938 L 237.892578 136.412109 L 244.729980 136.412109 L 244.729980 137.335938 Z " fill="rgb(0, 0, 0)" fill-opacity="1.000000" />
<path d="M 244.892578 137.335938 L 244.892578 136.412109 L 251.729980 136.412109 L 251.729980 137.335938 Z " fill="rgb(0, 0, 0)" fill-opacity="1.000000" />
<path d="M 251.892578 137.335938 L 251.892578 136.412109 L 258.729980 136.412109 L 258.729980 137.335938 Z " fill="rgb(0, 0, 0)" fill-opacity="1.000000" />
<path d="M 258.892578 137.335938 L 258.892578 136.412109 L 265.729980 136.412109 L 265.729980 137.335938 Z " fill="rgb(0, 0, 0)" fill-opacity="1.000000" />
<path d="M 265.892578 137.335938 L 265.892578 136.412109 L 268.878906 136.412109 L 268.878906 129.300781 L 269.738281 129.300781 L 269.738281 137.335938 Z " fill="rgb(0, 0, 0)" fill-opacity="1.000000" />
<path d="M 69.892578 124.335938 L 69.892578 123.412109 L 76.729980 123.412109 L 76.729980 124.335938 Z " fill="rgb(0, 0, 0)" fill-opacity="1.000000" />
<path d="M 76.892578 124.335938 L 76.892578 123.412109 L 83.729980 123.412109 L 83.729980 124.335938 Z " fill="rgb(0, 0, 0)" fill-opacity="1.000000" />
<path d="M 83.892578 124.335938 L 83.892578 123.412109 L 90.729980 123.412109 L 90.729980 124.335938 Z " fill="rgb(0, 0, 0)" fill-opacity="1.000000" />
<path d="M 90.892578 124.335938 L 90.892578 123.412109 L 97.729980 123.412109 L 97.729980 124.335938 Z " fill="rgb(0, 0, 0)" fill-opacity="1.000000" />
<path d="M 97.892578 124.335938 L 97.892578 123.412109 L 104.729980 123.412109 L 104.729980 124.335938 Z " fill="rgb(0, 0, 0)" fill-opacity="1.000000" />
<path d="M 104.892578 124.335938 L 104.892578 123.412109 L 111.729980 123.412109 L 111.729980 124.335938 Z " fill="rgb(0, 0, 0)" fill-opacity="1.000000" />
<path d="M 111.892578 124.335938 L 111.892578 123.412109 L 118.729980 123.412109 L 118.729980 124.335938 Z " fill="rgb(0, 0, 0)" fill-opacity="1.000000" />
<path d="M 118.892578 124.335938 L 118.892578 123.412109 L 125.729980 123.412109 L 125.729980 124.335938 Z " fill="rgb(0, 0, 0)" fill-opacity="1.000000" />
<path d="M 125.892578 124.335938 L 125.892578 123.412109 L 132.729980 123.412109 L 132.729980 124.335938 Z " fill="rgb(0, 0, 0)" fill-opacity="1.000000" />
<path d="M 132.892578 124.335938 L 132.892578 123.412109 L 139.729980 123.412109 L 139.729980 124.335938 Z " fill="rgb(0, 0, 0)" fill-opacity="1.000000" />
<path d="M 139.892578 124.335938 L 139.892578 123.412109 L 146.729980 123.412109 L 146.729980 124.335938 Z " fill="rgb(0, 0, 0)" fill-opacity="1.000000" />
<path d="M 149.878906 130.319336 L 149.878906 116.300781 L 150.738281 116.300781 L 150.738281 130.319336 Z " fill="rgb(0, 0, 0)" fill-opacity="1.000000" />
<path d="M 164.630859 121.596680 Q 164.813477 121.209961 165.095459 121.024658 Q 165.377441 120.839355 165.774902 120.839355 Q 166.500000 120.839355 166.798096 121.400635 Q 167.096191 121.961914 167.096191 123.514160 L 167.096191 127.000000 L 166.193848 127.000000 L 166.193848 123.557129 Q 166.193848 122.284180 166.051514 121.975342 Q 165.909180 121.666504 165.533203 121.666504 Q 165.103516 121.666504 164.945068 121.996826 Q 164.786621 122.327148 164.786621 123.557129 L 164.786621 127.000000 L 163.884277 127.000000 L 163.884277 123.557129 Q 163.884277 122.268066 163.731201 121.967285 Q 163.578125 121.666504 163.180664 121.666504 Q 162.788574 121.666504 162.635498 121.996826 Q 162.482422 122.327148 162.482422 123.557129 L 162.482422 127.000000 L 161.585449 127.000000 L 161.585449 120.984375 L 162.482422 120.984375 L 162.482422 121.500000 Q 162.659668 121.177734 162.925537 121.008545 Q 163.191406 120.839355 163.529785 120.839355 Q 163.937988 120.839355 164.209229 121.027344 Q 164.480469 121.215332 164.630859 121.596680 Z " fill="rgb(0, 0, 0)" fill-opacity="1.000000" />
<path d="M 174.015625 123.498047 L 174.015625 123.981445 L 169.734863 123.981445 L 169.734863 124.013672 Q 169.691895 125.243652 170.204834 125.780762 Q 170.717773 126.317871 171.652344 126.317871 Q 172.125000 126.317871 172.640625 126.167480 Q 173.156250 126.017090 173.741699 125.710938 L 173.741699 126.693848 Q 173.177734 126.924805 172.654053 127.040283 Q 172.130371 127.155762 171.641602 127.155762 Q 170.239746 127.155762 169.450195 126.315186 Q 168.660645 125.474609 168.660645 123.997559 Q 168.660645 122.558105 169.434082 121.698730 Q 170.207520 120.839355 171.496582 120.839355 Q 172.645996 120.839355 173.309326 121.618164 Q 173.972656 122.396973 174.015625 123.498047 Z M 173.027344 123.208008 Q 172.962891 122.584961 172.573486 122.131104 Q 172.184082 121.677246 171.453613 121.677246 Q 170.739258 121.677246 170.277344 122.149902 Q 169.815430 122.622559 169.772461 123.213379 Z " fill="rgb(0, 0, 0)" fill-opacity="1.000000" />
<path d="M 180.226074 121.193848 L 180.226074 122.160645 Q 179.801758 121.913574 179.372070 121.790039 Q 178.942383 121.666504 178.496582 121.666504 Q 177.825195 121.666504 177.494873 121.884033 Q 177.164551 122.101562 177.164551 122.547363 Q 177.164551 122.950195 177.411621 123.148926 Q 177.658691 123.347656 178.641602 123.535645 L 179.039062 123.610840 Q 179.774902 123.750488 180.153564 124.169434 Q 180.532227 124.588379 180.532227 125.259766 Q 180.532227 126.151367 179.898438 126.653564 Q 179.264648 127.155762 178.136719 127.155762 Q 177.690918 127.155762 177.202148 127.061768 Q 176.713379 126.967773 176.144043 126.779785 L 176.144043 125.759277 Q 176.697266 126.043945 177.202148 126.186279 Q 177.707031 126.328613 178.158203 126.328613 Q 178.813477 126.328613 179.173340 126.062744 Q 179.533203 125.796875 179.533203 125.318848 Q 179.533203 124.631348 178.217285 124.368164 L 178.174316 124.357422 L 177.803711 124.282227 Q 176.949707 124.115723 176.557617 123.720947 Q 176.165527 123.326172 176.165527 122.644043 Q 176.165527 121.779297 176.750977 121.309326 Q 177.336426 120.839355 178.421387 120.839355 Q 178.904785 120.839355 179.350586 120.927979 Q 179.796387 121.016602 180.226074 121.193848 Z " fill="rgb(0, 0, 0)" fill-opacity="1.000000" />
<path d="M 187.226074 121.193848 L 187.226074 122.160645 Q 186.801758 121.913574 186.372070 121.790039 Q 185.942383 121.666504 185.496582 121.666504 Q 184.825195 121.666504 184.494873 121.884033 Q 184.164551 122.101562 184.164551 122.547363 Q 184.164551 122.950195 184.411621 123.148926 Q 184.658691 123.347656 185.641602 123.535645 L 186.039062 123.610840 Q 186.774902 123.750488 187.153564 124.169434 Q 187.532227 124.588379 187.532227 125.259766 Q 187.532227 126.151367 186.898438 126.653564 Q 186.264648 127.155762 185.136719 127.155762 Q 184.690918 127.155762 184.202148 127.061768 Q 183.713379 126.967773 183.144043 126.779785 L 183.144043 125.759277 Q 183.697266 126.043945 184.202148 126.186279 Q 184.707031 126.328613 185.158203 126.328613 Q 185.813477 126.328613 186.173340 126.062744 Q 186.533203 125.796875 186.533203 125.318848 Q 186.533203 124.631348 185.217285 124.368164 L 185.174316 124.357422 L 184.803711 124.282227 Q 183.949707 124.115723 183.557617 123.720947 Q 183.165527 123.326172 183.165527 122.644043 Q 183.165527 121.779297 183.750977 121.309326 Q 184.336426 120.839355 185.421387 120.839355 Q 185.904785 120.839355 186.350586 120.927979 Q 186.796387 121.016602 187.226074 121.193848 Z " fill="rgb(0, 0, 0)" fill-opacity="1.000000" />
<path d="M 192.770508 123.976074 L 192.442871 123.976074 Q 191.578125 123.976074 191.140381 124.279541 Q 190.702637 124.583008 190.702637 125.184570 Q 190.702637 125.727051 191.030273 126.027832 Q 191.357910 126.328613 191.937988 126.328613 Q 192.754395 126.328613 193.221680 125.761963 Q 193.688965 125.195312 193.694336 124.196289 L 193.694336 123.976074 Z M 194.687988 123.567871 L 194.687988 127.000000 L 193.694336 127.000000 L 193.694336 126.108398 Q 193.377441 126.645508 192.896729 126.900635 Q 192.416016 127.155762 191.728516 127.155762 Q 190.810059 127.155762 190.262207 126.637451 Q 189.714355 126.119141 189.714355 125.249023 Q 189.714355 124.244629 190.388428 123.723633 Q 191.062500 123.202637 192.367676 123.202637 L 193.694336 123.202637 L 193.694336 123.046875 Q 193.688965 122.327148 193.329102 122.002197 Q 192.969238 121.677246 192.179688 121.677246 Q 191.674805 121.677246 191.159180 121.822266 Q 190.643555 121.967285 190.154785 122.246582 L 190.154785 121.258301 Q 190.702637 121.048828 191.204834 120.944092 Q 191.707031 120.839355 192.179688 120.839355 Q 192.926270 120.839355 193.455322 121.059570 Q 193.984375 121.279785 194.312012 121.720215 Q 194.516113 121.988770 194.602051 122.383545 Q 194.687988 122.778320 194.687988 123.567871 Z " fill="rgb(0, 0, 0)" fill-opacity="1.000000" />
<path d="M 200.608398 123.943848 Q 200.608398 122.832031 200.245850 122.254639 Q 199.883301 121.677246 199.190430 121.677246 Q 198.465332 121.677246 198.083984 122.254639 Q 197.702637 122.832031 197.702637 123.943848 Q 197.702637 125.055664 198.086670 125.638428 Q 198.470703 126.221191 199.201172 126.221191 Q 199.883301 126.221191 200.245850 125.635742 Q 200.608398 125.050293 200.608398 123.943848 Z M 201.596680 126.613281 Q 201.596680 127.966797 200.957520 128.665039 Q 200.318359 129.363281 199.077637 129.363281 Q 198.669434 129.363281 198.223633 129.288086 Q 197.777832 129.212891 197.332031 129.067871 L 197.332031 128.090332 Q 197.858398 128.337402 198.288086 128.455566 Q 198.717773 128.573730 199.077637 128.573730 Q 199.877930 128.573730 200.243164 128.138672 Q 200.608398 127.703613 200.608398 126.758301 L 200.608398 126.715332 L 200.608398 126.043945 Q 200.372070 126.548828 199.963867 126.795898 Q 199.555664 127.042969 198.970215 127.042969 Q 197.917480 127.042969 197.289062 126.199707 Q 196.660645 125.356445 196.660645 123.943848 Q 196.660645 122.525879 197.289062 121.682617 Q 197.917480 120.839355 198.970215 120.839355 Q 199.550293 120.839355 199.953125 121.070312 Q 200.355957 121.301270 200.608398 121.784668 L 200.608398 121.005859 L 201.596680 121.005859 Z " fill="rgb(0, 0, 0)" fill-opacity="1.000000" />
<path d="M 209.015625 123.498047 L 209.015625 123.981445 L 204.734863 123.981445 L 204.734863 124.013672 Q 204.691895 125.243652 205.204834 125.780762 Q 205.717773 126.317871 206.652344 126.317871 Q 207.125000 126.317871 207.640625 126.167480 Q 208.156250 126.017090 208.741699 125.710938 L 208.741699 126.693848 Q 208.177734 126.924805 207.654053 127.040283 Q 207.130371 127.155762 206.641602 127.155762 Q 205.239746 127.155762 204.450195 126.315186 Q 203.660645 125.474609 203.660645 123.997559 Q 203.660645 122.558105 204.434082 121.698730 Q 205.207520 120.839355 206.496582 120.839355 Q 207.645996 120.839355 208.309326 121.618164 Q 208.972656 122.396973 209.015625 123.498047 Z M 208.027344 123.208008 Q 207.962891 122.584961 207.573486 122.131104 Q 207.184082 121.677246 206.453613 121.677246 Q 205.739258 121.677246 205.277344 122.149902 Q 204.815430 122.622559 204.772461 123.213379 Z " fill="rgb(0, 0, 0)" fill-opacity="1.000000" />
<path d="M 210.547852 123.111328 L 216.241211 123.111328 L 216.241211 124.019043 L 210.547852 124.019043 Z " fill="rgb(0, 0, 0)" fill-opacity="1.000000" />
<path d="M 221.608398 121.752441 L 221.608398 118.642578 L 222.596680 118.642578 L 222.596680 127.000000 L 221.608398 127.000000 L 221.608398 126.242676 Q 221.361328 126.688477 220.950439 126.922119 Q 220.539551 127.155762 220.002441 127.155762 Q 218.912109 127.155762 218.286377 126.309814 Q 217.660645 125.463867 217.660645 123.976074 Q 217.660645 122.509766 218.289062 121.674561 Q 218.917480 120.839355 220.002441 120.839355 Q 220.544922 120.839355 220.958496 121.072998 Q 221.372070 121.306641 221.608398 121.752441 Z M 218.702637 123.997559 Q 218.702637 125.146973 219.067871 125.732422 Q 219.433105 126.317871 220.147461 126.317871 Q 220.861816 126.317871 221.235107 125.727051 Q 221.608398 125.136230 221.608398 123.997559 Q 221.608398 122.853516 221.235107 122.265381 Q 220.861816 121.677246 220.147461 121.677246 Q 219.433105 121.677246 219.067871 122.262695 Q 218.702637 122.848145 218.702637 123.997559 Z " fill="rgb(0, 0, 0)" fill-opacity="1.000000" />
<path d="M 230.203613 122.225098 Q 229.886719 121.978027 229.559082 121.865234 Q 229.231445 121.752441 228.839355 121.752441 Q 227.915527 121.752441 227.426758 122.332520 Q 226.937988 122.912598 226.937988 124.008301 L 226.937988 127.000000 L 225.944336 127.000000 L 225.944336 120.984375 L 226.937988 120.984375 L 226.937988 122.160645 Q 227.185059 121.521484 227.697998 121.180420 Q 228.210938 120.839355 228.914551 120.839355 Q 229.279785 120.839355 229.596680 120.930664 Q 229.913574 121.021973 230.203613 121.215332 Z " fill="rgb(0, 0, 0)" fill-opacity="1.000000" />
<path d="M 232.697266 121.005859 L 235.227051 121.005859 L 235.227051 126.231934 L 237.187500 126.231934 L 237.187500 127.000000 L 232.278320 127.000000 L 232.278320 126.231934 L 234.238770 126.231934 L 234.238770 121.773926 L 232.697266 121.773926 Z M 234.238770 118.669434 L 235.227051 118.669434 L 235.227051 119.915527 L 234.238770 119.915527 Z " fill="rgb(0, 0, 0)" fill-opacity="1.000000" />
<path d="M 238.537109 120.984375 L 239.562988 120.984375 L 241.308594 126.033203 L 243.059570 120.984375 L 244.085449 120.984375 L 241.947754 127.000000 L 240.674805 127.000000 Z " fill="rgb(0, 0, 0)" fill-opacity="1.000000" />
<path d="M 251.015625 123.498047 L 251.015625 123.981445 L 246.734863 123.981445 L 246.734863 124.013672 Q 246.691895 125.243652 247.204834 125.780762 Q 247.717773 126.317871 248.652344 126.317871 Q 249.125000 126.317871 249.640625 126.167480 Q 250.156250 126.017090 250.741699 125.710938 L 250.741699 126.693848 Q 250.177734 126.924805 249.654053 127.040283 Q 249.130371 127.155762 248.641602 127.155762 Q 247.239746 127.155762 246.450195 126.315186 Q 245.660645 125.474609 245.660645 123.997559 Q 245.660645 122.558105 246.434082 121.698730 Q 247.207520 120.839355 248.496582 120.839355 Q 249.645996 120.839355 250.309326 121.618164 Q 250.972656 122.396973 251.015625 123.498047 Z M 250.027344 123.208008 Q 249.962891 122.584961 249.573486 122.131104 Q 249.184082 121.677246 248.453613 121.677246 Q 247.739258 121.677246 247.277344 122.149902 Q 246.815430 122.622559 246.772461 123.213379 Z " fill="rgb(0, 0, 0)" fill-opacity="1.000000" />
<path d="M 257.645020 123.272461 L 257.645020 127.000000 L 256.651367 127.000000 L 256.651367 123.272461 Q 256.651367 122.461426 256.366699 122.080078 Q 256.082031 121.698730 255.475098 121.698730 Q 254.782227 121.698730 254.408936 122.190186 Q 254.035645 122.681641 254.035645 123.600098 L 254.035645 127.000000 L 253.047363 127.000000 L 253.047363 120.984375 L 254.035645 120.984375 L 254.035645 121.886719 Q 254.298828 121.371094 254.750000 121.105225 Q 255.201172 120.839355 255.818848 120.839355 Q 256.737305 120.839355 257.191162 121.443604 Q 257.645020 122.047852 257.645020 123.272461 Z " fill="rgb(0, 0, 0)" fill-opacity="1.000000" />
<path d="M 268.878906 130.319336 L 268.878906 116.300781 L 269.738281 116.300781 L 269.738281 130.319336 Z " fill="rgb(0, 0, 0)" fill-opacity="1.000000" />
<path d="M 272.892578 124.335938 L 272.892578 123.412109 L 279.729980 123.412109 L 279.729980 124.335938 Z " fill="rgb(0, 0, 0)" fill-opacity="1.000000" />
<path d="M 279.892578 124.335938 L 279.892578 123.412109 L 286.729980 123.412109 L 286.729980 124.335938 Z " fill="rgb(0, 0, 0)" fill-opacity="1.000000" />
<path d="M 286.892578 124.335938 L 286.892578 123.412109 L 293.729980 123.412109 L 293.729980 124.335938 Z " fill="rgb(0, 0, 0)" fill-opacity="1.000000" />
<path d="M 293.892578 124.335938 L 293.892578 123.412109 L 300.729980 123.412109 L 300.729980 124.335938 Z " fill="rgb(0, 0, 0)" fill-opacity="1.000000" />
<path d="M 300.892578 124.335938 L 300.892578 123.412109 L 307.729980 123.412109 L 307.729980 124.335938 Z " fill="rgb(0, 0, 0)" fill-opacity="1.000000" />
<path d="M 307.892578 124.335938 L 307.892578 123.412109 L 314.729980 123.412109 L 314.729980 124.335938 Z " fill="rgb(0, 0, 0)" fill-opacity="1.000000" />
<path d="M 314.892578 124.335938 L 314.892578 123.412109 L 321.729980 123.412109 L 321.729980 124.335938 Z " fill="rgb(0, 0, 0)" fill-opacity="1.000000" />
<path d="M 321.892578 124.335938 L 321.892578 123.412109 L 328.729980 123.412109 L 328.729980 124.335938 Z " fill="rgb(0, 0, 0)" fill-opacity="1.000000" />
<path d="M 328.892578 124.335938 L 328.892578 123.412109 L 335.729980 123.412109 L 335.729980 124.335938 Z " fill="rgb(0, 0, 0)" fill-opacity="1.000000" />
<path d="M 335.892578 124.335938 L 335.892578 123.412109 L 342.729980 123.412109 L 342.729980 124.335938 Z " fill="rgb(0, 0, 0)" fill-opacity="1.000000" />
<path d="M 342.892578 124.335938 L 342.892578 123.412109 L 349.729980 123.412109 L 349.729980 124.335938 Z " fill="rgb(0, 0, 0)" fill-opacity="1.000000" />
<path d="M 349.892578 124.335938 L 349.892578 123.412109 L 356.729980 123.412109 L 356.729980 124.335938 Z " fill="rgb(0, 0, 0)" fill-opacity="1.000000" />
<path d="M 356.892578 124.335938 L 356.892578 123.412109 L 359.878906 123.412109 L 359.878906 116.300781 L 360.738281 116.300781 L 360.738281 124.335938 Z " fill="rgb(0, 0, 0)" fill-opacity="1.000000" />
<path d="M 149.878906 117.319336 L 149.878906 110.412109 L 153.729980 110.412109 L 153.729980 111.335938 L 150.738281 111.335938 L 150.738281 117.319336 Z " fill="rgb(0, 0, 0)" fill-opacity="1.000000" />
<path d="M 153.892578 111.335938 L 153.892578 110.412109 L 160.729980 110.412109 L 160.729980 111.335938 Z " fill="rgb(0, 0, 0)" fill-opacity="1.000000" />
<path d="M 160.892578 111.335938 L 160.892578 110.412109 L 167.729980 110.412109 L 167.729980 111.335938 Z " fill="rgb(0, 0, 0)" fill-opacity="1.000000" />
<path d="M 167.892578 111.335938 L 167.892578 110.412109 L 174.729980 110.412109 L 174.729980 111.335938 Z " fill="rgb(0, 0, 0)" fill-opacity="1.000000" />
<path d="M 174.892578 111.335938 L 174.892578 110.412109 L 181.729980 110.412109 L 181.729980 111.335938 Z " fill="rgb(0, 0, 0)" fill-opacity="1.000000" />
<path d="M 181.892578 111.335938 L 181.892578 110.412109 L 188.729980 110.412109 L 188.729980 111.335938 Z " fill="rgb(0, 0, 0)" fill-opacity="1.000000" />
<path d="M 188.892578 111.335938 L 188.892578 110.412109 L 195.729980 110.412109 L 195.729980 111.335938 Z " fill="rgb(0, 0, 0)" fill-opacity="1.000000" />
<path d="M 195.892578 111.335938 L 195.892578 110.412109 L 202.729980 110.412109 L 202.729980 111.335938 Z " fill="rgb(0, 0, 0)" fill-opacity="1.000000" />
<path d="M 202.892578 111.335938 L 202.892578 110.412109 L 209.729980 110.412109 L 209.729980 111.335938 Z " fill="rgb(0, 0, 0)" fill-opacity="1.000000" />
<path d="M 209.892578 111.335938 L 209.892578 110.412109 L 216.729980 110.412109 L 216.729980 111.335938 Z " fill="rgb(0, 0, 0)" fill-opacity="1.000000" />
<path d="M 216.892578 111.335938 L 216.892578 110.412109 L 223.729980 110.412109 L 223.729980 111.335938 Z " fill="rgb(0, 0, 0)" fill-opacity="1.000000" />
<path d="M 223.892578 111.335938 L 223.892578 110.412109 L 230.729980 110.412109 L 230.729980 111.335938 Z " fill="rgb(0, 0, 0)" fill-opacity="1.000000" />
<path d="M 230.892578 111.335938 L 230.892578 110.412109 L 237.729980 110.412109 L 237.729980 111.335938 Z " fill="rgb(0, 0, 0)" fill-opacity="1.000000" />
<path d="M 237.892578 111.335938 L 237.892578 110.412109 L 244.729980 110.412109 L 244.729980 111.335938 Z " fill="rgb(0, 0, 0)" fill-opacity="1.000000" />
<path d="M 244.892578 111.335938 L 244.892578 110.412109 L 251.729980 110.412109 L 251.729980 111.335938 Z " fill="rgb(0, 0, 0)" fill-opacity="1.000000" />
<path d="M 251.892578 111.335938 L 251.892578 110.412109 L 258.729980 110.412109 L 258.729980 111.335938 Z " fill="rgb(0, 0, 0)" fill-opacity="1.000000" />
<path d="M 258.892578 111.335938 L 258.892578 110.412109 L 265.729980 110.412109 L 265.729980 111.335938 Z " fill="rgb(0, 0, 0)" fill-opacity="1.000000" />
<path d="M 268.878906 117.319336 L 268.878906 111.335938 L 265.892578 111.335938 L 265.892578 110.412109 L 269.738281 110.412109 L 269.738281 117.319336 Z " fill="rgb(0, 0, 0)" fill-opacity="1.000000" />
<path d="M 359.878906 117.319336 L 359.878906 103.300781 L 360.738281 103.300781 L 360.738281 117.319336 Z " fill="rgb(0, 0, 0)" fill-opacity="1.000000" />
<path d="M 212.878906 104.319336 L 212.878906 90.300781 L 213.738281 90.300781 L 213.738281 104.319336 Z " fill="rgb(0, 0, 0)" fill-opacity="1.000000" />
<path d="M 357.032227 101.418945 L 360.308594 94.866211 L 363.590332 101.418945 Z " fill="rgb(0, 0, 0)" fill-opacity="1.000000" />
<path d="M 6.892578 85.335938 L 6.892578 84.412109 L 13.729980 84.412109 L 13.729980 85.335938 Z " fill="rgb(0, 0, 0)" fill-opacity="1.000000" />
<path d="M 13.892578 85.335938 L 13.892578 84.412109 L 20.729980 84.412109 L 20.729980 85.335938 Z " fill="rgb(0, 0, 0)" fill-opacity="1.000000" />
<path d="M 20.892578 85.335938 L 20.892578 84.412109 L 27.729980 84.412109 L 27.729980 85.335938 Z " fill="rgb(0, 0, 0)" fill-opacity="1.000000" />
<path d="M 27.892578 85.335938 L 27.892578 84.412109 L 34.729980 84.412109 L 34.729980 85.335938 Z " fill="rgb(0, 0, 0)" fill-opacity="1.000000" />
<path d="M 34.892578 85.335938 L 34.892578 84.412109 L 41.729980 84.412109 L 41.729980 85.335938 Z " fill="rgb(0, 0, 0)" fill-opacity="1.000000" />
<path d="M 41.892578 85.335938 L 41.892578 84.412109 L 48.729980 84.412109 L 48.729980 85.335938 Z " fill="rgb(0, 0, 0)" fill-opacity="1.000000" />
<path d="M 48.892578 85.335938 L 48.892578 84.412109 L 55.729980 84.412109 L 55.729980 85.335938 Z " fill="rgb(0, 0, 0)" fill-opacity="1.000000" />
<path d="M 55.892578 85.335938 L 55.892578 84.412109 L 62.729980 84.412109 L 62.729980 85.335938 Z " fill="rgb(0, 0, 0)" fill-opacity="1.000000" />
<path d="M 62.892578 85.335938 L 62.892578 84.412109 L 69.729980 84.412109 L 69.729980 85.335938 Z " fill="rgb(0, 0, 0)" fill-opacity="1.000000" />
<path d="M 69.892578 85.335938 L 69.892578 84.412109 L 76.729980 84.412109 L 76.729980 85.335938 Z " fill="rgb(0, 0, 0)" fill-opacity="1.000000" />
<path d="M 76.892578 85.335938 L 76.892578 84.412109 L 83.729980 84.412109 L 83.729980 85.335938 Z " fill="rgb(0, 0, 0)" fill-opacity="1.000000" />
<path d="M 83.892578 85.335938 L 83.892578 84.412109 L 90.729980 84.412109 L 90.729980 85.335938 Z " fill="rgb(0, 0, 0)" fill-opacity="1.000000" />
<path d="M 90.892578 85.335938 L 90.892578 84.412109 L 97.729980 84.412109 L 97.729980 85.335938 Z " fill="rgb(0, 0, 0)" fill-opacity="1.000000" />
<path d="M 97.892578 85.335938 L 97.892578 84.412109 L 104.729980 84.412109 L 104.729980 85.335938 Z " fill="rgb(0, 0, 0)" fill-opacity="1.000000" />
<path d="M 104.892578 85.335938 L 104.892578 84.412109 L 111.729980 84.412109 L 111.729980 85.335938 Z " fill="rgb(0, 0, 0)" fill-opacity="1.000000" />
<path d="M 111.892578 85.335938 L 111.892578 84.412109 L 118.729980 84.412109 L 118.729980 85.335938 Z " fill="rgb(0, 0, 0)" fill-opacity="1.000000" />
<path d="M 118.892578 85.335938 L 118.892578 84.412109 L 121.878906 84.412109 L 121.878906 77.300781 L 122.738281 77.300781 L 122.738281 85.335938 Z " fill="rgb(0, 0, 0)" fill-opacity="1.000000" />
<path d="M 212.878906 91.319336 L 212.878906 77.300781 L 213.738281 77.300781 L 213.738281 91.319336 Z " fill="rgb(0, 0, 0)" fill-opacity="1.000000" />
<path d="M 296.878906 85.335938 L 296.878906 77.300781 L 297.738281 77.300781 L 297.738281 84.412109 L 300.729980 84.412109 L 300.729980 85.335938 Z " fill="rgb(0, 0, 0)" fill-opacity="1.000000" />
<path d="M 300.892578 85.335938 L 300.892578 84.412109 L 307.729980 84.412109 L 307.729980 85.335938 Z " fill="rgb(0, 0, 0)" fill-opacity="1.000000" />
<path d="M 307.892578 85.335938 L 307.892578 84.412109 L 314.729980 84.412109 L 314.729980 85.335938 Z " fill="rgb(0, 0, 0)" fill-opacity="1.000000" />
<path d="M 314.892578 85.335938 L 314.892578 84.412109 L 321.729980 84.412109 L 321.729980 85.335938 Z " fill="rgb(0, 0, 0)" fill-opacity="1.000000" />
<path d="M 321.892578 85.335938 L 321.892578 84.412109 L 328.729980 84.412109 L 328.729980 85.335938 Z " fill="rgb(0, 0, 0)" fill-opacity="1.000000" />
<path d="M 328.892578 85.335938 L 328.892578 84.412109 L 335.729980 84.412109 L 335.729980 85.335938 Z " fill="rgb(0, 0, 0)" fill-opacity="1.000000" />
<path d="M 335.892578 85.335938 L 335.892578 84.412109 L 342.729980 84.412109 L 342.729980 85.335938 Z " fill="rgb(0, 0, 0)" fill-opacity="1.000000" />
<path d="M 342.892578 85.335938 L 342.892578 84.412109 L 349.729980 84.412109 L 349.729980 85.335938 Z " fill="rgb(0, 0, 0)" fill-opacity="1.000000" />
<path d="M 349.892578 85.335938 L 349.892578 84.412109 L 356.729980 84.412109 L 356.729980 85.335938 Z " fill="rgb(0, 0, 0)" fill-opacity="1.000000" />
<path d="M 356.892578 85.335938 L 356.892578 84.412109 L 363.729980 84.412109 L 363.729980 85.335938 Z " fill="rgb(0, 0, 0)" fill-opacity="1.000000" />
<path d="M 363.892578 85.335938 L 363.892578 84.412109 L 370.729980 84.412109 L 370.729980 85.335938 Z " fill="rgb(0, 0, 0)" fill-opacity="1.000000" />
<path d="M 370.892578 85.335938 L 370.892578 84.412109 L 377.729980 84.412109 L 377.729980 85.335938 Z " fill="rgb(0, 0, 0)" fill-opacity="1.000000" />
<path d="M 377.892578 85.335938 L 377.892578 84.412109 L 384.729980 84.412109 L 384.729980 85.335938 Z " fill="rgb(0, 0, 0)" fill-opacity="1.000000" />
<path d="M 384.892578 85.335938 L 384.892578 84.412109 L 391.729980 84.412109 L 391.729980 85.335938 Z " fill="rgb(0, 0, 0)" fill-opacity="1.000000" />
<path d="M 391.892578 85.335938 L 391.892578 84.412109 L 398.729980 84.412109 L 398.729980 85.335938 Z " fill="rgb(0, 0, 0)" fill-opacity="1.000000" />
<path d="M 398.892578 85.335938 L 398.892578 84.412109 L 405.729980 84.412109 L 405.729980 85.335938 Z " fill="rgb(0, 0, 0)" fill-opacity="1.000000" />
<path d="M 405.892578 85.335938 L 405.892578 84.412109 L 412.729980 84.412109 L 412.729980 85.335938 Z " fill="rgb(0, 0, 0)" fill-opacity="1.000000" />
<path d="M 412.892578 85.335938 L 412.892578 84.412109 L 415.878906 84.412109 L 415.878906 77.300781 L 416.738281 77.300781 L 416.738281 85.335938 Z " fill="rgb(0, 0, 0)" fill-opacity="1.000000" />
<path d="M 41.015625 71.498047 L 41.015625 71.981445 L 36.734863 71.981445 L 36.734863 72.013672 Q 36.691895 73.243652 37.204834 73.780762 Q 37.717773 74.317871 38.652344 74.317871 Q 39.125000 74.317871 39.640625 74.167480 Q 40.156250 74.017090 40.741699 73.710938 L 40.741699 74.693848 Q 40.177734 74.924805 39.654053 75.040283 Q 39.130371 75.155762 38.641602 75.155762 Q 37.239746 75.155762 36.450195 74.315186 Q 35.660645 73.474609 35.660645 71.997559 Q 35.660645 70.558105 36.434082 69.698730 Q 37.207520 68.839355 38.496582 68.839355 Q 39.645996 68.839355 40.309326 69.618164 Q 40.972656 70.396973 41.015625 71.498047 Z M 40.027344 71.208008 Q 39.962891 70.584961 39.573486 70.131104 Q 39.184082 69.677246 38.453613 69.677246 Q 37.739258 69.677246 37.277344 70.149902 Q 36.815430 70.622559 36.772461 71.213379 Z " fill="rgb(0, 0, 0)" fill-opacity="1.000000" />
<path d="M 45.861816 72.824707 Q 45.861816 73.490723 46.106201 73.829102 Q 46.350586 74.167480 46.828613 74.167480 L 47.983398 74.167480 L 47.983398 75.000000 L 46.731934 75.000000 Q 45.845703 75.000000 45.359619 74.433350 Q 44.873535 73.866699 44.873535 72.824707 L 44.873535 67.383789 L 43.289062 67.383789 L 43.289062 66.610352 L 45.861816 66.610352 Z " fill="rgb(0, 0, 0)" fill-opacity="1.000000" />
<path d="M 52.770508 71.976074 L 52.442871 71.976074 Q 51.578125 71.976074 51.140381 72.279541 Q 50.702637 72.583008 50.702637 73.184570 Q 50.702637 73.727051 51.030273 74.027832 Q 51.357910 74.328613 51.937988 74.328613 Q 52.754395 74.328613 53.221680 73.761963 Q 53.688965 73.195312 53.694336 72.196289 L 53.694336 71.976074 Z M 54.687988 71.567871 L 54.687988 75.000000 L 53.694336 75.000000 L 53.694336 74.108398 Q 53.377441 74.645508 52.896729 74.900635 Q 52.416016 75.155762 51.728516 75.155762 Q 50.810059 75.155762 50.262207 74.637451 Q 49.714355 74.119141 49.714355 73.249023 Q 49.714355 72.244629 50.388428 71.723633 Q 51.062500 71.202637 52.367676 71.202637 L 53.694336 71.202637 L 53.694336 71.046875 Q 53.688965 70.327148 53.329102 70.002197 Q 52.969238 69.677246 52.179688 69.677246 Q 51.674805 69.677246 51.159180 69.822266 Q 50.643555 69.967285 50.154785 70.246582 L 50.154785 69.258301 Q 50.702637 69.048828 51.204834 68.944092 Q 51.707031 68.839355 52.179688 68.839355 Q 52.926270 68.839355 53.455322 69.059570 Q 53.984375 69.279785 54.312012 69.720215 Q 54.516113 69.988770 54.602051 70.383545 Q 54.687988 70.778320 54.687988 71.567871 Z " fill="rgb(0, 0, 0)" fill-opacity="1.000000" />
<path d="M 61.226074 69.193848 L 61.226074 70.160645 Q 60.801758 69.913574 60.372070 69.790039 Q 59.942383 69.666504 59.496582 69.666504 Q 58.825195 69.666504 58.494873 69.884033 Q 58.164551 70.101562 58.164551 70.547363 Q 58.164551 70.950195 58.411621 71.148926 Q 58.658691 71.347656 59.641602 71.535645 L 60.039062 71.610840 Q 60.774902 71.750488 61.153564 72.169434 Q 61.532227 72.588379 61.532227 73.259766 Q 61.532227 74.151367 60.898438 74.653564 Q 60.264648 75.155762 59.136719 75.155762 Q 58.690918 75.155762 58.202148 75.061768 Q 57.713379 74.967773 57.144043 74.779785 L 57.144043 73.759277 Q 57.697266 74.043945 58.202148 74.186279 Q 58.707031 74.328613 59.158203 74.328613 Q 59.813477 74.328613 60.173340 74.062744 Q 60.533203 73.796875 60.533203 73.318848 Q 60.533203 72.631348 59.217285 72.368164 L 59.174316 72.357422 L 58.803711 72.282227 Q 57.949707 72.115723 57.557617 71.720947 Q 57.165527 71.326172 57.165527 70.644043 Q 57.165527 69.779297 57.750977 69.309326 Q 58.336426 68.839355 59.421387 68.839355 Q 59.904785 68.839355 60.350586 68.927979 Q 60.796387 69.016602 61.226074 69.193848 Z " fill="rgb(0, 0, 0)" fill-opacity="1.000000" />
<path d="M 66.297852 67.276367 L 66.297852 68.984375 L 68.542969 68.984375 L 68.542969 69.752441 L 66.297852 69.752441 L 66.297852 73.018066 Q 66.297852 73.684082 66.550293 73.947266 Q 66.802734 74.210449 67.431152 74.210449 L 68.542969 74.210449 L 68.542969 75.000000 L 67.334473 75.000000 Q 66.222656 75.000000 65.766113 74.554199 Q 65.309570 74.108398 65.309570 73.018066 L 65.309570 69.752441 L 63.703613 69.752441 L 63.703613 68.984375 L 65.309570 68.984375 L 65.309570 67.276367 Z " fill="rgb(0, 0, 0)" fill-opacity="1.000000" />
<path d="M 71.697266 69.005859 L 74.227051 69.005859 L 74.227051 74.231934 L 76.187500 74.231934 L 76.187500 75.000000 L 71.278320 75.000000 L 71.278320 74.231934 L 73.238770 74.231934 L 73.238770 69.773926 L 71.697266 69.773926 Z M 73.238770 66.669434 L 74.227051 66.669434 L 74.227051 67.915527 L 73.238770 67.915527 Z " fill="rgb(0, 0, 0)" fill-opacity="1.000000" />
<path d="M 82.698730 74.693848 Q 82.301270 74.924805 81.879639 75.040283 Q 81.458008 75.155762 81.017578 75.155762 Q 79.621094 75.155762 78.834229 74.317871 Q 78.047363 73.479980 78.047363 71.997559 Q 78.047363 70.515137 78.834229 69.677246 Q 79.621094 68.839355 81.017578 68.839355 Q 81.452637 68.839355 81.866211 68.952148 Q 82.279785 69.064941 82.698730 69.301270 L 82.698730 70.337891 Q 82.306641 69.988770 81.911865 69.833008 Q 81.517090 69.677246 81.017578 69.677246 Q 80.088379 69.677246 79.588867 70.278809 Q 79.089355 70.880371 79.089355 71.997559 Q 79.089355 73.109375 79.591553 73.713623 Q 80.093750 74.317871 81.017578 74.317871 Q 81.533203 74.317871 81.941406 74.159424 Q 82.349609 74.000977 82.698730 73.667969 Z " fill="rgb(0, 0, 0)" fill-opacity="1.000000" />
<path d="M 121.878906 78.319336 L 121.878906 64.300781 L 122.738281 64.300781 L 122.738281 78.319336 Z " fill="rgb(0, 0, 0)" fill-opacity="1.000000" />
<path d="M 126.032227 72.142578 L 132.590332 68.866211 L 132.590332 75.418945 Z " fill="rgb(0, 0, 0)" fill-opacity="1.000000" />
<path d="M 132.892578 72.335938 L 132.892578 71.412109 L 139.729980 71.412109 L 139.729980 72.335938 Z " fill="rgb(0, 0, 0)" fill-opacity="1.000000" />
<path d="M 139.892578 72.335938 L 139.892578 71.412109 L 146.729980 71.412109 L 146.729980 72.335938 Z " fill="rgb(0, 0, 0)" fill-opacity="1.000000" />
<path d="M 146.892578 72.335938 L 146.892578 71.412109 L 153.729980 71.412109 L 153.729980 72.335938 Z " fill="rgb(0, 0, 0)" fill-opacity="1.000000" />
<path d="M 153.892578 72.335938 L 153.892578 71.412109 L 160.729980 71.412109 L 160.729980 72.335938 Z " fill="rgb(0, 0, 0)" fill-opacity="1.000000" />
<path d="M 160.892578 72.335938 L 160.892578 71.412109 L 167.729980 71.412109 L 167.729980 72.335938 Z " fill="rgb(0, 0, 0)" fill-opacity="1.000000" />
<path d="M 167.892578 72.335938 L 167.892578 71.412109 L 174.729980 71.412109 L 174.729980 72.335938 Z " fill="rgb(0, 0, 0)" fill-opacity="1.000000" />
<path d="M 174.892578 72.335938 L 174.892578 71.412109 L 181.729980 71.412109 L 181.729980 72.335938 Z " fill="rgb(0, 0, 0)" fill-opacity="1.000000" />
<path d="M 181.892578 72.335938 L 181.892578 71.412109 L 188.729980 71.412109 L 188.729980 72.335938 Z " fill="rgb(0, 0, 0)" fill-opacity="1.000000" />
<path d="M 188.892578 72.335938 L 188.892578 71.412109 L 195.729980 71.412109 L 195.729980 72.335938 Z " fill="rgb(0, 0, 0)" fill-opacity="1.000000" />
<path d="M 195.892578 72.335938 L 195.892578 71.412109 L 202.729980 71.412109 L 202.729980 72.335938 Z " fill="rgb(0, 0, 0)" fill-opacity="1.000000" />
<path d="M 202.892578 72.335938 L 202.892578 71.412109 L 209.729980 71.412109 L 209.729980 72.335938 Z " fill="rgb(0, 0, 0)" fill-opacity="1.000000" />
<path d="M 213.738281 72.335938 L 213.738281 78.319336 L 212.878906 78.319336 L 212.878906 72.335938 L 209.892578 72.335938 L 209.892578 71.412109 L 212.878906 71.412109 L 212.878906 64.300781 L 213.738281 64.300781 L 213.738281 71.412109 L 216.729980 71.412109 L 216.729980 72.335938 Z " fill="rgb(0, 0, 0)" fill-opacity="1.000000" />
<path d="M 216.892578 72.335938 L 216.892578 71.412109 L 223.729980 71.412109 L 223.729980 72.335938 Z " fill="rgb(0, 0, 0)" fill-opacity="1.000000" />
<path d="M 223.892578 72.335938 L 223.892578 71.412109 L 230.729980 71.412109 L 230.729980 72.335938 Z " fill="rgb(0, 0, 0)" fill-opacity="1.000000" />
<path d="M 230.892578 72.335938 L 230.892578 71.412109 L 237.729980 71.412109 L 237.729980 72.335938 Z " fill="rgb(0, 0, 0)" fill-opacity="1.000000" />
<path d="M 237.892578 72.335938 L 237.892578 71.412109 L 244.729980 71.412109 L 244.729980 72.335938 Z " fill="rgb(0, 0, 0)" fill-opacity="1.000000" />
<path d="M 244.892578 72.335938 L 244.892578 71.412109 L 251.729980 71.412109 L 251.729980 72.335938 Z " fill="rgb(0, 0, 0)" fill-opacity="1.000000" />
<path d="M 251.892578 72.335938 L 251.892578 71.412109 L 258.729980 71.412109 L 258.729980 72.335938 Z " fill="rgb(0, 0, 0)" fill-opacity="1.000000" />
<path d="M 258.892578 72.335938 L 258.892578 71.412109 L 265.729980 71.412109 L 265.729980 72.335938 Z " fill="rgb(0, 0, 0)" fill-opacity="1.000000" />
<path d="M 265.892578 72.335938 L 265.892578 71.412109 L 272.729980 71.412109 L 272.729980 72.335938 Z " fill="rgb(0, 0, 0)" fill-opacity="1.000000" />
<path d="M 272.892578 72.335938 L 272.892578 71.412109 L 279.729980 71.412109 L 279.729980 72.335938 Z " fill="rgb(0, 0, 0)" fill-opacity="1.000000" />
<path d="M 279.892578 72.335938 L 279.892578 71.412109 L 286.729980 71.412109 L 286.729980 72.335938 Z " fill="rgb(0, 0, 0)" fill-opacity="1.000000" />
<path d="M 287.032227 75.418945 L 287.032227 68.866211 L 293.590332 72.142578 Z " fill="rgb(0, 0, 0)" fill-opacity="1.000000" />
<path d="M 296.878906 78.319336 L 296.878906 64.300781 L 297.738281 64.300781 L 297.738281 78.319336 Z " fill="rgb(0, 0, 0)" fill-opacity="1.000000" />
<path d="M 328.203613 70.225098 Q 327.886719 69.978027 327.559082 69.865234 Q 327.231445 69.752441 326.839355 69.752441 Q 325.915527 69.752441 325.426758 70.332520 Q 324.937988 70.912598 324.937988 72.008301 L 324.937988 75.000000 L 323.944336 75.000000 L 323.944336 68.984375 L 324.937988 68.984375 L 324.937988 70.160645 Q 325.185059 69.521484 325.697998 69.180420 Q 326.210938 68.839355 326.914551 68.839355 Q 327.279785 68.839355 327.596680 68.930664 Q 327.913574 69.021973 328.203613 69.215332 Z " fill="rgb(0, 0, 0)" fill-opacity="1.000000" />
<path d="M 335.015625 71.498047 L 335.015625 71.981445 L 330.734863 71.981445 L 330.734863 72.013672 Q 330.691895 73.243652 331.204834 73.780762 Q 331.717773 74.317871 332.652344 74.317871 Q 333.125000 74.317871 333.640625 74.167480 Q 334.156250 74.017090 334.741699 73.710938 L 334.741699 74.693848 Q 334.177734 74.924805 333.654053 75.040283 Q 333.130371 75.155762 332.641602 75.155762 Q 331.239746 75.155762 330.450195 74.315186 Q 329.660645 73.474609 329.660645 71.997559 Q 329.660645 70.558105 330.434082 69.698730 Q 331.207520 68.839355 332.496582 68.839355 Q 333.645996 68.839355 334.309326 69.618164 Q 334.972656 70.396973 335.015625 71.498047 Z M 334.027344 71.208008 Q 333.962891 70.584961 333.573486 70.131104 Q 333.184082 69.677246 332.453613 69.677246 Q 331.739258 69.677246 331.277344 70.149902 Q 330.815430 70.622559 330.772461 71.213379 Z " fill="rgb(0, 0, 0)" fill-opacity="1.000000" />
<path d="M 341.226074 69.193848 L 341.226074 70.160645 Q 340.801758 69.913574 340.372070 69.790039 Q 339.942383 69.666504 339.496582 69.666504 Q 338.825195 69.666504 338.494873 69.884033 Q 338.164551 70.101562 338.164551 70.547363 Q 338.164551 70.950195 338.411621 71.148926 Q 338.658691 71.347656 339.641602 71.535645 L 340.039062 71.610840 Q 340.774902 71.750488 341.153564 72.169434 Q 341.532227 72.588379 341.532227 73.259766 Q 341.532227 74.151367 340.898438 74.653564 Q 340.264648 75.155762 339.136719 75.155762 Q 338.690918 75.155762 338.202148 75.061768 Q 337.713379 74.967773 337.144043 74.779785 L 337.144043 73.759277 Q 337.697266 74.043945 338.202148 74.186279 Q 338.707031 74.328613 339.158203 74.328613 Q 339.813477 74.328613 340.173340 74.062744 Q 340.533203 73.796875 340.533203 73.318848 Q 340.533203 72.631348 339.217285 72.368164 L 339.174316 72.357422 L 338.803711 72.282227 Q 337.949707 72.115723 337.557617 71.720947 Q 337.165527 71.326172 337.165527 70.644043 Q 337.165527 69.779297 337.750977 69.309326 Q 338.336426 68.839355 339.421387 68.839355 Q 339.904785 68.839355 340.350586 68.927979 Q 340.796387 69.016602 341.226074 69.193848 Z " fill="rgb(0, 0, 0)" fill-opacity="1.000000" />
<path d="M 344.697266 69.005859 L 347.227051 69.005859 L 347.227051 74.231934 L 349.187500 74.231934 L 349.187500 75.000000 L 344.278320 75.000000 L 344.278320 74.231934 L 346.238770 74.231934 L 346.238770 69.773926 L 344.697266 69.773926 Z M 346.238770 66.669434 L 347.227051 66.669434 L 347.227051 67.915527 L 346.238770 67.915527 Z " fill="rgb(0, 0, 0)" fill-opacity="1.000000" />
<path d="M 353.861816 72.824707 Q 353.861816 73.490723 354.106201 73.829102 Q 354.350586 74.167480 354.828613 74.167480 L 355.983398 74.167480 L 355.983398 75.000000 L 354.731934 75.000000 Q 353.845703 75.000000 353.359619 74.433350 Q 352.873535 73.866699 352.873535 72.824707 L 352.873535 67.383789 L 351.289062 67.383789 L 351.289062 66.610352 L 353.861816 66.610352 Z " fill="rgb(0, 0, 0)" fill-opacity="1.000000" />
<path d="M 358.697266 69.005859 L 361.227051 69.005859 L 361.227051 74.231934 L 363.187500 74.231934 L 363.187500 75.000000 L 358.278320 75.000000 L 358.278320 74.231934 L 360.238770 74.231934 L 360.238770 69.773926 L 358.697266 69.773926 Z M 360.238770 66.669434 L 361.227051 66.669434 L 361.227051 67.915527 L 360.238770 67.915527 Z " fill="rgb(0, 0, 0)" fill-opacity="1.000000" />
<path d="M 370.015625 71.498047 L 370.015625 71.981445 L 365.734863 71.981445 L 365.734863 72.013672 Q 365.691895 73.243652 366.204834 73.780762 Q 366.717773 74.317871 367.652344 74.317871 Q 368.125000 74.317871 368.640625 74.167480 Q 369.156250 74.017090 369.741699 73.710938 L 369.741699 74.693848 Q 369.177734 74.924805 368.654053 75.040283 Q 368.130371 75.155762 367.641602 75.155762 Q 366.239746 75.155762 365.450195 74.315186 Q 364.660645 73.474609 364.660645 71.997559 Q 364.660645 70.558105 365.434082 69.698730 Q 366.207520 68.839355 367.496582 68.839355 Q 368.645996 68.839355 369.309326 69.618164 Q 369.972656 70.396973 370.015625 71.498047 Z M 369.027344 71.208008 Q 368.962891 70.584961 368.573486 70.131104 Q 368.184082 69.677246 367.453613 69.677246 Q 366.739258 69.677246 366.277344 70.149902 Q 365.815430 70.622559 365.772461 71.213379 Z " fill="rgb(0, 0, 0)" fill-opacity="1.000000" />
<path d="M 376.645020 71.272461 L 376.645020 75.000000 L 375.651367 75.000000 L 375.651367 71.272461 Q 375.651367 70.461426 375.366699 70.080078 Q 375.082031 69.698730 374.475098 69.698730 Q 373.782227 69.698730 373.408936 70.190186 Q 373.035645 70.681641 373.035645 71.600098 L 373.035645 75.000000 L 372.047363 75.000000 L 372.047363 68.984375 L 373.035645 68.984375 L 373.035645 69.886719 Q 373.298828 69.371094 373.750000 69.105225 Q 374.201172 68.839355 374.818848 68.839355 Q 375.737305 68.839355 376.191162 69.443604 Q 376.645020 70.047852 376.645020 71.272461 Z " fill="rgb(0, 0, 0)" fill-opacity="1.000000" />
<path d="M 381.297852 67.276367 L 381.297852 68.984375 L 383.542969 68.984375 L 383.542969 69.752441 L 381.297852 69.752441 L 381.297852 73.018066 Q 381.297852 73.684082 381.550293 73.947266 Q 381.802734 74.210449 382.431152 74.210449 L 383.542969 74.210449 L 383.542969 75.000000 L 382.334473 75.000000 Q 381.222656 75.000000 380.766113 74.554199 Q 380.309570 74.108398 380.309570 73.018066 L 380.309570 69.752441 L 378.703613 69.752441 L 378.703613 68.984375 L 380.309570 68.984375 L 380.309570 67.276367 Z " fill="rgb(0, 0, 0)" fill-opacity="1.000000" />
<path d="M 415.878906 78.319336 L 415.878906 64.300781 L 416.738281 64.300781 L 416.738281 78.319336 Z " fill="rgb(0, 0, 0)" fill-opacity="1.000000" />
<path d="M 6.892578 59.335938 L 6.892578 58.412109 L 13.729980 58.412109 L 13.729980 59.335938 Z " fill="rgb(0, 0, 0)" fill-opacity="1.000000" />
<path d="M 13.892578 59.335938 L 13.892578 58.412109 L 20.729980 58.412109 L 20.729980 59.335938 Z " fill="rgb(0, 0, 0)" fill-opacity="1.000000" />
<path d="M 20.892578 59.335938 L 20.892578 58.412109 L 27.729980 58.412109 L 27.729980 59.335938 Z " fill="rgb(0, 0, 0)" fill-opacity="1.000000" />
<path d="M 27.892578 59.335938 L 27.892578 58.412109 L 34.729980 58.412109 L 34.729980 59.335938 Z " fill="rgb(0, 0, 0)" fill-opacity="1.000000" />
<path d="M 34.892578 59.335938 L 34.892578 58.412109 L 41.729980 58.412109 L 41.729980 59.335938 Z " fill="rgb(0, 0, 0)" fill-opacity="1.000000" />
<path d="M 41.892578 59.335938 L 41.892578 58.412109 L 48.729980 58.412109 L 48.729980 59.335938 Z " fill="rgb(0, 0, 0)" fill-opacity="1.000000" />
<path d="M 48.892578 59.335938 L 48.892578 58.412109 L 55.729980 58.412109 L 55.729980 59.335938 Z " fill="rgb(0, 0, 0)" fill-opacity="1.000000" />
<path d="M 55.892578 59.335938 L 55.892578 58.412109 L 62.729980 58.412109 L 62.729980 59.335938 Z " fill="rgb(0, 0, 0)" fill-opacity="1.000000" />
<path d="M 62.892578 59.335938 L 62.892578 58.412109 L 69.729980 58.412109 L 69.729980 59.335938 Z " fill="rgb(0, 0, 0)" fill-opacity="1.000000" />
<path d="M 69.892578 59.335938 L 69.892578 58.412109 L 76.729980 58.412109 L 76.729980 59.335938 Z " fill="rgb(0, 0, 0)" fill-opacity="1.000000" />
<path d="M 76.892578 59.335938 L 76.892578 58.412109 L 83.729980 58.412109 L 83.729980 59.335938 Z " fill="rgb(0, 0, 0)" fill-opacity="1.000000" />
<path d="M 83.892578 59.335938 L 83.892578 58.412109 L 90.729980 58.412109 L 90.729980 59.335938 Z " fill="rgb(0, 0, 0)" fill-opacity="1.000000" />
<path d="M 90.892578 59.335938 L 90.892578 58.412109 L 97.729980 58.412109 L 97.729980 59.335938 Z " fill="rgb(0, 0, 0)" fill-opacity="1.000000" />
<path d="M 97.892578 59.335938 L 97.892578 58.412109 L 104.729980 58.412109 L 104.729980 59.335938 Z " fill="rgb(0, 0, 0)" fill-opacity="1.000000" />
<path d="M 104.892578 59.335938 L 104.892578 58.412109 L 111.729980 58.412109 L 111.729980 59.335938 Z " fill="rgb(0, 0, 0)" fill-opacity="1.000000" />
<path d="M 111.892578 59.335938 L 111.892578 58.412109 L 118.729980 58.412109 L 118.729980 59.335938 Z " fill="rgb(0, 0, 0)" fill-opacity="1.000000" />
<path d="M 121.878906 65.319336 L 121.878906 59.335938 L 118.892578 59.335938 L 118.892578 58.412109 L 122.738281 58.412109 L 122.738281 65.319336 Z " fill="rgb(0, 0, 0)" fill-opacity="1.000000" />
<path d="M 212.878906 65.319336 L 212.878906 51.300781 L 213.738281 51.300781 L 213.738281 65.319336 Z " fill="rgb(0, 0, 0)" fill-opacity="1.000000" />
<path d="M 296.878906 65.319336 L 296.878906 58.412109 L 300.729980 58.412109 L 300.729980 59.335938 L 297.738281 59.335938 L 297.738281 65.319336 Z " fill="rgb(0, 0, 0)" fill-opacity="1.000000" />
<path d="M 300.892578 59.335938 L 300.892578 58.412109 L 307.729980 58.412109 L 307.729980 59.335938 Z " fill="rgb(0, 0, 0)" fill-opacity="1.000000" />
<path d="M 307.892578 59.335938 L 307.892578 58.412109 L 314.729980 58.412109 L 314.729980 59.335938 Z " fill="rgb(0, 0, 0)" fill-opacity="1.000000" />
<path d="M 314.892578 59.335938 L 314.892578 58.412109 L 321.729980 58.412109 L 321.729980 59.335938 Z " fill="rgb(0, 0, 0)" fill-opacity="1.000000" />
<path d="M 321.892578 59.335938 L 321.892578 58.412109 L 328.729980 58.412109 L 328.729980 59.335938 Z " fill="rgb(0, 0, 0)" fill-opacity="1.000000" />
<path d="M 328.892578 59.335938 L 328.892578 58.412109 L 335.729980 58.412109 L 335.729980 59.335938 Z " fill="rgb(0, 0, 0)" fill-opacity="1.000000" />
<path d="M 335.892578 59.335938 L 335.892578 58.412109 L 342.729980 58.412109 L 342.729980 59.335938 Z " fill="rgb(0, 0, 0)" fill-opacity="1.000000" />
<path d="M 342.892578 59.335938 L 342.892578 58.412109 L 349.729980 58.412109 L 349.729980 59.335938 Z " fill="rgb(0, 0, 0)" fill-opacity="1.000000" />
<path d="M 349.892578 59.335938 L 349.892578 58.412109 L 356.729980 58.412109 L 356.729980 59.335938 Z " fill="rgb(0, 0, 0)" fill-opacity="1.000000" />
<path d="M 356.892578 59.335938 L 356.892578 58.412109 L 363.729980 58.412109 L 363.729980 59.335938 Z " fill="rgb(0, 0, 0)" fill-opacity="1.000000" />
<path d="M 363.892578 59.335938 L 363.892578 58.412109 L 370.729980 58.412109 L 370.729980 59.335938 Z " fill="rgb(0, 0, 0)" fill-opacity="1.000000" />
<path d="M 370.892578 59.335938 L 370.892578 58.412109 L 377.729980 58.412109 L 377.729980 59.335938 Z " fill="rgb(0, 0, 0)" fill-opacity="1.000000" />
<path d="M 377.892578 59.335938 L 377.892578 58.412109 L 384.729980 58.412109 L 384.729980 59.335938 Z " fill="rgb(0, 0, 0)" fill-opacity="1.000000" />
<path d="M 384.892578 59.335938 L 384.892578 58.412109 L 391.729980 58.412109 L 391.729980 59.335938 Z " fill="rgb(0, 0, 0)" fill-opacity="1.000000" />
<path d="M 391.892578 59.335938 L 391.892578 58.412109 L 398.729980 58.412109 L 398.729980 59.335938 Z " fill="rgb(0, 0, 0)" fill-opacity="1.000000" />
<path d="M 398.892578 59.335938 L 398.892578 58.412109 L 405.729980 58.412109 L 405.729980 59.335938 Z " fill="rgb(0, 0, 0)" fill-opacity="1.000000" />
<path d="M 405.892578 59.335938 L 405.892578 58.412109 L 412.729980 58.412109 L 412.729980 59.335938 Z " fill="rgb(0, 0, 0)" fill-opacity="1.000000" />
<path d="M 415.878906 65.319336 L 415.878906 59.335938 L 412.892578 59.335938 L 412.892578 58.412109 L 416.738281 58.412109 L 416.738281 65.319336 Z " fill="rgb(0, 0, 0)" fill-opacity="1.000000" />
<path d="M 65.878906 26.319336 L 65.878906 19.412109 L 69.729980 19.412109 L 69.729980 20.335938 L 66.738281 20.335938 L 66.738281 26.319336 Z " fill="rgb(0, 0, 0)" fill-opacity="1.000000" />
<path d="M 65.878906 39.319336 L 65.878906 25.300781 L 66.738281 25.300781 L 66.738281 39.319336 Z " fill="rgb(0, 0, 0)" fill-opacity="1.000000" />
<path d="M 65.878906 52.319336 L 65.878906 38.300781 L 66.738281 38.300781 L 66.738281 52.319336 Z " fill="rgb(0, 0, 0)" fill-opacity="1.000000" />
<path d="M 149.878906 33.335938 L 149.878906 25.300781 L 150.738281 25.300781 L 150.738281 32.412109 L 153.729980 32.412109 L 153.729980 33.335938 Z " fill="rgb(0, 0, 0)" fill-opacity="1.000000" />
<path d="M 210.032227 49.418945 L 213.308594 42.866211 L 216.590332 49.418945 Z " fill="rgb(0, 0, 0)" fill-opacity="1.000000" />
<path d="M 359.878906 52.319336 L 359.878906 38.300781 L 360.738281 38.300781 L 360.738281 52.319336 Z " fill="rgb(0, 0, 0)" fill-opacity="1.000000" />
<path d="M 153.892578 33.335938 L 153.892578 32.412109 L 160.729980 32.412109 L 160.729980 33.335938 Z " fill="rgb(0, 0, 0)" fill-opacity="1.000000" />
<path d="M 160.892578 33.335938 L 160.892578 32.412109 L 167.729980 32.412109 L 167.729980 33.335938 Z " fill="rgb(0, 0, 0)" fill-opacity="1.000000" />
<path d="M 167.892578 33.335938 L 167.892578 32.412109 L 174.729980 32.412109 L 174.729980 33.335938 Z " fill="rgb(0, 0, 0)" fill-opacity="1.000000" />
<path d="M 174.892578 33.335938 L 174.892578 32.412109 L 181.729980 32.412109 L 181.729980 33.335938 Z " fill="rgb(0, 0, 0)" fill-opacity="1.000000" />
<path d="M 181.892578 33.335938 L 181.892578 32.412109 L 188.729980 32.412109 L 188.729980 33.335938 Z " fill="rgb(0, 0, 0)" fill-opacity="1.000000" />
<path d="M 188.892578 33.335938 L 188.892578 32.412109 L 195.729980 32.412109 L 195.729980 33.335938 Z " fill="rgb(0, 0, 0)" fill-opacity="1.000000" />
<path d="M 195.892578 33.335938 L 195.892578 32.412109 L 202.729980 32.412109 L 202.729980 33.335938 Z " fill="rgb(0, 0, 0)" fill-opacity="1.000000" />
<path d="M 202.892578 33.335938 L 202.892578 32.412109 L 209.729980 32.412109 L 209.729980 33.335938 Z " fill="rgb(0, 0, 0)" fill-opacity="1.000000" />
<path d="M 209.892578 33.335938 L 209.892578 32.412109 L 216.729980 32.412109 L 216.729980 33.335938 Z " fill="rgb(0, 0, 0)" fill-opacity="1.000000" />
<path d="M 216.892578 33.335938 L 216.892578 32.412109 L 223.729980 32.412109 L 223.729980 33.335938 Z " fill="rgb(0, 0, 0)" fill-opacity="1.000000" />
<path d="M 223.892578 33.335938 L 223.892578 32.412109 L 230.729980 32.412109 L 230.729980 33.335938 Z " fill="rgb(0, 0, 0)" fill-opacity="1.000000" />
<path d="M 230.892578 33.335938 L 230.892578 32.412109 L 237.729980 32.412109 L 237.729980 33.335938 Z " fill="rgb(0, 0, 0)" fill-opacity="1.000000" />
<path d="M 237.892578 33.335938 L 237.892578 32.412109 L 244.729980 32.412109 L 244.729980 33.335938 Z " fill="rgb(0, 0, 0)" fill-opacity="1.000000" />
<path d="M 244.892578 33.335938 L 244.892578 32.412109 L 251.729980 32.412109 L 251.729980 33.335938 Z " fill="rgb(0, 0, 0)" fill-opacity="1.000000" />
<path d="M 251.892578 33.335938 L 251.892578 32.412109 L 258.729980 32.412109 L 258.729980 33.335938 Z " fill="rgb(0, 0, 0)" fill-opacity="1.000000" />
<path d="M 258.892578 33.335938 L 258.892578 32.412109 L 265.729980 32.412109 L 265.729980 33.335938 Z " fill="rgb(0, 0, 0)" fill-opacity="1.000000" />
<path d="M 265.892578 33.335938 L 265.892578 32.412109 L 268.878906 32.412109 L 268.878906 25.300781 L 269.738281 25.300781 L 269.738281 33.335938 Z " fill="rgb(0, 0, 0)" fill-opacity="1.000000" />
<path d="M 359.878906 39.319336 L 359.878906 25.300781 L 360.738281 25.300781 L 360.738281 39.319336 Z " fill="rgb(0, 0, 0)" fill-opacity="1.000000" />
<path d="M 69.892578 20.335938 L 69.892578 19.412109 L 76.729980 19.412109 L 76.729980 20.335938 Z " fill="rgb(0, 0, 0)" fill-opacity="1.000000" />
<path d="M 76.892578 20.335938 L 76.892578 19.412109 L 83.729980 19.412109 L 83.729980 20.335938 Z " fill="rgb(0, 0, 0)" fill-opacity="1.000000" />
<path d="M 83.892578 20.335938 L 83.892578 19.412109 L 90.729980 19.412109 L 90.729980 20.335938 Z " fill="rgb(0, 0, 0)" fill-opacity="1.000000" />
<path d="M 90.892578 20.335938 L 90.892578 19.412109 L 97.729980 19.412109 L 97.729980 20.335938 Z " fill="rgb(0, 0, 0)" fill-opacity="1.000000" />
<path d="M 97.892578 20.335938 L 97.892578 19.412109 L 104.729980 19.412109 L 104.729980 20.335938 Z " fill="rgb(0, 0, 0)" fill-opacity="1.000000" />
<path d="M 104.892578 20.335938 L 104.892578 19.412109 L 111.729980 19.412109 L 111.729980 20.335938 Z " fill="rgb(0, 0, 0)" fill-opacity="1.000000" />
<path d="M 111.892578 20.335938 L 111.892578 19.412109 L 118.729980 19.412109 L 118.729980 20.335938 Z " fill="rgb(0, 0, 0)" fill-opacity="1.000000" />
<path d="M 118.892578 20.335938 L 118.892578 19.412109 L 125.729980 19.412109 L 125.729980 20.335938 Z " fill="rgb(0, 0, 0)" fill-opacity="1.000000" />
<path d="M 125.892578 20.335938 L 125.892578 19.412109 L 132.729980 19.412109 L 132.729980 20.335938 Z " fill="rgb(0, 0, 0)" fill-opacity="1.000000" />
<path d="M 132.892578 20.335938 L 132.892578 19.412109 L 139.729980 19.412109 L 139.729980 20.335938 Z " fill="rgb(0, 0, 0)" fill-opacity="1.000000" />
<path d="M 140.032227 23.418945 L 140.032227 16.866211 L 146.590332 20.142578 Z " fill="rgb(0, 0, 0)" fill-opacity="1.000000" />
<path d="M 149.878906 26.319336 L 149.878906 12.300781 L 150.738281 12.300781 L 150.738281 26.319336 Z " fill="rgb(0, 0, 0)" fill-opacity="1.000000" />
<path d="M 181.203613 18.225098 Q 180.886719 17.978027 180.559082 17.865234 Q 180.231445 17.752441 179.839355 17.752441 Q 178.915527 17.752441 178.426758 18.332520 Q 177.937988 18.912598 177.937988 20.008301 L 177.937988 23.000000 L 176.944336 23.000000 L 176.944336 16.984375 L 177.937988 16.984375 L 177.937988 18.160645 Q 178.185059 17.521484 178.697998 17.180420 Q 179.210938 16.839355 179.914551 16.839355 Q 180.279785 16.839355 180.596680 16.930664 Q 180.913574 17.021973 181.203613 17.215332 Z " fill="rgb(0, 0, 0)" fill-opacity="1.000000" />
<path d="M 188.015625 19.498047 L 188.015625 19.981445 L 183.734863 19.981445 L 183.734863 20.013672 Q 183.691895 21.243652 184.204834 21.780762 Q 184.717773 22.317871 185.652344 22.317871 Q 186.125000 22.317871 186.640625 22.167480 Q 187.156250 22.017090 187.741699 21.710938 L 187.741699 22.693848 Q 187.177734 22.924805 186.654053 23.040283 Q 186.130371 23.155762 185.641602 23.155762 Q 184.239746 23.155762 183.450195 22.315186 Q 182.660645 21.474609 182.660645 19.997559 Q 182.660645 18.558105 183.434082 17.698730 Q 184.207520 16.839355 185.496582 16.839355 Q 186.645996 16.839355 187.309326 17.618164 Q 187.972656 18.396973 188.015625 19.498047 Z M 187.027344 19.208008 Q 186.962891 18.584961 186.573486 18.131104 Q 186.184082 17.677246 185.453613 17.677246 Q 184.739258 17.677246 184.277344 18.149902 Q 183.815430 18.622559 183.772461 19.213379 Z " fill="rgb(0, 0, 0)" fill-opacity="1.000000" />
<path d="M 194.226074 17.193848 L 194.226074 18.160645 Q 193.801758 17.913574 193.372070 17.790039 Q 192.942383 17.666504 192.496582 17.666504 Q 191.825195 17.666504 191.494873 17.884033 Q 191.164551 18.101562 191.164551 18.547363 Q 191.164551 18.950195 191.411621 19.148926 Q 191.658691 19.347656 192.641602 19.535645 L 193.039062 19.610840 Q 193.774902 19.750488 194.153564 20.169434 Q 194.532227 20.588379 194.532227 21.259766 Q 194.532227 22.151367 193.898438 22.653564 Q 193.264648 23.155762 192.136719 23.155762 Q 191.690918 23.155762 191.202148 23.061768 Q 190.713379 22.967773 190.144043 22.779785 L 190.144043 21.759277 Q 190.697266 22.043945 191.202148 22.186279 Q 191.707031 22.328613 192.158203 22.328613 Q 192.813477 22.328613 193.173340 22.062744 Q 193.533203 21.796875 193.533203 21.318848 Q 193.533203 20.631348 192.217285 20.368164 L 192.174316 20.357422 L 191.803711 20.282227 Q 190.949707 20.115723 190.557617 19.720947 Q 190.165527 19.326172 190.165527 18.644043 Q 190.165527 17.779297 190.750977 17.309326 Q 191.336426 16.839355 192.421387 16.839355 Q 192.904785 16.839355 193.350586 16.927979 Q 193.796387 17.016602 194.226074 17.193848 Z " fill="rgb(0, 0, 0)" fill-opacity="1.000000" />
<path d="M 198.014160 22.242676 L 198.014160 25.288086 L 197.020508 25.288086 L 197.020508 16.984375 L 198.014160 16.984375 L 198.014160 17.752441 Q 198.261230 17.306641 198.672119 17.072998 Q 199.083008 16.839355 199.620117 16.839355 Q 200.710449 16.839355 201.330811 17.682617 Q 201.951172 18.525879 201.951172 20.019043 Q 201.951172 21.485352 201.328125 22.320557 Q 200.705078 23.155762 199.620117 23.155762 Q 199.072266 23.155762 198.661377 22.922119 Q 198.250488 22.688477 198.014160 22.242676 Z M 200.914551 19.997559 Q 200.914551 18.848145 200.552002 18.262695 Q 200.189453 17.677246 199.475098 17.677246 Q 198.755371 17.677246 198.384766 18.265381 Q 198.014160 18.853516 198.014160 19.997559 Q 198.014160 21.136230 198.384766 21.727051 Q 198.755371 22.317871 199.475098 22.317871 Q 200.189453 22.317871 200.552002 21.732422 Q 200.914551 21.146973 200.914551 19.997559 Z " fill="rgb(0, 0, 0)" fill-opacity="1.000000" />
<path d="M 206.308594 17.677246 Q 205.556641 17.677246 205.169922 18.262695 Q 204.783203 18.848145 204.783203 19.997559 Q 204.783203 21.141602 205.169922 21.729736 Q 205.556641 22.317871 206.308594 22.317871 Q 207.065918 22.317871 207.452637 21.729736 Q 207.839355 21.141602 207.839355 19.997559 Q 207.839355 18.848145 207.452637 18.262695 Q 207.065918 17.677246 206.308594 17.677246 Z M 206.308594 16.839355 Q 207.560059 16.839355 208.223389 17.650391 Q 208.886719 18.461426 208.886719 19.997559 Q 208.886719 21.539062 208.226074 22.347412 Q 207.565430 23.155762 206.308594 23.155762 Q 205.057129 23.155762 204.396484 22.347412 Q 203.735840 21.539062 203.735840 19.997559 Q 203.735840 18.461426 204.396484 17.650391 Q 205.057129 16.839355 206.308594 16.839355 Z " fill="rgb(0, 0, 0)" fill-opacity="1.000000" />
<path d="M 215.645020 19.272461 L 215.645020 23.000000 L 214.651367 23.000000 L 214.651367 19.272461 Q 214.651367 18.461426 214.366699 18.080078 Q 214.082031 17.698730 213.475098 17.698730 Q 212.782227 17.698730 212.408936 18.190186 Q 212.035645 18.681641 212.035645 19.600098 L 212.035645 23.000000 L 211.047363 23.000000 L 211.047363 16.984375 L 212.035645 16.984375 L 212.035645 17.886719 Q 212.298828 17.371094 212.750000 17.105225 Q 213.201172 16.839355 213.818848 16.839355 Q 214.737305 16.839355 215.191162 17.443604 Q 215.645020 18.047852 215.645020 19.272461 Z " fill="rgb(0, 0, 0)" fill-opacity="1.000000" />
<path d="M 222.226074 17.193848 L 222.226074 18.160645 Q 221.801758 17.913574 221.372070 17.790039 Q 220.942383 17.666504 220.496582 17.666504 Q 219.825195 17.666504 219.494873 17.884033 Q 219.164551 18.101562 219.164551 18.547363 Q 219.164551 18.950195 219.411621 19.148926 Q 219.658691 19.347656 220.641602 19.535645 L 221.039062 19.610840 Q 221.774902 19.750488 222.153564 20.169434 Q 222.532227 20.588379 222.532227 21.259766 Q 222.532227 22.151367 221.898438 22.653564 Q 221.264648 23.155762 220.136719 23.155762 Q 219.690918 23.155762 219.202148 23.061768 Q 218.713379 22.967773 218.144043 22.779785 L 218.144043 21.759277 Q 218.697266 22.043945 219.202148 22.186279 Q 219.707031 22.328613 220.158203 22.328613 Q 220.813477 22.328613 221.173340 22.062744 Q 221.533203 21.796875 221.533203 21.318848 Q 221.533203 20.631348 220.217285 20.368164 L 220.174316 20.357422 L 219.803711 20.282227 Q 218.949707 20.115723 218.557617 19.720947 Q 218.165527 19.326172 218.165527 18.644043 Q 218.165527 17.779297 218.750977 17.309326 Q 219.336426 16.839355 220.421387 16.839355 Q 220.904785 16.839355 221.350586 16.927979 Q 221.796387 17.016602 222.226074 17.193848 Z " fill="rgb(0, 0, 0)" fill-opacity="1.000000" />
<path d="M 225.697266 17.005859 L 228.227051 17.005859 L 228.227051 22.231934 L 230.187500 22.231934 L 230.187500 23.000000 L 225.278320 23.000000 L 225.278320 22.231934 L 227.238770 22.231934 L 227.238770 17.773926 L 225.697266 17.773926 Z M 227.238770 14.669434 L 228.227051 14.669434 L 228.227051 15.915527 L 227.238770 15.915527 Z " fill="rgb(0, 0, 0)" fill-opacity="1.000000" />
<path d="M 231.537109 16.984375 L 232.562988 16.984375 L 234.308594 22.033203 L 236.059570 16.984375 L 237.085449 16.984375 L 234.947754 23.000000 L 233.674805 23.000000 Z " fill="rgb(0, 0, 0)" fill-opacity="1.000000" />
<path d="M 244.015625 19.498047 L 244.015625 19.981445 L 239.734863 19.981445 L 239.734863 20.013672 Q 239.691895 21.243652 240.204834 21.780762 Q 240.717773 22.317871 241.652344 22.317871 Q 242.125000 22.317871 242.640625 22.167480 Q 243.156250 22.017090 243.741699 21.710938 L 243.741699 22.693848 Q 243.177734 22.924805 242.654053 23.040283 Q 242.130371 23.155762 241.641602 23.155762 Q 240.239746 23.155762 239.450195 22.315186 Q 238.660645 21.474609 238.660645 19.997559 Q 238.660645 18.558105 239.434082 17.698730 Q 240.207520 16.839355 241.496582 16.839355 Q 242.645996 16.839355 243.309326 17.618164 Q 243.972656 18.396973 244.015625 19.498047 Z M 243.027344 19.208008 Q 242.962891 18.584961 242.573486 18.131104 Q 242.184082 17.677246 241.453613 17.677246 Q 240.739258 17.677246 240.277344 18.149902 Q 239.815430 18.622559 239.772461 19.213379 Z " fill="rgb(0, 0, 0)" fill-opacity="1.000000" />
<path d="M 268.878906 26.319336 L 268.878906 12.300781 L 269.738281 12.300781 L 269.738281 26.319336 Z " fill="rgb(0, 0, 0)" fill-opacity="1.000000" />
<path d="M 273.032227 20.142578 L 279.590332 16.866211 L 279.590332 23.418945 Z " fill="rgb(0, 0, 0)" fill-opacity="1.000000" />
<path d="M 279.892578 20.335938 L 279.892578 19.412109 L 286.729980 19.412109 L 286.729980 20.335938 Z " fill="rgb(0, 0, 0)" fill-opacity="1.000000" />
<path d="M 286.892578 20.335938 L 286.892578 19.412109 L 293.729980 19.412109 L 293.729980 20.335938 Z " fill="rgb(0, 0, 0)" fill-opacity="1.000000" />
<path d="M 293.892578 20.335938 L 293.892578 19.412109 L 300.729980 19.412109 L 300.729980 20.335938 Z " fill="rgb(0, 0, 0)" fill-opacity="1.000000" />
<path d="M 300.892578 20.335938 L 300.892578 19.412109 L 307.729980 19.412109 L 307.729980 20.335938 Z " fill="rgb(0, 0, 0)" fill-opacity="1.000000" />
<path d="M 307.892578 20.335938 L 307.892578 19.412109 L 314.729980 19.412109 L 314.729980 20.335938 Z " fill="rgb(0, 0, 0)" fill-opacity="1.000000" />
<path d="M 314.892578 20.335938 L 314.892578 19.412109 L 321.729980 19.412109 L 321.729980 20.335938 Z " fill="rgb(0, 0, 0)" fill-opacity="1.000000" />
<path d="M 321.892578 20.335938 L 321.892578 19.412109 L 328.729980 19.412109 L 328.729980 20.335938 Z " fill="rgb(0, 0, 0)" fill-opacity="1.000000" />
<path d="M 328.892578 20.335938 L 328.892578 19.412109 L 335.729980 19.412109 L 335.729980 20.335938 Z " fill="rgb(0, 0, 0)" fill-opacity="1.000000" />
<path d="M 335.892578 20.335938 L 335.892578 19.412109 L 342.729980 19.412109 L 342.729980 20.335938 Z " fill="rgb(0, 0, 0)" fill-opacity="1.000000" />
<path d="M 342.892578 20.335938 L 342.892578 19.412109 L 349.729980 19.412109 L 349.729980 20.335938 Z " fill="rgb(0, 0, 0)" fill-opacity="1.000000" />
<path d="M 349.892578 20.335938 L 349.892578 19.412109 L 356.729980 19.412109 L 356.729980 20.335938 Z " fill="rgb(0, 0, 0)" fill-opacity="1.000000" />
<path d="M 359.878906 26.319336 L 359.878906 20.335938 L 356.892578 20.335938 L 356.892578 19.412109 L 360.738281 19.412109 L 360.738281 26.319336 Z " fill="rgb(0, 0, 0)" fill-opacity="1.000000" />
<path d="M 149.878906 13.319336 L 149.878906 6.412109 L 153.729980 6.412109 L 153.729980 7.335938 L 150.738281 7.335938 L 150.738281 13.319336 Z " fill="rgb(0, 0, 0)" fill-opacity="1.000000" />
<path d="M 153.892578 7.335938 L 153.892578 6.412109 L 160.729980 6.412109 L 160.729980 7.335938 Z " fill="rgb(0, 0, 0)" fill-opacity="1.000000" />
<path d="M 160.892578 7.335938 L 160.892578 6.412109 L 167.729980 6.412109 L 167.729980 7.335938 Z " fill="rgb(0, 0, 0)" fill-opacity="1.000000" />
<path d="M 167.892578 7.335938 L 167.892578 6.412109 L 174.729980 6.412109 L 174.729980 7.335938 Z " fill="rgb(0, 0, 0)" fill-opacity="1.000000" />
<path d="M 174.892578 7.335938 L 174.892578 6.412109 L 181.729980 6.412109 L 181.729980 7.335938 Z " fill="rgb(0, 0, 0)" fill-opacity="1.000000" />
<path d="M 181.892578 7.335938 L 181.892578 6.412109 L 188.729980 6.412109 L 188.729980 7.335938 Z " fill="rgb(0, 0, 0)" fill-opacity="1.000000" />
<path d="M 188.892578 7.335938 L 188.892578 6.412109 L 195.729980 6.412109 L 195.729980 7.335938 Z " fill="rgb(0, 0, 0)" fill-opacity="1.000000" />
<path d="M 195.892578 7.335938 L 195.892578 6.412109 L 202.729980 6.412109 L 202.729980 7.335938 Z " fill="rgb(0, 0, 0)" fill-opacity="1.000000" />
<path d="M 202.892578 7.335938 L 202.892578 6.412109 L 209.729980 6.412109 L 209.729980 7.335938 Z " fill="rgb(0, 0, 0)" fill-opacity="1.000000" />
<path d="M 209.892578 7.335938 L 209.892578 6.412109 L 216.729980 6.412109 L 216.729980 7.335938 Z " fill="rgb(0, 0, 0)" fill-opacity="1.000000" />
<path d="M 216.892578 7.335938 L 216.892578 6.412109 L 223.729980 6.412109 L 223.729980 7.335938 Z " fill="rgb(0, 0, 0)" fill-opacity="1.000000" />
<path d="M 223.892578 7.335938 L 223.892578 6.412109 L 230.729980 6.412109 L 230.729980 7.335938 Z " fill="rgb(0, 0, 0)" fill-opacity="1.000000" />
<path d="M 230.892578 7.335938 L 230.892578 6.412109 L 237.729980 6.412109 L 237.729980 7.335938 Z " fill="rgb(0, 0, 0)" fill-opacity="1.000000" />
<path d="M 237.892578 7.335938 L 237.892578 6.412109 L 244.729980 6.412109 L 244.729980 7.335938 Z " fill="rgb(0, 0, 0)" fill-opacity="1.000000" />
<path d="M 244.892578 7.335938 L 244.892578 6.412109 L 251.729980 6.412109 L 251.729980 7.335938 Z " fill="rgb(0, 0, 0)" fill-opacity="1.000000" />
<path d="M 251.892578 7.335938 L 251.892578 6.412109 L 258.729980 6.412109 L 258.729980 7.335938 Z " fill="rgb(0, 0, 0)" fill-opacity="1.000000" />
<path d="M 258.892578 7.335938 L 258.892578 6.412109 L 265.729980 6.412109 L 265.729980 7.335938 Z " fill="rgb(0, 0, 0)" fill-opacity="1.000000" />
<path d="M 268.878906 13.319336 L 268.878906 7.335938 L 265.892578 7.335938 L 265.892578 6.412109 L 269.738281 6.412109 L 269.738281 13.319336 Z " fill="rgb(0, 0, 0)" fill-opacity="1.000000" />
</svg>