<svg xmlns="http://www.w3.org/2000/svg" version="1.1" width="365" height="209">
<path d="M 2.878906 13.319336 L 2.878906 6.412109 L 6.729980 6.412109 L 6.729980 7.335938 L 3.738281 7.335938 L 3.738281 13.319336 Z " fill="rgb(0, 0, 0)" fill-opacity="1.000000" />
<path d="M 2.878906 26.319336 L 2.878906 12.300781 L 3.738281 12.300781 L 3.738281 26.319336 Z " fill="rgb(0, 0, 0)" fill-opacity="1.000000" />
<path d="M 2.878906 39.319336 L 2.878906 25.300781 L 3.738281 25.300781 L 3.738281 39.319336 Z " fill="rgb(0, 0, 0)" fill-opacity="1.000000" />
<path d="M 2.878906 52.319336 L 2.878906 38.300781 L 3.738281 38.300781 L 3.738281 52.319336 Z " fill="rgb(0, 0, 0)" fill-opacity="1.000000" />
<path d="M 2.878906 65.319336 L 2.878906 51.300781 L 3.738281 51.300781 L 3.738281 65.319336 Z " fill="rgb(0, 0, 0)" fill-opacity="1.000000" />
<path d="M 2.878906 78.319336 L 2.878906 64.300781 L 3.738281 64.300781 L 3.738281 78.319336 Z " fill="rgb(0, 0, 0)" fill-opacity="1.000000" />
<path d="M 2.878906 91.319336 L 2.878906 77.300781 L 3.738281 77.300781 L 3.738281 91.319336 Z " fill="rgb(0, 0, 0)" fill-opacity="1.000000" />
<path d="M 2.878906 104.319336 L 2.878906 90.300781 L 3.738281 90.300781 L 3.738281 104.319336 Z " fill="rgb(0, 0, 0)" fill-opacity="1.000000" />
<path d="M 2.878906 117.319336 L 2.878906 103.300781 L 3.738281 103.300781 L 3.738281 117.319336 Z " fill="rgb(0, 0, 0)" fill-opacity="1.000000" />
<path d="M 2.878906 130.319336 L 2.878906 116.300781 L 3.738281 116.300781 L 3.738281 130.319336 Z " fill="rgb(0, 0, 0)" fill-opacity="1.000000" />
<path d="M 2.878906 143.319336 L 2.878906 129.300781 L 3.738281 129.300781 L 3.738281 143.319336 Z " fill="rgb(0, 0, 0)" fill-opacity="1.000000" />
<path d="M 2.878906 156.319336 L 2.878906 142.300781 L 3.738281 142.300781 L 3.738281 156.319336 Z " fill="rgb(0, 0, 0)" fill-opacity="1.000000" />
<path d="M 2.878906 169.319336 L 2.878906 155.300781 L 3.738281 155.300781 L 3.738281 169.319336 Z " fill="rgb(0, 0, 0)" fill-opacity="1.000000" />
<path d="M 2.878906 182.319336 L 2.878906 168.300781 L 3.738281 168.300781 L 3.738281 182.319336 Z " fill="rgb(0, 0, 0)" fill-opacity="1.000000" />
<path d="M 2.878906 195.319336 L 2.878906 181.300781 L 3.738281 181.300781 L 3.738281 195.319336 Z " fill="rgb(0, 0, 0)" fill-opacity="1.000000" />
<path d="M 2.878906 202.335938 L 2.878906 194.300781 L 3.738281 194.300781 L 3.738281 201.412109 L 6.729980 201.412109 L 6.729980 202.335938 Z " fill="rgb(0, 0, 0)" fill-opacity="1.000000" />
<path d="M 6.892578 202.335938 L 6.892578 201.412109 L 13.729980 201.412109 L 13.729980 202.335938 Z " fill="rgb(0, 0, 0)" fill-opacity="1.000000" />
<path d="M 13.892578 202.335938 L 13.892578 201.412109 L 20.729980 201.412109 L 20.729980 202.335938 Z " fill="rgb(0, 0, 0)" fill-opacity="1.000000" />
<path d="M 20.892578 202.335938 L 20.892578 201.412109 L 27.729980 201.412109 L 27.729980 202.335938 Z " fill="rgb(0, 0, 0)" fill-opacity="1.000000" />
<path d="M 27.892578 202.335938 L 27.892578 201.412109 L 34.729980 201.412109 L 34.729980 202.335938 Z " fill="rgb(0, 0, 0)" fill-opacity="1.000000" />
<path d="M 34.892578 202.335938 L 34.892578 201.412109 L 41.729980 201.412109 L 41.729980 202.335938 Z " fill="rgb(0, 0, 0)" fill-opacity="1.000000" />
<path d="M 41.892578 202.335938 L 41.892578 201.412109 L 48.729980 201.412109 L 48.729980 202.335938 Z " fill="rgb(0, 0, 0)" fill-opacity="1.000000" />
<path d="M 48.892578 202.335938 L 48.892578 201.412109 L 55.729980 201.412109 L 55.729980 202.335938 Z " fill="rgb(0, 0, 0)" fill-opacity="1.000000" />
<path d="M 55.892578 202.335938 L 55.892578 201.412109 L 62.729980 201.412109 L 62.729980 202.335938 Z " fill="rgb(0, 0, 0)" fill-opacity="1.000000" />
<path d="M 62.892578 202.335938 L 62.892578 201.412109 L 69.729980 201.412109 L 69.729980 202.335938 Z " fill="rgb(0, 0, 0)" fill-opacity="1.000000" />
<path d="M 69.892578 202.335938 L 69.892578 201.412109 L 76.729980 201.412109 L 76.729980 202.335938 Z " fill="rgb(0, 0, 0)" fill-opacity="1.000000" />
<path d="M 76.892578 202.335938 L 76.892578 201.412109 L 83.729980 201.412109 L 83.729980 202.335938 Z " fill="rgb(0, 0, 0)" fill-opacity="1.000000" />
<path d="M 83.892578 202.335938 L 83.892578 201.412109 L 90.729980 201.412109 L 90.729980 202.335938 Z " fill="rgb(0, 0, 0)" fill-opacity="1.000000" />
<path d="M 90.892578 202.335938 L 90.892578 201.412109 L 97.729980 201.412109 L 97.729980 202.335938 Z " fill="rgb(0, 0, 0)" fill-opacity="1.000000" />
<path d="M 97.892578 202.335938 L 97.892578 201.412109 L 104.729980 201.412109 L 104.729980 202.335938 Z " fill="rgb(0, 0, 0)" fill-opacity="1.000000" />
<path d="M 104.892578 202.335938 L 104.892578 201.412109 L 111.729980 201.412109 L 111.729980 202.335938 Z " fill="rgb(0, 0, 0)" fill-opacity="1.000000" />
<path d="M 111.892578 202.335938 L 111.892578 201.412109 L 118.729980 201.412109 L 118.729980 202.335938 Z " fill="rgb(0, 0, 0)" fill-opacity="1.000000" />
<path d="M 118.892578 202.335938 L 118.892578 201.412109 L 125.729980 201.412109 L 125.729980 202.335938 Z " fill="rgb(0, 0, 0)" fill-opacity="1.000000" />
<path d="M 125.892578 202.335938 L 125.892578 201.412109 L 132.729980 201.412109 L 132.729980 202.335938 Z " fill="rgb(0, 0, 0)" fill-opacity="1.000000" />
<path d="M 132.892578 202.335938 L 132.892578 201.412109 L 135.878906 201.412109 L 135.878906 194.300781 L 136.738281 194.300781 L 136.738281 202.335938 Z " fill="rgb(0, 0, 0)" fill-opacity="1.000000" />
<path d="M 226.878906 202.335938 L 226.878906 194.300781 L 227.738281 194.300781 L 227.738281 201.412109 L 230.729980 201.412109 L 230.729980 202.335938 Z " fill="rgb(0, 0, 0)" fill-opacity="1.000000" />
<path d="M 230.892578 202.335938 L 230.892578 201.412109 L 237.729980 201.412109 L 237.729980 202.335938 Z " fill="rgb(0, 0, 0)" fill-opacity="1.000000" />
<path d="M 237.892578 202.335938 L 237.892578 201.412109 L 244.729980 201.412109 L 244.729980 202.335938 Z " fill="rgb(0, 0, 0)" fill-opacity="1.000000" />
<path d="M 244.892578 202.335938 L 244.892578 201.412109 L 251.729980 201.412109 L 251.729980 202.335938 Z " fill="rgb(0, 0, 0)" fill-opacity="1.000000" />
<path d="M 251.892578 202.335938 L 251.892578 201.412109 L 258.729980 201.412109 L 258.729980 202.335938 Z " fill="rgb(0, 0, 0)" fill-opacity="1.000000" />
<path d="M 258.892578 202.335938 L 258.892578 201.412109 L 265.729980 201.412109 L 265.729980 202.335938 Z " fill="rgb(0, 0, 0)" fill-opacity="1.000000" />
<path d="M 265.892578 202.335938 L 265.892578 201.412109 L 272.729980 201.412109 L 272.729980 202.335938 Z " fill="rgb(0, 0, 0)" fill-opacity="1.000000" />
<path d="M 272.892578 202.335938 L 272.892578 201.412109 L 279.729980 201.412109 L 279.729980 202.335938 Z " fill="rgb(0, 0, 0)" fill-opacity="1.000000" />
<path d="M 279.892578 202.335938 L 279.892578 201.412109 L 286.729980 201.412109 L 286.729980 202.335938 Z " fill="rgb(0, 0, 0)" fill-opacity="1.000000" />
<path d="M 286.892578 202.335938 L 286.892578 201.412109 L 293.729980 201.412109 L 293.729980 202.335938 Z " fill="rgb(0, 0, 0)" fill-opacity="1.000000" />
<path d="M 293.892578 202.335938 L 293.892578 201.412109 L 300.729980 201.412109 L 300.729980 202.335938 Z " fill="rgb(0, 0, 0)" fill-opacity="1.000000" />
<path d="M 300.892578 202.335938 L 300.892578 201.412109 L 307.729980 201.412109 L 307.729980 202.335938 Z " fill="rgb(0, 0, 0)" fill-opacity="1.000000" />
<path d="M 307.892578 202.335938 L 307.892578 201.412109 L 314.729980 201.412109 L 314.729980 202.335938 Z " fill="rgb(0, 0, 0)" fill-opacity="1.000000" />
<path d="M 314.892578 202.335938 L 314.892578 201.412109 L 321.729980 201.412109 L 321.729980 202.335938 Z " fill="rgb(0, 0, 0)" fill-opacity="1.000000" />
<path d="M 321.892578 202.335938 L 321.892578 201.412109 L 328.729980 201.412109 L 328.729980 202.335938 Z " fill="rgb(0, 0, 0)" fill-opacity="1.000000" />
<path d="M 328.892578 202.335938 L 328.892578 201.412109 L 335.729980 201.412109 L 335.729980 202.335938 Z " fill="rgb(0, 0, 0)" fill-opacity="1.000000" />
<path d="M 335.892578 202.335938 L 335.892578 201.412109 L 342.729980 201.412109 L 342.729980 202.335938 Z " fill="rgb(0, 0, 0)" fill-opacity="1.000000" />
<path d="M 342.892578 202.335938 L 342.892578 201.412109 L 349.729980 201.412109 L 349.729980 202.335938 Z " fill="rgb(0, 0, 0)" fill-opacity="1.000000" />
<path d="M 349.892578 202.335938 L 349.892578 201.412109 L 356.729980 201.412109 L 356.729980 202.335938 Z " fill="rgb(0, 0, 0)" fill-opacity="1.000000" />
<path d="M 356.892578 202.335938 L 356.892578 201.412109 L 359.878906 201.412109 L 359.878906 194.300781 L 360.738281 194.300781 L 360.738281 202.335938 Z " fill="rgb(0, 0, 0)" fill-opacity="1.000000" />
<path d="M 16.878906 26.319336 L 16.878906 19.412109 L 20.729980 19.412109 L 20.729980 20.335938 L 17.738281 20.335938 L 17.738281 26.319336 Z " fill="rgb(0, 0, 0)" fill-opacity="1.000000" />
<path d="M 16.878906 39.319336 L 16.878906 25.300781 L 17.738281 25.300781 L 17.738281 39.319336 Z " fill="rgb(0, 0, 0)" fill-opacity="1.000000" />
<path d="M 16.878906 46.335938 L 16.878906 38.300781 L 17.738281 38.300781 L 17.738281 45.412109 L 20.729980 45.412109 L 20.729980 46.335938 Z " fill="rgb(0, 0, 0)" fill-opacity="1.000000" />
<path d="M 16.878906 91.319336 L 16.878906 84.412109 L 20.729980 84.412109 L 20.729980 85.335938 L 17.738281 85.335938 L 17.738281 91.319336 Z " fill="rgb(0, 0, 0)" fill-opacity="1.000000" />
<path d="M 16.878906 104.319336 L 16.878906 90.300781 L 17.738281 90.300781 L 17.738281 104.319336 Z " fill="rgb(0, 0, 0)" fill-opacity="1.000000" />
<path d="M 16.878906 111.335938 L 16.878906 103.300781 L 17.738281 103.300781 L 17.738281 110.412109 L 20.729980 110.412109 L 20.729980 111.335938 Z " fill="rgb(0, 0, 0)" fill-opacity="1.000000" />
<path d="M 16.878906 143.319336 L 16.878906 136.412109 L 20.729980 136.412109 L 20.729980 137.335938 L 17.738281 137.335938 L 17.738281 143.319336 Z " fill="rgb(0, 0, 0)" fill-opacity="1.000000" />
<path d="M 16.878906 156.319336 L 16.878906 142.300781 L 17.738281 142.300781 L 17.738281 156.319336 Z " fill="rgb(0, 0, 0)" fill-opacity="1.000000" />
<path d="M 16.878906 169.319336 L 16.878906 155.300781 L 17.738281 155.300781 L 17.738281 169.319336 Z " fill="rgb(0, 0, 0)" fill-opacity="1.000000" />
<path d="M 16.878906 182.319336 L 16.878906 168.300781 L 17.738281 168.300781 L 17.738281 182.319336 Z " fill="rgb(0, 0, 0)" fill-opacity="1.000000" />
<path d="M 16.878906 189.335938 L 16.878906 181.300781 L 17.738281 181.300781 L 17.738281 188.412109 L 20.729980 188.412109 L 20.729980 189.335938 Z " fill="rgb(0, 0, 0)" fill-opacity="1.000000" />
<path d="M 20.892578 189.335938 L 20.892578 188.412109 L 27.729980 188.412109 L 27.729980 189.335938 Z " fill="rgb(0, 0, 0)" fill-opacity="1.000000" />
<path d="M 27.892578 189.335938 L 27.892578 188.412109 L 34.729980 188.412109 L 34.729980 189.335938 Z " fill="rgb(0, 0, 0)" fill-opacity="1.000000" />
<path d="M 34.892578 189.335938 L 34.892578 188.412109 L 41.729980 188.412109 L 41.729980 189.335938 Z " fill="rgb(0, 0, 0)" fill-opacity="1.000000" />
<path d="M 41.892578 189.335938 L 41.892578 188.412109 L 48.729980 188.412109 L 48.729980 189.335938 Z " fill="rgb(0, 0, 0)" fill-opacity="1.000000" />
<path d="M 48.892578 189.335938 L 48.892578 188.412109 L 55.729980 188.412109 L 55.729980 189.335938 Z " fill="rgb(0, 0, 0)" fill-opacity="1.000000" />
<path d="M 55.892578 189.335938 L 55.892578 188.412109 L 62.729980 188.412109 L 62.729980 189.335938 Z " fill="rgb(0, 0, 0)" fill-opacity="1.000000" />
<path d="M 62.892578 189.335938 L 62.892578 188.412109 L 69.729980 188.412109 L 69.729980 189.335938 Z " fill="rgb(0, 0, 0)" fill-opacity="1.000000" />
<path d="M 69.892578 189.335938 L 69.892578 188.412109 L 76.729980 188.412109 L 76.729980 189.335938 Z " fill="rgb(0, 0, 0)" fill-opacity="1.000000" />
<path d="M 76.892578 189.335938 L 76.892578 188.412109 L 83.729980 188.412109 L 83.729980 189.335938 Z " fill="rgb(0, 0, 0)" fill-opacity="1.000000" />
<path d="M 83.892578 189.335938 L 83.892578 188.412109 L 90.729980 188.412109 L 90.729980 189.335938 Z " fill="rgb(0, 0, 0)" fill-opacity="1.000000" />
<path d="M 90.892578 189.335938 L 90.892578 188.412109 L 97.729980 188.412109 L 97.729980 189.335938 Z " fill="rgb(0, 0, 0)" fill-opacity="1.000000" />
<path d="M 97.892578 189.335938 L 97.892578 188.412109 L 104.729980 188.412109 L 104.729980 189.335938 Z " fill="rgb(0, 0, 0)" fill-opacity="1.000000" />
<path d="M 104.892578 189.335938 L 104.892578 188.412109 L 111.729980 188.412109 L 111.729980 189.335938 Z " fill="rgb(0, 0, 0)" fill-opacity="1.000000" />
<path d="M 111.892578 189.335938 L 111.892578 188.412109 L 118.729980 188.412109 L 118.729980 189.335938 Z " fill="rgb(0, 0, 0)" fill-opacity="1.000000" />
<path d="M 118.892578 189.335938 L 118.892578 188.412109 L 125.729980 188.412109 L 125.729980 189.335938 Z " fill="rgb(0, 0, 0)" fill-opacity="1.000000" />
<path d="M 125.892578 189.335938 L 125.892578 188.412109 L 132.729980 188.412109 L 132.729980 189.335938 Z " fill="rgb(0, 0, 0)" fill-opacity="1.000000" />
<path d="M 135.878906 195.319336 L 135.878906 189.335938 L 132.892578 189.335938 L 132.892578 188.412109 L 139.729980 188.412109 L 139.729980 189.335938 L 136.738281 189.335938 L 136.738281 195.319336 Z " fill="rgb(0, 0, 0)" fill-opacity="1.000000" />
<path d="M 139.892578 189.335938 L 139.892578 188.412109 L 146.729980 188.412109 L 146.729980 189.335938 Z " fill="rgb(0, 0, 0)" fill-opacity="1.000000" />
<path d="M 146.892578 189.335938 L 146.892578 188.412109 L 153.729980 188.412109 L 153.729980 189.335938 Z " fill="rgb(0, 0, 0)" fill-opacity="1.000000" />
<path d="M 153.892578 189.335938 L 153.892578 188.412109 L 160.729980 188.412109 L 160.729980 189.335938 Z " fill="rgb(0, 0, 0)" fill-opacity="1.000000" />
<path d="M 160.892578 189.335938 L 160.892578 188.412109 L 167.729980 188.412109 L 167.729980 189.335938 Z " fill="rgb(0, 0, 0)" fill-opacity="1.000000" />
<path d="M 167.892578 189.335938 L 167.892578 188.412109 L 174.729980 188.412109 L 174.729980 189.335938 Z " fill="rgb(0, 0, 0)" fill-opacity="1.000000" />
<path d="M 174.892578 189.335938 L 174.892578 188.412109 L 181.729980 188.412109 L 181.729980 189.335938 Z " fill="rgb(0, 0, 0)" fill-opacity="1.000000" />
<path d="M 181.892578 189.335938 L 181.892578 188.412109 L 188.729980 188.412109 L 188.729980 189.335938 Z " fill="rgb(0, 0, 0)" fill-opacity="1.000000" />
<path d="M 188.892578 189.335938 L 188.892578 188.412109 L 195.729980 188.412109 L 195.729980 189.335938 Z " fill="rgb(0, 0, 0)" fill-opacity="1.000000" />
<path d="M 195.892578 189.335938 L 195.892578 188.412109 L 202.729980 188.412109 L 202.729980 189.335938 Z " fill="rgb(0, 0, 0)" fill-opacity="1.000000" />
<path d="M 202.892578 189.335938 L 202.892578 188.412109 L 209.729980 188.412109 L 209.729980 189.335938 Z " fill="rgb(0, 0, 0)" fill-opacity="1.000000" />
<path d="M 209.892578 189.335938 L 209.892578 188.412109 L 216.729980 188.412109 L 216.729980 189.335938 Z " fill="rgb(0, 0, 0)" fill-opacity="1.000000" />
<path d="M 216.892578 189.335938 L 216.892578 188.412109 L 223.729980 188.412109 L 223.729980 189.335938 Z " fill="rgb(0, 0, 0)" fill-opacity="1.000000" />
<path d="M 226.878906 195.319336 L 226.878906 189.335938 L 223.892578 189.335938 L 223.892578 188.412109 L 230.729980 188.412109 L 230.729980 189.335938 L 227.738281 189.335938 L 227.738281 195.319336 Z " fill="rgb(0, 0, 0)" fill-opacity="1.000000" />
<path d="M 230.892578 189.335938 L 230.892578 188.412109 L 237.729980 188.412109 L 237.729980 189.335938 Z " fill="rgb(0, 0, 0)" fill-opacity="1.000000" />
<path d="M 237.892578 189.335938 L 237.892578 188.412109 L 244.729980 188.412109 L 244.729980 189.335938 Z " fill="rgb(0, 0, 0)" fill-opacity="1.000000" />
<path d="M 244.892578 189.335938 L 244.892578 188.412109 L 251.729980 188.412109 L 251.729980 189.335938 Z " fill="rgb(0, 0, 0)" fill-opacity="1.000000" />
<path d="M 251.892578 189.335938 L 251.892578 188.412109 L 258.729980 188.412109 L 258.729980 189.335938 Z " fill="rgb(0, 0, 0)" fill-opacity="1.000000" />
<path d="M 258.892578 189.335938 L 258.892578 188.412109 L 265.729980 188.412109 L 265.729980 189.335938 Z " fill="rgb(0, 0, 0)" fill-opacity="1.000000" />
<path d="M 265.892578 189.335938 L 265.892578 188.412109 L 272.729980 188.412109 L 272.729980 189.335938 Z " fill="rgb(0, 0, 0)" fill-opacity="1.000000" />
<path d="M 272.892578 189.335938 L 272.892578 188.412109 L 279.729980 188.412109 L 279.729980 189.335938 Z " fill="rgb(0, 0, 0)" fill-opacity="1.000000" />
<path d="M 279.892578 189.335938 L 279.892578 188.412109 L 286.729980 188.412109 L 286.729980 189.335938 Z " fill="rgb(0, 0, 0)" fill-opacity="1.000000" />
<path d="M 286.892578 189.335938 L 286.892578 188.412109 L 293.729980 188.412109 L 293.729980 189.335938 Z " fill="rgb(0, 0, 0)" fill-opacity="1.000000" />
<path d="M 293.892578 189.335938 L 293.892578 188.412109 L 300.729980 188.412109 L 300.729980 189.335938 Z " fill="rgb(0, 0, 0)" fill-opacity="1.000000" />
<path d="M 300.892578 189.335938 L 300.892578 188.412109 L 307.729980 188.412109 L 307.729980 189.335938 Z " fill="rgb(0, 0, 0)" fill-opacity="1.000000" />
<path d="M 307.892578 189.335938 L 307.892578 188.412109 L 314.729980 188.412109 L 314.729980 189.335938 Z " fill="rgb(0, 0, 0)" fill-opacity="1.000000" />
<path d="M 314.892578 189.335938 L 314.892578 188.412109 L 321.729980 188.412109 L 321.729980 189.335938 Z " fill="rgb(0, 0, 0)" fill-opacity="1.000000" />
<path d="M 321.892578 189.335938 L 321.892578 188.412109 L 328.729980 188.412109 L 328.729980 189.335938 Z " fill="rgb(0, 0, 0)" fill-opacity="1.000000" />
<path d="M 328.892578 189.335938 L 328.892578 188.412109 L 335.729980 188.412109 L 335.729980 189.335938 Z " fill="rgb(0, 0, 0)" fill-opacity="1.000000" />
<path d="M 335.892578 189.335938 L 335.892578 188.412109 L 342.729980 188.412109 L 342.729980 189.335938 Z " fill="rgb(0, 0, 0)" fill-opacity="1.000000" />
<path d="M 342.892578 189.335938 L 342.892578 188.412109 L 345.878906 188.412109 L 345.878906 181.300781 L 346.738281 181.300781 L 346.738281 189.335938 Z " fill="rgb(0, 0, 0)" fill-opacity="1.000000" />
<path d="M 359.878906 195.319336 L 359.878906 181.300781 L 360.738281 181.300781 L 360.738281 195.319336 Z " fill="rgb(0, 0, 0)" fill-opacity="1.000000" />
<path d="M 30.878906 156.319336 L 30.878906 149.412109 L 34.729980 149.412109 L 34.729980 150.335938 L 31.738281 150.335938 L 31.738281 156.319336 Z " fill="rgb(0, 0, 0)" fill-opacity="1.000000" />
<path d="M 30.878906 169.319336 L 30.878906 155.300781 L 31.738281 155.300781 L 31.738281 169.319336 Z " fill="rgb(0, 0, 0)" fill-opacity="1.000000" />
<path d="M 30.878906 176.335938 L 30.878906 168.300781 L 31.738281 168.300781 L 31.738281 175.412109 L 34.729980 175.412109 L 34.729980 176.335938 Z " fill="rgb(0, 0, 0)" fill-opacity="1.000000" />
<path d="M 34.892578 176.335938 L 34.892578 175.412109 L 41.729980 175.412109 L 41.729980 176.335938 Z " fill="rgb(0, 0, 0)" fill-opacity="1.000000" />
<path d="M 41.892578 176.335938 L 41.892578 175.412109 L 48.729980 175.412109 L 48.729980 176.335938 Z " fill="rgb(0, 0, 0)" fill-opacity="1.000000" />
<path d="M 48.892578 176.335938 L 48.892578 175.412109 L 55.729980 175.412109 L 55.729980 176.335938 Z " fill="rgb(0, 0, 0)" fill-opacity="1.000000" />
<path d="M 55.892578 176.335938 L 55.892578 175.412109 L 58.878906 175.412109 L 58.878906 168.300781 L 59.738281 168.300781 L 59.738281 176.335938 Z " fill="rgb(0, 0, 0)" fill-opacity="1.000000" />
<path d="M 86.878906 176.335938 L 86.878906 168.300781 L 87.738281 168.300781 L 87.738281 175.412109 L 90.729980 175.412109 L 90.729980 176.335938 Z " fill="rgb(0, 0, 0)" fill-opacity="1.000000" />
<path d="M 90.892578 176.335938 L 90.892578 175.412109 L 97.729980 175.412109 L 97.729980 176.335938 Z " fill="rgb(0, 0, 0)" fill-opacity="1.000000" />
<path d="M 97.892578 176.335938 L 97.892578 175.412109 L 104.729980 175.412109 L 104.729980 176.335938 Z " fill="rgb(0, 0, 0)" fill-opacity="1.000000" />
<path d="M 104.892578 176.335938 L 104.892578 175.412109 L 111.729980 175.412109 L 111.729980 176.335938 Z " fill="rgb(0, 0, 0)" fill-opacity="1.000000" />
<path d="M 111.892578 176.335938 L 111.892578 175.412109 L 114.878906 175.412109 L 114.878906 168.300781 L 115.738281 168.300781 L 115.738281 176.335938 Z " fill="rgb(0, 0, 0)" fill-opacity="1.000000" />
<path d="M 282.878906 176.335938 L 282.878906 168.300781 L 283.738281 168.300781 L 283.738281 175.412109 L 286.729980 175.412109 L 286.729980 176.335938 Z " fill="rgb(0, 0, 0)" fill-opacity="1.000000" />
<path d="M 286.892578 176.335938 L 286.892578 175.412109 L 293.729980 175.412109 L 293.729980 176.335938 Z " fill="rgb(0, 0, 0)" fill-opacity="1.000000" />
<path d="M 293.892578 176.335938 L 293.892578 175.412109 L 300.729980 175.412109 L 300.729980 176.335938 Z " fill="rgb(0, 0, 0)" fill-opacity="1.000000" />
<path d="M 300.892578 176.335938 L 300.892578 175.412109 L 307.729980 175.412109 L 307.729980 176.335938 Z " fill="rgb(0, 0, 0)" fill-opacity="1.000000" />
<path d="M 307.892578 176.335938 L 307.892578 175.412109 L 310.878906 175.412109 L 310.878906 168.300781 L 311.738281 168.300781 L 311.738281 176.335938 Z " fill="rgb(0, 0, 0)" fill-opacity="1.000000" />
<path d="M 345.878906 182.319336 L 345.878906 168.300781 L 346.738281 168.300781 L 346.738281 182.319336 Z " fill="rgb(0, 0, 0)" fill-opacity="1.000000" />
<path d="M 359.878906 182.319336 L 359.878906 168.300781 L 360.738281 168.300781 L 360.738281 182.319336 Z " fill="rgb(0, 0, 0)" fill-opacity="1.000000" />
<path d="M 45.308594 158.937012 L 44.164551 163.040527 L 46.452637 163.040527 Z M 44.653320 157.980957 L 45.969238 157.980957 L 48.423828 166.000000 L 47.301270 166.000000 L 46.710449 163.910645 L 43.901367 163.910645 L 43.321289 166.000000 L 42.198730 166.000000 Z " fill="rgb(0, 0, 0)" fill-opacity="1.000000" />
<path d="M 58.878906 169.319336 L 58.878906 155.300781 L 59.738281 155.300781 L 59.738281 169.319336 Z " fill="rgb(0, 0, 0)" fill-opacity="1.000000" />
<path d="M 86.878906 169.319336 L 86.878906 155.300781 L 87.738281 155.300781 L 87.738281 169.319336 Z " fill="rgb(0, 0, 0)" fill-opacity="1.000000" />
<path d="M 99.981934 161.955566 L 99.981934 165.108398 L 101.265625 165.108398 Q 102.210938 165.108398 102.613770 164.778076 Q 103.016602 164.447754 103.016602 163.690430 Q 103.016602 162.691406 102.592285 162.323486 Q 102.167969 161.955566 101.265625 161.955566 Z M 99.981934 158.872559 L 99.981934 161.074707 L 101.244141 161.074707 Q 102.028320 161.074707 102.380127 160.773926 Q 102.731934 160.473145 102.731934 160.016602 Q 102.731934 159.409668 102.385498 159.141113 Q 102.039062 158.872559 101.244141 158.872559 Z M 98.891602 157.980957 L 101.265625 157.980957 Q 102.495605 157.980957 103.161621 158.512695 Q 103.827637 159.044434 103.827637 160.016602 Q 103.827637 160.537598 103.475830 160.961914 Q 103.124023 161.386230 102.420410 161.493652 Q 103.209961 161.611816 103.658447 162.167725 Q 104.106934 162.723633 104.106934 163.797852 Q 104.106934 164.888184 103.392578 165.444092 Q 102.678223 166.000000 101.265625 166.000000 L 98.891602 166.000000 Z " fill="rgb(0, 0, 0)" fill-opacity="1.000000" />
<path d="M 114.878906 169.319336 L 114.878906 155.300781 L 115.738281 155.300781 L 115.738281 169.319336 Z " fill="rgb(0, 0, 0)" fill-opacity="1.000000" />
<path d="M 282.878906 169.319336 L 282.878906 155.300781 L 283.738281 155.300781 L 283.738281 169.319336 Z " fill="rgb(0, 0, 0)" fill-opacity="1.000000" />
<path d="M 299.763184 165.715332 Q 299.349609 165.935547 298.914551 166.045654 Q 298.479492 166.155762 297.990723 166.155762 Q 296.449219 166.155762 295.597900 165.065430 Q 294.746582 163.975098 294.746582 161.998535 Q 294.746582 160.032715 295.603271 158.934326 Q 296.459961 157.835938 297.990723 157.835938 Q 298.479492 157.835938 298.914551 157.946045 Q 299.349609 158.056152 299.763184 158.276367 L 299.763184 159.388184 Q 299.365723 159.060547 298.909180 158.888672 Q 298.452637 158.716797 297.990723 158.716797 Q 296.932617 158.716797 296.406250 159.533203 Q 295.879883 160.349609 295.879883 161.998535 Q 295.879883 163.642090 296.406250 164.458496 Q 296.932617 165.274902 297.990723 165.274902 Q 298.463379 165.274902 298.917236 165.103027 Q 299.371094 164.931152 299.763184 164.603516 Z " fill="rgb(0, 0, 0)" fill-opacity="1.000000" />
<path d="M 310.878906 169.319336 L 310.878906 155.300781 L 311.738281 155.300781 L 311.738281 169.319336 Z " fill="rgb(0, 0, 0)" fill-opacity="1.000000" />
<path d="M 345.878906 169.319336 L 345.878906 155.300781 L 346.738281 155.300781 L 346.738281 169.319336 Z " fill="rgb(0, 0, 0)" fill-opacity="1.000000" />
<path d="M 359.878906 169.319336 L 359.878906 155.300781 L 360.738281 155.300781 L 360.738281 169.319336 Z " fill="rgb(0, 0, 0)" fill-opacity="1.000000" />
<path d="M 34.892578 150.335938 L 34.892578 149.412109 L 41.729980 149.412109 L 41.729980 150.335938 Z " fill="rgb(0, 0, 0)" fill-opacity="1.000000" />
<path d="M 41.892578 150.335938 L 41.892578 149.412109 L 48.729980 149.412109 L 48.729980 150.335938 Z " fill="rgb(0, 0, 0)" fill-opacity="1.000000" />
<path d="M 48.892578 150.335938 L 48.892578 149.412109 L 55.729980 149.412109 L 55.729980 150.335938 Z " fill="rgb(0, 0, 0)" fill-opacity="1.000000" />
<path d="M 58.878906 156.319336 L 58.878906 150.335938 L 55.892578 150.335938 L 55.892578 149.412109 L 59.738281 149.412109 L 59.738281 156.319336 Z " fill="rgb(0, 0, 0)" fill-opacity="1.000000" />
<path d="M 86.878906 156.319336 L 86.878906 149.412109 L 90.729980 149.412109 L 90.729980 150.335938 L 87.738281 150.335938 L 87.738281 156.319336 Z " fill="rgb(0, 0, 0)" fill-opacity="1.000000" />
<path d="M 90.892578 150.335938 L 90.892578 149.412109 L 97.729980 149.412109 L 97.729980 150.335938 Z " fill="rgb(0, 0, 0)" fill-opacity="1.000000" />
<path d="M 97.892578 150.335938 L 97.892578 149.412109 L 104.729980 149.412109 L 104.729980 150.335938 Z " fill="rgb(0, 0, 0)" fill-opacity="1.000000" />
<path d="M 104.892578 150.335938 L 104.892578 149.412109 L 111.729980 149.412109 L 111.729980 150.335938 Z " fill="rgb(0, 0, 0)" fill-opacity="1.000000" />
<path d="M 114.878906 156.319336 L 114.878906 150.335938 L 111.892578 150.335938 L 111.892578 149.412109 L 115.738281 149.412109 L 115.738281 156.319336 Z " fill="rgb(0, 0, 0)" fill-opacity="1.000000" />
<path d="M 282.878906 156.319336 L 282.878906 149.412109 L 286.729980 149.412109 L 286.729980 150.335938 L 283.738281 150.335938 L 283.738281 156.319336 Z " fill="rgb(0, 0, 0)" fill-opacity="1.000000" />
<path d="M 286.892578 150.335938 L 286.892578 149.412109 L 293.729980 149.412109 L 293.729980 150.335938 Z " fill="rgb(0, 0, 0)" fill-opacity="1.000000" />
<path d="M 293.892578 150.335938 L 293.892578 149.412109 L 300.729980 149.412109 L 300.729980 150.335938 Z " fill="rgb(0, 0, 0)" fill-opacity="1.000000" />
<path d="M 300.892578 150.335938 L 300.892578 149.412109 L 307.729980 149.412109 L 307.729980 150.335938 Z " fill="rgb(0, 0, 0)" fill-opacity="1.000000" />
<path d="M 310.878906 156.319336 L 310.878906 150.335938 L 307.892578 150.335938 L 307.892578 149.412109 L 311.738281 149.412109 L 311.738281 156.319336 Z " fill="rgb(0, 0, 0)" fill-opacity="1.000000" />
<path d="M 345.878906 156.319336 L 345.878906 142.300781 L 346.738281 142.300781 L 346.738281 156.319336 Z " fill="rgb(0, 0, 0)" fill-opacity="1.000000" />
<path d="M 359.878906 156.319336 L 359.878906 142.300781 L 360.738281 142.300781 L 360.738281 156.319336 Z " fill="rgb(0, 0, 0)" fill-opacity="1.000000" />
<path d="M 20.892578 137.335938 L 20.892578 136.412109 L 27.729980 136.412109 L 27.729980 137.335938 Z " fill="rgb(0, 0, 0)" fill-opacity="1.000000" />
<path d="M 27.892578 137.335938 L 27.892578 136.412109 L 34.729980 136.412109 L 34.729980 137.335938 Z " fill="rgb(0, 0, 0)" fill-opacity="1.000000" />
<path d="M 34.892578 137.335938 L 34.892578 136.412109 L 41.729980 136.412109 L 41.729980 137.335938 Z " fill="rgb(0, 0, 0)" fill-opacity="1.000000" />
<path d="M 45.308594 140.418945 L 42.032227 133.866211 L 48.590332 133.866211 Z " fill="rgb(0, 0, 0)" fill-opacity="1.000000" />
<path d="M 48.892578 137.335938 L 48.892578 136.412109 L 55.729980 136.412109 L 55.729980 137.335938 Z " fill="rgb(0, 0, 0)" fill-opacity="1.000000" />
<path d="M 55.892578 137.335938 L 55.892578 136.412109 L 62.729980 136.412109 L 62.729980 137.335938 Z " fill="rgb(0, 0, 0)" fill-opacity="1.000000" />
<path d="M 62.892578 137.335938 L 62.892578 136.412109 L 69.729980 136.412109 L 69.729980 137.335938 Z " fill="rgb(0, 0, 0)" fill-opacity="1.000000" />
<path d="M 69.892578 137.335938 L 69.892578 136.412109 L 76.729980 136.412109 L 76.729980 137.335938 Z " fill="rgb(0, 0, 0)" fill-opacity="1.000000" />
<path d="M 76.892578 137.335938 L 76.892578 136.412109 L 83.729980 136.412109 L 83.729980 137.335938 Z " fill="rgb(0, 0, 0)" fill-opacity="1.000000" />
<path d="M 83.892578 137.335938 L 83.892578 136.412109 L 90.729980 136.412109 L 90.729980 137.335938 Z " fill="rgb(0, 0, 0)" fill-opacity="1.000000" />
<path d="M 90.892578 137.335938 L 90.892578 136.412109 L 97.729980 136.412109 L 97.729980 137.335938 Z " fill="rgb(0, 0, 0)" fill-opacity="1.000000" />
<path d="M 101.308594 140.418945 L 98.032227 133.866211 L 104.590332 133.866211 Z " fill="rgb(0, 0, 0)" fill-opacity="1.000000" />
<path d="M 104.892578 137.335938 L 104.892578 136.412109 L 111.729980 136.412109 L 111.729980 137.335938 Z " fill="rgb(0, 0, 0)" fill-opacity="1.000000" />
<path d="M 111.892578 137.335938 L 111.892578 136.412109 L 118.729980 136.412109 L 118.729980 137.335938 Z " fill="rgb(0, 0, 0)" fill-opacity="1.000000" />
<path d="M 118.892578 137.335938 L 118.892578 136.412109 L 125.729980 136.412109 L 125.729980 137.335938 Z " fill="rgb(0, 0, 0)" fill-opacity="1.000000" />
<path d="M 125.892578 137.335938 L 125.892578 136.412109 L 132.729980 136.412109 L 132.729980 137.335938 Z " fill="rgb(0, 0, 0)" fill-opacity="1.000000" />
<path d="M 132.892578 137.335938 L 132.892578 136.412109 L 135.878906 136.412109 L 135.878906 129.300781 L 136.738281 129.300781 L 136.738281 136.412109 L 139.729980 136.412109 L 139.729980 137.335938 Z " fill="rgb(0, 0, 0)" fill-opacity="1.000000" />
<path d="M 139.892578 137.335938 L 139.892578 136.412109 L 146.729980 136.412109 L 146.729980 137.335938 Z " fill="rgb(0, 0, 0)" fill-opacity="1.000000" />
<path d="M 146.892578 137.335938 L 146.892578 136.412109 L 153.729980 136.412109 L 153.729980 137.335938 Z " fill="rgb(0, 0, 0)" fill-opacity="1.000000" />
<path d="M 153.892578 137.335938 L 153.892578 136.412109 L 160.729980 136.412109 L 160.729980 137.335938 Z " fill="rgb(0, 0, 0)" fill-opacity="1.000000" />
<path d="M 160.892578 137.335938 L 160.892578 136.412109 L 167.729980 136.412109 L 167.729980 137.335938 Z " fill="rgb(0, 0, 0)" fill-opacity="1.000000" />
<path d="M 167.892578 137.335938 L 167.892578 136.412109 L 174.729980 136.412109 L 174.729980 137.335938 Z " fill="rgb(0, 0, 0)" fill-opacity="1.000000" />
<path d="M 174.892578 137.335938 L 174.892578 136.412109 L 181.729980 136.412109 L 181.729980 137.335938 Z " fill="rgb(0, 0, 0)" fill-opacity="1.000000" />
<path d="M 181.892578 137.335938 L 181.892578 136.412109 L 188.729980 136.412109 L 188.729980 137.335938 Z " fill="rgb(0, 0, 0)" fill-opacity="1.000000" />
<path d="M 188.892578 137.335938 L 188.892578 136.412109 L 195.729980 136.412109 L 195.729980 137.335938 Z " fill="rgb(0, 0, 0)" fill-opacity="1.000000" />
<path d="M 195.892578 137.335938 L 195.892578 136.412109 L 202.729980 136.412109 L 202.729980 137.335938 Z " fill="rgb(0, 0, 0)" fill-opacity="1.000000" />
<path d="M 202.892578 137.335938 L 202.892578 136.412109 L 209.729980 136.412109 L 209.729980 137.335938 Z " fill="rgb(0, 0, 0)" fill-opacity="1.000000" />
<path d="M 209.892578 137.335938 L 209.892578 136.412109 L 216.729980 136.412109 L 216.729980 137.335938 Z " fill="rgb(0, 0, 0)" fill-opacity="1.000000" />
<path d="M 216.892578 137.335938 L 216.892578 136.412109 L 223.729980 136.412109 L 223.729980 137.335938 Z " fill="rgb(0, 0, 0)" fill-opacity="1.000000" />
<path d="M 223.892578 137.335938 L 223.892578 136.412109 L 226.878906 136.412109 L 226.878906 129.300781 L 227.738281 129.300781 L 227.738281 136.412109 L 230.729980 136.412109 L 230.729980 137.335938 Z " fill="rgb(0, 0, 0)" fill-opacity="1.000000" />
<path d="M 230.892578 137.335938 L 230.892578 136.412109 L 237.729980 136.412109 L 237.729980 137.335938 Z " fill="rgb(0, 0, 0)" fill-opacity="1.000000" />
<path d="M 237.892578 137.335938 L 237.892578 136.412109 L 244.729980 136.412109 L 244.729980 137.335938 Z " fill="rgb(0, 0, 0)" fill-opacity="1.000000" />
<path d="M 244.892578 137.335938 L 244.892578 136.412109 L 251.729980 136.412109 L 251.729980 137.335938 Z " fill="rgb(0, 0, 0)" fill-opacity="1.000000" />
<path d="M 251.892578 137.335938 L 251.892578 136.412109 L 258.729980 136.412109 L 258.729980 137.335938 Z " fill="rgb(0, 0, 0)" fill-opacity="1.000000" />
<path d="M 258.892578 137.335938 L 258.892578 136.412109 L 265.729980 136.412109 L 265.729980 137.335938 Z " fill="rgb(0, 0, 0)" fill-opacity="1.000000" />
<path d="M 265.892578 137.335938 L 265.892578 136.412109 L 272.729980 136.412109 L 272.729980 137.335938 Z " fill="rgb(0, 0, 0)" fill-opacity="1.000000" />
<path d="M 272.892578 137.335938 L 272.892578 136.412109 L 279.729980 136.412109 L 279.729980 137.335938 Z " fill="rgb(0, 0, 0)" fill-opacity="1.000000" />
<path d="M 279.892578 137.335938 L 279.892578 136.412109 L 286.729980 136.412109 L 286.729980 137.335938 Z " fill="rgb(0, 0, 0)" fill-opacity="1.000000" />
<path d="M 286.892578 137.335938 L 286.892578 136.412109 L 293.729980 136.412109 L 293.729980 137.335938 Z " fill="rgb(0, 0, 0)" fill-opacity="1.000000" />
<path d="M 297.308594 140.418945 L 294.032227 133.866211 L 300.590332 133.866211 Z " fill="rgb(0, 0, 0)" fill-opacity="1.000000" />
<path d="M 300.892578 137.335938 L 300.892578 136.412109 L 307.729980 136.412109 L 307.729980 137.335938 Z " fill="rgb(0, 0, 0)" fill-opacity="1.000000" />
<path d="M 307.892578 137.335938 L 307.892578 136.412109 L 314.729980 136.412109 L 314.729980 137.335938 Z " fill="rgb(0, 0, 0)" fill-opacity="1.000000" />
<path d="M 314.892578 137.335938 L 314.892578 136.412109 L 321.729980 136.412109 L 321.729980 137.335938 Z " fill="rgb(0, 0, 0)" fill-opacity="1.000000" />
<path d="M 321.892578 137.335938 L 321.892578 136.412109 L 328.729980 136.412109 L 328.729980 137.335938 Z " fill="rgb(0, 0, 0)" fill-opacity="1.000000" />
<path d="M 328.892578 137.335938 L 328.892578 136.412109 L 335.729980 136.412109 L 335.729980 137.335938 Z " fill="rgb(0, 0, 0)" fill-opacity="1.000000" />
<path d="M 335.892578 137.335938 L 335.892578 136.412109 L 342.729980 136.412109 L 342.729980 137.335938 Z " fill="rgb(0, 0, 0)" fill-opacity="1.000000" />
<path d="M 345.878906 143.319336 L 345.878906 137.335938 L 342.892578 137.335938 L 342.892578 136.412109 L 346.738281 136.412109 L 346.738281 143.319336 Z " fill="rgb(0, 0, 0)" fill-opacity="1.000000" />
<path d="M 359.878906 143.319336 L 359.878906 129.300781 L 360.738281 129.300781 L 360.738281 143.319336 Z " fill="rgb(0, 0, 0)" fill-opacity="1.000000" />
<path d="M 44.878906 130.319336 L 44.878906 116.300781 L 45.738281 116.300781 L 45.738281 130.319336 Z " fill="rgb(0, 0, 0)" fill-opacity="1.000000" />
<path d="M 100.878906 130.319336 L 100.878906 116.300781 L 101.738281 116.300781 L 101.738281 130.319336 Z " fill="rgb(0, 0, 0)" fill-opacity="1.000000" />
<path d="M 135.878906 130.319336 L 135.878906 116.300781 L 136.738281 116.300781 L 136.738281 130.319336 Z " fill="rgb(0, 0, 0)" fill-opacity="1.000000" />
<path d="M 226.878906 130.319336 L 226.878906 116.300781 L 227.738281 116.300781 L 227.738281 130.319336 Z " fill="rgb(0, 0, 0)" fill-opacity="1.000000" />
<path d="M 296.878906 130.319336 L 296.878906 116.300781 L 297.738281 116.300781 L 297.738281 130.319336 Z " fill="rgb(0, 0, 0)" fill-opacity="1.000000" />
<path d="M 359.878906 130.319336 L 359.878906 116.300781 L 360.738281 116.300781 L 360.738281 130.319336 Z " fill="rgb(0, 0, 0)" fill-opacity="1.000000" />
<path d="M 20.892578 111.335938 L 20.892578 110.412109 L 27.729980 110.412109 L 27.729980 111.335938 Z " fill="rgb(0, 0, 0)" fill-opacity="1.000000" />
<path d="M 27.892578 111.335938 L 27.892578 110.412109 L 34.729980 110.412109 L 34.729980 111.335938 Z " fill="rgb(0, 0, 0)" fill-opacity="1.000000" />
<path d="M 34.892578 111.335938 L 34.892578 110.412109 L 41.729980 110.412109 L 41.729980 111.335938 Z " fill="rgb(0, 0, 0)" fill-opacity="1.000000" />
<path d="M 41.892578 111.335938 L 41.892578 110.412109 L 48.729980 110.412109 L 48.729980 111.335938 Z " fill="rgb(0, 0, 0)" fill-opacity="1.000000" />
<path d="M 48.892578 111.335938 L 48.892578 110.412109 L 55.729980 110.412109 L 55.729980 111.335938 Z " fill="rgb(0, 0, 0)" fill-opacity="1.000000" />
<path d="M 55.892578 111.335938 L 55.892578 110.412109 L 62.729980 110.412109 L 62.729980 111.335938 Z " fill="rgb(0, 0, 0)" fill-opacity="1.000000" />
<path d="M 62.892578 111.335938 L 62.892578 110.412109 L 69.729980 110.412109 L 69.729980 111.335938 Z " fill="rgb(0, 0, 0)" fill-opacity="1.000000" />
<path d="M 69.892578 111.335938 L 69.892578 110.412109 L 76.729980 110.412109 L 76.729980 111.335938 Z " fill="rgb(0, 0, 0)" fill-opacity="1.000000" />
<path d="M 76.892578 111.335938 L 76.892578 110.412109 L 83.729980 110.412109 L 83.729980 111.335938 Z " fill="rgb(0, 0, 0)" fill-opacity="1.000000" />
<path d="M 83.892578 111.335938 L 83.892578 110.412109 L 90.729980 110.412109 L 90.729980 111.335938 Z " fill="rgb(0, 0, 0)" fill-opacity="1.000000" />
<path d="M 90.892578 111.335938 L 90.892578 110.412109 L 97.729980 110.412109 L 97.729980 111.335938 Z " fill="rgb(0, 0, 0)" fill-opacity="1.000000" />
<path d="M 97.892578 111.335938 L 97.892578 110.412109 L 104.729980 110.412109 L 104.729980 111.335938 Z " fill="rgb(0, 0, 0)" fill-opacity="1.000000" />
<path d="M 104.892578 111.335938 L 104.892578 110.412109 L 111.729980 110.412109 L 111.729980 111.335938 Z " fill="rgb(0, 0, 0)" fill-opacity="1.000000" />
<path d="M 111.892578 111.335938 L 111.892578 110.412109 L 118.729980 110.412109 L 118.729980 111.335938 Z " fill="rgb(0, 0, 0)" fill-opacity="1.000000" />
<path d="M 118.892578 111.335938 L 118.892578 110.412109 L 121.878906 110.412109 L 121.878906 103.300781 L 122.738281 103.300781 L 122.738281 111.335938 Z " fill="rgb(0, 0, 0)" fill-opacity="1.000000" />
<path d="M 135.878906 117.319336 L 135.878906 103.300781 L 136.738281 103.300781 L 136.738281 117.319336 Z " fill="rgb(0, 0, 0)" fill-opacity="1.000000" />
<path d="M 226.878906 117.319336 L 226.878906 103.300781 L 227.738281 103.300781 L 227.738281 117.319336 Z " fill="rgb(0, 0, 0)" fill-opacity="1.000000" />
<path d="M 240.878906 111.335938 L 240.878906 103.300781 L 241.738281 103.300781 L 241.738281 110.412109 L 244.729980 110.412109 L 244.729980 111.335938 Z " fill="rgb(0, 0, 0)" fill-opacity="1.000000" />
<path d="M 244.892578 111.335938 L 244.892578 110.412109 L 251.729980 110.412109 L 251.729980 111.335938 Z " fill="rgb(0, 0, 0)" fill-opacity="1.000000" />
<path d="M 251.892578 111.335938 L 251.892578 110.412109 L 258.729980 110.412109 L 258.729980 111.335938 Z " fill="rgb(0, 0, 0)" fill-opacity="1.000000" />
<path d="M 258.892578 111.335938 L 258.892578 110.412109 L 265.729980 110.412109 L 265.729980 111.335938 Z " fill="rgb(0, 0, 0)" fill-opacity="1.000000" />
<path d="M 265.892578 111.335938 L 265.892578 110.412109 L 272.729980 110.412109 L 272.729980 111.335938 Z " fill="rgb(0, 0, 0)" fill-opacity="1.000000" />
<path d="M 272.892578 111.335938 L 272.892578 110.412109 L 279.729980 110.412109 L 279.729980 111.335938 Z " fill="rgb(0, 0, 0)" fill-opacity="1.000000" />
<path d="M 279.892578 111.335938 L 279.892578 110.412109 L 286.729980 110.412109 L 286.729980 111.335938 Z " fill="rgb(0, 0, 0)" fill-opacity="1.000000" />
<path d="M 286.892578 111.335938 L 286.892578 110.412109 L 293.729980 110.412109 L 293.729980 111.335938 Z " fill="rgb(0, 0, 0)" fill-opacity="1.000000" />
<path d="M 293.892578 111.335938 L 293.892578 110.412109 L 300.729980 110.412109 L 300.729980 111.335938 Z " fill="rgb(0, 0, 0)" fill-opacity="1.000000" />
<path d="M 300.892578 111.335938 L 300.892578 110.412109 L 307.729980 110.412109 L 307.729980 111.335938 Z " fill="rgb(0, 0, 0)" fill-opacity="1.000000" />
<path d="M 307.892578 111.335938 L 307.892578 110.412109 L 314.729980 110.412109 L 314.729980 111.335938 Z " fill="rgb(0, 0, 0)" fill-opacity="1.000000" />
<path d="M 314.892578 111.335938 L 314.892578 110.412109 L 321.729980 110.412109 L 321.729980 111.335938 Z " fill="rgb(0, 0, 0)" fill-opacity="1.000000" />
<path d="M 321.892578 111.335938 L 321.892578 110.412109 L 328.729980 110.412109 L 328.729980 111.335938 Z " fill="rgb(0, 0, 0)" fill-opacity="1.000000" />
<path d="M 328.892578 111.335938 L 328.892578 110.412109 L 335.729980 110.412109 L 335.729980 111.335938 Z " fill="rgb(0, 0, 0)" fill-opacity="1.000000" />
<path d="M 335.892578 111.335938 L 335.892578 110.412109 L 342.729980 110.412109 L 342.729980 111.335938 Z " fill="rgb(0, 0, 0)" fill-opacity="1.000000" />
<path d="M 342.892578 111.335938 L 342.892578 110.412109 L 345.878906 110.412109 L 345.878906 103.300781 L 346.738281 103.300781 L 346.738281 111.335938 Z " fill="rgb(0, 0, 0)" fill-opacity="1.000000" />
<path d="M 359.878906 117.319336 L 359.878906 103.300781 L 360.738281 103.300781 L 360.738281 117.319336 Z " fill="rgb(0, 0, 0)" fill-opacity="1.000000" />
<path d="M 33.435547 93.254883 L 33.435547 94.355957 Q 32.941406 94.039062 32.444580 93.877930 Q 31.947754 93.716797 31.442871 93.716797 Q 30.674805 93.716797 30.229004 94.073975 Q 29.783203 94.431152 29.783203 95.038086 Q 29.783203 95.569824 30.075928 95.849121 Q 30.368652 96.128418 31.168945 96.316406 L 31.738281 96.445312 Q 32.866211 96.708496 33.381836 97.272461 Q 33.897461 97.836426 33.897461 98.808594 Q 33.897461 99.952637 33.188477 100.554199 Q 32.479492 101.155762 31.125977 101.155762 Q 30.562012 101.155762 29.992676 101.034912 Q 29.423340 100.914062 28.848633 100.672363 L 28.848633 99.517578 Q 29.466309 99.909668 30.016846 100.092285 Q 30.567383 100.274902 31.125977 100.274902 Q 31.947754 100.274902 32.404297 99.906982 Q 32.860840 99.539062 32.860840 98.878418 Q 32.860840 98.276855 32.546631 97.959961 Q 32.232422 97.643066 31.453613 97.471191 L 30.873535 97.336914 Q 29.756348 97.084473 29.251465 96.574219 Q 28.746582 96.063965 28.746582 95.204590 Q 28.746582 94.130371 29.468994 93.483154 Q 30.191406 92.835938 31.389160 92.835938 Q 31.851074 92.835938 32.361328 92.940674 Q 32.871582 93.045410 33.435547 93.254883 Z " fill="rgb(0, 0, 0)" fill-opacity="1.000000" />
<path d="M 40.645020 97.272461 L 40.645020 101.000000 L 39.651367 101.000000 L 39.651367 97.272461 Q 39.651367 96.461426 39.366699 96.080078 Q 39.082031 95.698730 38.475098 95.698730 Q 37.782227 95.698730 37.408936 96.190186 Q 37.035645 96.681641 37.035645 97.600098 L 37.035645 101.000000 L 36.047363 101.000000 L 36.047363 92.642578 L 37.035645 92.642578 L 37.035645 95.886719 Q 37.298828 95.371094 37.750000 95.105225 Q 38.201172 94.839355 38.818848 94.839355 Q 39.737305 94.839355 40.191162 95.443604 Q 40.645020 96.047852 40.645020 97.272461 Z " fill="rgb(0, 0, 0)" fill-opacity="1.000000" />
<path d="M 45.770508 97.976074 L 45.442871 97.976074 Q 44.578125 97.976074 44.140381 98.279541 Q 43.702637 98.583008 43.702637 99.184570 Q 43.702637 99.727051 44.030273 100.027832 Q 44.357910 100.328613 44.937988 100.328613 Q 45.754395 100.328613 46.221680 99.761963 Q 46.688965 99.195312 46.694336 98.196289 L 46.694336 97.976074 Z M 47.687988 97.567871 L 47.687988 101.000000 L 46.694336 101.000000 L 46.694336 100.108398 Q 46.377441 100.645508 45.896729 100.900635 Q 45.416016 101.155762 44.728516 101.155762 Q 43.810059 101.155762 43.262207 100.637451 Q 42.714355 100.119141 42.714355 99.249023 Q 42.714355 98.244629 43.388428 97.723633 Q 44.062500 97.202637 45.367676 97.202637 L 46.694336 97.202637 L 46.694336 97.046875 Q 46.688965 96.327148 46.329102 96.002197 Q 45.969238 95.677246 45.179688 95.677246 Q 44.674805 95.677246 44.159180 95.822266 Q 43.643555 95.967285 43.154785 96.246582 L 43.154785 95.258301 Q 43.702637 95.048828 44.204834 94.944092 Q 44.707031 94.839355 45.179688 94.839355 Q 45.926270 94.839355 46.455322 95.059570 Q 46.984375 95.279785 47.312012 95.720215 Q 47.516113 95.988770 47.602051 96.383545 Q 47.687988 96.778320 47.687988 97.567871 Z " fill="rgb(0, 0, 0)" fill-opacity="1.000000" />
<path d="M 55.203613 96.225098 Q 54.886719 95.978027 54.559082 95.865234 Q 54.231445 95.752441 53.839355 95.752441 Q 52.915527 95.752441 52.426758 96.332520 Q 51.937988 96.912598 51.937988 98.008301 L 51.937988 101.000000 L 50.944336 101.000000 L 50.944336 94.984375 L 51.937988 94.984375 L 51.937988 96.160645 Q 52.185059 95.521484 52.697998 95.180420 Q 53.210938 94.839355 53.914551 94.839355 Q 54.279785 94.839355 54.596680 94.930664 Q 54.913574 95.021973 55.203613 95.215332 Z " fill="rgb(0, 0, 0)" fill-opacity="1.000000" />
<path d="M 60.608398 95.752441 L 60.608398 92.642578 L 61.596680 92.642578 L 61.596680 101.000000 L 60.608398 101.000000 L 60.608398 100.242676 Q 60.361328 100.688477 59.950439 100.922119 Q 59.539551 101.155762 59.002441 101.155762 Q 57.912109 101.155762 57.286377 100.309814 Q 56.660645 99.463867 56.660645 97.976074 Q 56.660645 96.509766 57.289062 95.674561 Q 57.917480 94.839355 59.002441 94.839355 Q 59.544922 94.839355 59.958496 95.072998 Q 60.372070 95.306641 60.608398 95.752441 Z M 57.702637 97.997559 Q 57.702637 99.146973 58.067871 99.732422 Q 58.433105 100.317871 59.147461 100.317871 Q 59.861816 100.317871 60.235107 99.727051 Q 60.608398 99.136230 60.608398 97.997559 Q 60.608398 96.853516 60.235107 96.265381 Q 59.861816 95.677246 59.147461 95.677246 Q 58.433105 95.677246 58.067871 96.262695 Q 57.702637 96.848145 57.702637 97.997559 Z " fill="rgb(0, 0, 0)" fill-opacity="1.000000" />
<path d="M 67.082031 97.213379 Q 67.500977 97.320801 67.796387 97.618896 Q 68.091797 97.916992 68.532227 98.808594 L 69.622559 101.000000 L 68.457031 101.000000 L 67.500977 98.975098 Q 67.087402 98.110352 66.757080 97.860596 Q 66.426758 97.610840 65.895020 97.610840 L 64.858398 97.610840 L 64.858398 101.000000 L 63.768066 101.000000 L 63.768066 92.980957 L 66.002441 92.980957 Q 67.323730 92.980957 68.027344 93.577148 Q 68.730957 94.173340 68.730957 95.301270 Q 68.730957 96.096191 68.298584 96.598389 Q 67.866211 97.100586 67.082031 97.213379 Z M 64.858398 93.872559 L 64.858398 96.719238 L 66.045410 96.719238 Q 66.824219 96.719238 67.205566 96.370117 Q 67.586914 96.020996 67.586914 95.301270 Q 67.586914 94.608398 67.181396 94.240479 Q 66.775879 93.872559 66.002441 93.872559 Z " fill="rgb(0, 0, 0)" fill-opacity="1.000000" />
<path d="M 76.015625 97.498047 L 76.015625 97.981445 L 71.734863 97.981445 L 71.734863 98.013672 Q 71.691895 99.243652 72.204834 99.780762 Q 72.717773 100.317871 73.652344 100.317871 Q 74.125000 100.317871 74.640625 100.167480 Q 75.156250 100.017090 75.741699 99.710938 L 75.741699 100.693848 Q 75.177734 100.924805 74.654053 101.040283 Q 74.130371 101.155762 73.641602 101.155762 Q 72.239746 101.155762 71.450195 100.315186 Q 70.660645 99.474609 70.660645 97.997559 Q 70.660645 96.558105 71.434082 95.698730 Q 72.207520 94.839355 73.496582 94.839355 Q 74.645996 94.839355 75.309326 95.618164 Q 75.972656 96.396973 76.015625 97.498047 Z M 75.027344 97.208008 Q 74.962891 96.584961 74.573486 96.131104 Q 74.184082 95.677246 73.453613 95.677246 Q 72.739258 95.677246 72.277344 96.149902 Q 71.815430 96.622559 71.772461 97.213379 Z " fill="rgb(0, 0, 0)" fill-opacity="1.000000" />
<path d="M 81.608398 97.943848 Q 81.608398 96.832031 81.245850 96.254639 Q 80.883301 95.677246 80.190430 95.677246 Q 79.465332 95.677246 79.083984 96.254639 Q 78.702637 96.832031 78.702637 97.943848 Q 78.702637 99.055664 79.086670 99.638428 Q 79.470703 100.221191 80.201172 100.221191 Q 80.883301 100.221191 81.245850 99.635742 Q 81.608398 99.050293 81.608398 97.943848 Z M 82.596680 100.613281 Q 82.596680 101.966797 81.957520 102.665039 Q 81.318359 103.363281 80.077637 103.363281 Q 79.669434 103.363281 79.223633 103.288086 Q 78.777832 103.212891 78.332031 103.067871 L 78.332031 102.090332 Q 78.858398 102.337402 79.288086 102.455566 Q 79.717773 102.573730 80.077637 102.573730 Q 80.877930 102.573730 81.243164 102.138672 Q 81.608398 101.703613 81.608398 100.758301 L 81.608398 100.715332 L 81.608398 100.043945 Q 81.372070 100.548828 80.963867 100.795898 Q 80.555664 101.042969 79.970215 101.042969 Q 78.917480 101.042969 78.289062 100.199707 Q 77.660645 99.356445 77.660645 97.943848 Q 77.660645 96.525879 78.289062 95.682617 Q 78.917480 94.839355 79.970215 94.839355 Q 80.550293 94.839355 80.953125 95.070312 Q 81.355957 95.301270 81.608398 95.784668 L 81.608398 95.005859 L 82.596680 95.005859 Z " fill="rgb(0, 0, 0)" fill-opacity="1.000000" />
<path d="M 85.697266 95.005859 L 88.227051 95.005859 L 88.227051 100.231934 L 90.187500 100.231934 L 90.187500 101.000000 L 85.278320 101.000000 L 85.278320 100.231934 L 87.238770 100.231934 L 87.238770 95.773926 L 85.697266 95.773926 Z M 87.238770 92.669434 L 88.227051 92.669434 L 88.227051 93.915527 L 87.238770 93.915527 Z " fill="rgb(0, 0, 0)" fill-opacity="1.000000" />
<path d="M 94.308594 95.677246 Q 93.556641 95.677246 93.169922 96.262695 Q 92.783203 96.848145 92.783203 97.997559 Q 92.783203 99.141602 93.169922 99.729736 Q 93.556641 100.317871 94.308594 100.317871 Q 95.065918 100.317871 95.452637 99.729736 Q 95.839355 99.141602 95.839355 97.997559 Q 95.839355 96.848145 95.452637 96.262695 Q 95.065918 95.677246 94.308594 95.677246 Z M 94.308594 94.839355 Q 95.560059 94.839355 96.223389 95.650391 Q 96.886719 96.461426 96.886719 97.997559 Q 96.886719 99.539062 96.226074 100.347412 Q 95.565430 101.155762 94.308594 101.155762 Q 93.057129 101.155762 92.396484 100.347412 Q 91.735840 99.539062 91.735840 97.997559 Q 91.735840 96.461426 92.396484 95.650391 Q 93.057129 94.839355 94.308594 94.839355 Z " fill="rgb(0, 0, 0)" fill-opacity="1.000000" />
<path d="M 103.645020 97.272461 L 103.645020 101.000000 L 102.651367 101.000000 L 102.651367 97.272461 Q 102.651367 96.461426 102.366699 96.080078 Q 102.082031 95.698730 101.475098 95.698730 Q 100.782227 95.698730 100.408936 96.190186 Q 100.035645 96.681641 100.035645 97.600098 L 100.035645 101.000000 L 99.047363 101.000000 L 99.047363 94.984375 L 100.035645 94.984375 L 100.035645 95.886719 Q 100.298828 95.371094 100.750000 95.105225 Q 101.201172 94.839355 101.818848 94.839355 Q 102.737305 94.839355 103.191162 95.443604 Q 103.645020 96.047852 103.645020 97.272461 Z " fill="rgb(0, 0, 0)" fill-opacity="1.000000" />
<path d="M 121.878906 104.319336 L 121.878906 90.300781 L 122.738281 90.300781 L 122.738281 104.319336 Z " fill="rgb(0, 0, 0)" fill-opacity="1.000000" />
<path d="M 125.892578 98.335938 L 125.892578 97.412109 L 132.729980 97.412109 L 132.729980 98.335938 Z " fill="rgb(0, 0, 0)" fill-opacity="1.000000" />
<path d="M 136.738281 98.335938 L 136.738281 104.319336 L 135.878906 104.319336 L 135.878906 98.335938 L 132.892578 98.335938 L 132.892578 97.412109 L 135.878906 97.412109 L 135.878906 90.300781 L 136.738281 90.300781 L 136.738281 97.412109 L 139.729980 97.412109 L 139.729980 98.335938 Z " fill="rgb(0, 0, 0)" fill-opacity="1.000000" />
<path d="M 139.892578 98.335938 L 139.892578 97.412109 L 146.729980 97.412109 L 146.729980 98.335938 Z " fill="rgb(0, 0, 0)" fill-opacity="1.000000" />
<path d="M 146.892578 98.335938 L 146.892578 97.412109 L 153.729980 97.412109 L 153.729980 98.335938 Z " fill="rgb(0, 0, 0)" fill-opacity="1.000000" />
<path d="M 153.892578 98.335938 L 153.892578 97.412109 L 160.729980 97.412109 L 160.729980 98.335938 Z " fill="rgb(0, 0, 0)" fill-opacity="1.000000" />
<path d="M 160.892578 98.335938 L 160.892578 97.412109 L 167.729980 97.412109 L 167.729980 98.335938 Z " fill="rgb(0, 0, 0)" fill-opacity="1.000000" />
<path d="M 167.892578 98.335938 L 167.892578 97.412109 L 174.729980 97.412109 L 174.729980 98.335938 Z " fill="rgb(0, 0, 0)" fill-opacity="1.000000" />
<path d="M 174.892578 98.335938 L 174.892578 97.412109 L 181.729980 97.412109 L 181.729980 98.335938 Z " fill="rgb(0, 0, 0)" fill-opacity="1.000000" />
<path d="M 181.892578 98.335938 L 181.892578 97.412109 L 188.729980 97.412109 L 188.729980 98.335938 Z " fill="rgb(0, 0, 0)" fill-opacity="1.000000" />
<path d="M 188.892578 98.335938 L 188.892578 97.412109 L 195.729980 97.412109 L 195.729980 98.335938 Z " fill="rgb(0, 0, 0)" fill-opacity="1.000000" />
<path d="M 195.892578 98.335938 L 195.892578 97.412109 L 202.729980 97.412109 L 202.729980 98.335938 Z " fill="rgb(0, 0, 0)" fill-opacity="1.000000" />
<path d="M 202.892578 98.335938 L 202.892578 97.412109 L 209.729980 97.412109 L 209.729980 98.335938 Z " fill="rgb(0, 0, 0)" fill-opacity="1.000000" />
<path d="M 209.892578 98.335938 L 209.892578 97.412109 L 216.729980 97.412109 L 216.729980 98.335938 Z " fill="rgb(0, 0, 0)" fill-opacity="1.000000" />
<path d="M 216.892578 98.335938 L 216.892578 97.412109 L 223.729980 97.412109 L 223.729980 98.335938 Z " fill="rgb(0, 0, 0)" fill-opacity="1.000000" />
<path d="M 227.738281 98.335938 L 227.738281 104.319336 L 226.878906 104.319336 L 226.878906 98.335938 L 223.892578 98.335938 L 223.892578 97.412109 L 226.878906 97.412109 L 226.878906 90.300781 L 227.738281 90.300781 L 227.738281 97.412109 L 230.729980 97.412109 L 230.729980 98.335938 Z " fill="rgb(0, 0, 0)" fill-opacity="1.000000" />
<path d="M 231.032227 101.418945 L 231.032227 94.866211 L 237.590332 98.142578 Z " fill="rgb(0, 0, 0)" fill-opacity="1.000000" />
<path d="M 240.878906 104.319336 L 240.878906 90.300781 L 241.738281 90.300781 L 241.738281 104.319336 Z " fill="rgb(0, 0, 0)" fill-opacity="1.000000" />
<path d="M 257.435547 93.254883 L 257.435547 94.355957 Q 256.941406 94.039062 256.444580 93.877930 Q 255.947754 93.716797 255.442871 93.716797 Q 254.674805 93.716797 254.229004 94.073975 Q 253.783203 94.431152 253.783203 95.038086 Q 253.783203 95.569824 254.075928 95.849121 Q 254.368652 96.128418 255.168945 96.316406 L 255.738281 96.445312 Q 256.866211 96.708496 257.381836 97.272461 Q 257.897461 97.836426 257.897461 98.808594 Q 257.897461 99.952637 257.188477 100.554199 Q 256.479492 101.155762 255.125977 101.155762 Q 254.562012 101.155762 253.992676 101.034912 Q 253.423340 100.914062 252.848633 100.672363 L 252.848633 99.517578 Q 253.466309 99.909668 254.016846 100.092285 Q 254.567383 100.274902 255.125977 100.274902 Q 255.947754 100.274902 256.404297 99.906982 Q 256.860840 99.539062 256.860840 98.878418 Q 256.860840 98.276855 256.546631 97.959961 Q 256.232422 97.643066 255.453613 97.471191 L 254.873535 97.336914 Q 253.756348 97.084473 253.251465 96.574219 Q 252.746582 96.063965 252.746582 95.204590 Q 252.746582 94.130371 253.468994 93.483154 Q 254.191406 92.835938 255.389160 92.835938 Q 255.851074 92.835938 256.361328 92.940674 Q 256.871582 93.045410 257.435547 93.254883 Z " fill="rgb(0, 0, 0)" fill-opacity="1.000000" />
<path d="M 264.645020 97.272461 L 264.645020 101.000000 L 263.651367 101.000000 L 263.651367 97.272461 Q 263.651367 96.461426 263.366699 96.080078 Q 263.082031 95.698730 262.475098 95.698730 Q 261.782227 95.698730 261.408936 96.190186 Q 261.035645 96.681641 261.035645 97.600098 L 261.035645 101.000000 L 260.047363 101.000000 L 260.047363 92.642578 L 261.035645 92.642578 L 261.035645 95.886719 Q 261.298828 95.371094 261.750000 95.105225 Q 262.201172 94.839355 262.818848 94.839355 Q 263.737305 94.839355 264.191162 95.443604 Q 264.645020 96.047852 264.645020 97.272461 Z " fill="rgb(0, 0, 0)" fill-opacity="1.000000" />
<path d="M 269.770508 97.976074 L 269.442871 97.976074 Q 268.578125 97.976074 268.140381 98.279541 Q 267.702637 98.583008 267.702637 99.184570 Q 267.702637 99.727051 268.030273 100.027832 Q 268.357910 100.328613 268.937988 100.328613 Q 269.754395 100.328613 270.221680 99.761963 Q 270.688965 99.195312 270.694336 98.196289 L 270.694336 97.976074 Z M 271.687988 97.567871 L 271.687988 101.000000 L 270.694336 101.000000 L 270.694336 100.108398 Q 270.377441 100.645508 269.896729 100.900635 Q 269.416016 101.155762 268.728516 101.155762 Q 267.810059 101.155762 267.262207 100.637451 Q 266.714355 100.119141 266.714355 99.249023 Q 266.714355 98.244629 267.388428 97.723633 Q 268.062500 97.202637 269.367676 97.202637 L 270.694336 97.202637 L 270.694336 97.046875 Q 270.688965 96.327148 270.329102 96.002197 Q 269.969238 95.677246 269.179688 95.677246 Q 268.674805 95.677246 268.159180 95.822266 Q 267.643555 95.967285 267.154785 96.246582 L 267.154785 95.258301 Q 267.702637 95.048828 268.204834 94.944092 Q 268.707031 94.839355 269.179688 94.839355 Q 269.926270 94.839355 270.455322 95.059570 Q 270.984375 95.279785 271.312012 95.720215 Q 271.516113 95.988770 271.602051 96.383545 Q 271.687988 96.778320 271.687988 97.567871 Z " fill="rgb(0, 0, 0)" fill-opacity="1.000000" />
<path d="M 279.203613 96.225098 Q 278.886719 95.978027 278.559082 95.865234 Q 278.231445 95.752441 277.839355 95.752441 Q 276.915527 95.752441 276.426758 96.332520 Q 275.937988 96.912598 275.937988 98.008301 L 275.937988 101.000000 L 274.944336 101.000000 L 274.944336 94.984375 L 275.937988 94.984375 L 275.937988 96.160645 Q 276.185059 95.521484 276.697998 95.180420 Q 277.210938 94.839355 277.914551 94.839355 Q 278.279785 94.839355 278.596680 94.930664 Q 278.913574 95.021973 279.203613 95.215332 Z " fill="rgb(0, 0, 0)" fill-opacity="1.000000" />
<path d="M 284.608398 95.752441 L 284.608398 92.642578 L 285.596680 92.642578 L 285.596680 101.000000 L 284.608398 101.000000 L 284.608398 100.242676 Q 284.361328 100.688477 283.950439 100.922119 Q 283.539551 101.155762 283.002441 101.155762 Q 281.912109 101.155762 281.286377 100.309814 Q 280.660645 99.463867 280.660645 97.976074 Q 280.660645 96.509766 281.289062 95.674561 Q 281.917480 94.839355 283.002441 94.839355 Q 283.544922 94.839355 283.958496 95.072998 Q 284.372070 95.306641 284.608398 95.752441 Z M 281.702637 97.997559 Q 281.702637 99.146973 282.067871 99.732422 Q 282.433105 100.317871 283.147461 100.317871 Q 283.861816 100.317871 284.235107 99.727051 Q 284.608398 99.136230 284.608398 97.997559 Q 284.608398 96.853516 284.235107 96.265381 Q 283.861816 95.677246 283.147461 95.677246 Q 282.433105 95.677246 282.067871 96.262695 Q 281.702637 96.848145 281.702637 97.997559 Z " fill="rgb(0, 0, 0)" fill-opacity="1.000000" />
<path d="M 291.082031 97.213379 Q 291.500977 97.320801 291.796387 97.618896 Q 292.091797 97.916992 292.532227 98.808594 L 293.622559 101.000000 L 292.457031 101.000000 L 291.500977 98.975098 Q 291.087402 98.110352 290.757080 97.860596 Q 290.426758 97.610840 289.895020 97.610840 L 288.858398 97.610840 L 288.858398 101.000000 L 287.768066 101.000000 L 287.768066 92.980957 L 290.002441 92.980957 Q 291.323730 92.980957 292.027344 93.577148 Q 292.730957 94.173340 292.730957 95.301270 Q 292.730957 96.096191 292.298584 96.598389 Q 291.866211 97.100586 291.082031 97.213379 Z M 288.858398 93.872559 L 288.858398 96.719238 L 290.045410 96.719238 Q 290.824219 96.719238 291.205566 96.370117 Q 291.586914 96.020996 291.586914 95.301270 Q 291.586914 94.608398 291.181396 94.240479 Q 290.775879 93.872559 290.002441 93.872559 Z " fill="rgb(0, 0, 0)" fill-opacity="1.000000" />
<path d="M 300.015625 97.498047 L 300.015625 97.981445 L 295.734863 97.981445 L 295.734863 98.013672 Q 295.691895 99.243652 296.204834 99.780762 Q 296.717773 100.317871 297.652344 100.317871 Q 298.125000 100.317871 298.640625 100.167480 Q 299.156250 100.017090 299.741699 99.710938 L 299.741699 100.693848 Q 299.177734 100.924805 298.654053 101.040283 Q 298.130371 101.155762 297.641602 101.155762 Q 296.239746 101.155762 295.450195 100.315186 Q 294.660645 99.474609 294.660645 97.997559 Q 294.660645 96.558105 295.434082 95.698730 Q 296.207520 94.839355 297.496582 94.839355 Q 298.645996 94.839355 299.309326 95.618164 Q 299.972656 96.396973 300.015625 97.498047 Z M 299.027344 97.208008 Q 298.962891 96.584961 298.573486 96.131104 Q 298.184082 95.677246 297.453613 95.677246 Q 296.739258 95.677246 296.277344 96.149902 Q 295.815430 96.622559 295.772461 97.213379 Z " fill="rgb(0, 0, 0)" fill-opacity="1.000000" />
<path d="M 305.608398 97.943848 Q 305.608398 96.832031 305.245850 96.254639 Q 304.883301 95.677246 304.190430 95.677246 Q 303.465332 95.677246 303.083984 96.254639 Q 302.702637 96.832031 302.702637 97.943848 Q 302.702637 99.055664 303.086670 99.638428 Q 303.470703 100.221191 304.201172 100.221191 Q 304.883301 100.221191 305.245850 99.635742 Q 305.608398 99.050293 305.608398 97.943848 Z M 306.596680 100.613281 Q 306.596680 101.966797 305.957520 102.665039 Q 305.318359 103.363281 304.077637 103.363281 Q 303.669434 103.363281 303.223633 103.288086 Q 302.777832 103.212891 302.332031 103.067871 L 302.332031 102.090332 Q 302.858398 102.337402 303.288086 102.455566 Q 303.717773 102.573730 304.077637 102.573730 Q 304.877930 102.573730 305.243164 102.138672 Q 305.608398 101.703613 305.608398 100.758301 L 305.608398 100.715332 L 305.608398 100.043945 Q 305.372070 100.548828 304.963867 100.795898 Q 304.555664 101.042969 303.970215 101.042969 Q 302.917480 101.042969 302.289062 100.199707 Q 301.660645 99.356445 301.660645 97.943848 Q 301.660645 96.525879 302.289062 95.682617 Q 302.917480 94.839355 303.970215 94.839355 Q 304.550293 94.839355 304.953125 95.070312 Q 305.355957 95.301270 305.608398 95.784668 L 305.608398 95.005859 L 306.596680 95.005859 Z " fill="rgb(0, 0, 0)" fill-opacity="1.000000" />
<path d="M 309.697266 95.005859 L 312.227051 95.005859 L 312.227051 100.231934 L 314.187500 100.231934 L 314.187500 101.000000 L 309.278320 101.000000 L 309.278320 100.231934 L 311.238770 100.231934 L 311.238770 95.773926 L 309.697266 95.773926 Z M 311.238770 92.669434 L 312.227051 92.669434 L 312.227051 93.915527 L 311.238770 93.915527 Z " fill="rgb(0, 0, 0)" fill-opacity="1.000000" />
<path d="M 318.308594 95.677246 Q 317.556641 95.677246 317.169922 96.262695 Q 316.783203 96.848145 316.783203 97.997559 Q 316.783203 99.141602 317.169922 99.729736 Q 317.556641 100.317871 318.308594 100.317871 Q 319.065918 100.317871 319.452637 99.729736 Q 319.839355 99.141602 319.839355 97.997559 Q 319.839355 96.848145 319.452637 96.262695 Q 319.065918 95.677246 318.308594 95.677246 Z M 318.308594 94.839355 Q 319.560059 94.839355 320.223389 95.650391 Q 320.886719 96.461426 320.886719 97.997559 Q 320.886719 99.539062 320.226074 100.347412 Q 319.565430 101.155762 318.308594 101.155762 Q 317.057129 101.155762 316.396484 100.347412 Q 315.735840 99.539062 315.735840 97.997559 Q 315.735840 96.461426 316.396484 95.650391 Q 317.057129 94.839355 318.308594 94.839355 Z " fill="rgb(0, 0, 0)" fill-opacity="1.000000" />
<path d="M 327.645020 97.272461 L 327.645020 101.000000 L 326.651367 101.000000 L 326.651367 97.272461 Q 326.651367 96.461426 326.366699 96.080078 Q 326.082031 95.698730 325.475098 95.698730 Q 324.782227 95.698730 324.408936 96.190186 Q 324.035645 96.681641 324.035645 97.600098 L 324.035645 101.000000 L 323.047363 101.000000 L 323.047363 94.984375 L 324.035645 94.984375 L 324.035645 95.886719 Q 324.298828 95.371094 324.750000 95.105225 Q 325.201172 94.839355 325.818848 94.839355 Q 326.737305 94.839355 327.191162 95.443604 Q 327.645020 96.047852 327.645020 97.272461 Z " fill="rgb(0, 0, 0)" fill-opacity="1.000000" />
<path d="M 345.878906 104.319336 L 345.878906 90.300781 L 346.738281 90.300781 L 346.738281 104.319336 Z " fill="rgb(0, 0, 0)" fill-opacity="1.000000" />
<path d="M 359.878906 104.319336 L 359.878906 90.300781 L 360.738281 90.300781 L 360.738281 104.319336 Z " fill="rgb(0, 0, 0)" fill-opacity="1.000000" />
<path d="M 20.892578 85.335938 L 20.892578 84.412109 L 27.729980 84.412109 L 27.729980 85.335938 Z " fill="rgb(0, 0, 0)" fill-opacity="1.000000" />
<path d="M 27.892578 85.335938 L 27.892578 84.412109 L 34.729980 84.412109 L 34.729980 85.335938 Z " fill="rgb(0, 0, 0)" fill-opacity="1.000000" />
<path d="M 34.892578 85.335938 L 34.892578 84.412109 L 41.729980 84.412109 L 41.729980 85.335938 Z " fill="rgb(0, 0, 0)" fill-opacity="1.000000" />
<path d="M 41.892578 85.335938 L 41.892578 84.412109 L 48.729980 84.412109 L 48.729980 85.335938 Z " fill="rgb(0, 0, 0)" fill-opacity="1.000000" />
<path d="M 48.892578 85.335938 L 48.892578 84.412109 L 55.729980 84.412109 L 55.729980 85.335938 Z " fill="rgb(0, 0, 0)" fill-opacity="1.000000" />
<path d="M 55.892578 85.335938 L 55.892578 84.412109 L 62.729980 84.412109 L 62.729980 85.335938 Z " fill="rgb(0, 0, 0)" fill-opacity="1.000000" />
<path d="M 62.892578 85.335938 L 62.892578 84.412109 L 69.729980 84.412109 L 69.729980 85.335938 Z " fill="rgb(0, 0, 0)" fill-opacity="1.000000" />
<path d="M 69.892578 85.335938 L 69.892578 84.412109 L 76.729980 84.412109 L 76.729980 85.335938 Z " fill="rgb(0, 0, 0)" fill-opacity="1.000000" />
<path d="M 76.892578 85.335938 L 76.892578 84.412109 L 83.729980 84.412109 L 83.729980 85.335938 Z " fill="rgb(0, 0, 0)" fill-opacity="1.000000" />
<path d="M 83.892578 85.335938 L 83.892578 84.412109 L 90.729980 84.412109 L 90.729980 85.335938 Z " fill="rgb(0, 0, 0)" fill-opacity="1.000000" />
<path d="M 90.892578 85.335938 L 90.892578 84.412109 L 97.729980 84.412109 L 97.729980 85.335938 Z " fill="rgb(0, 0, 0)" fill-opacity="1.000000" />
<path d="M 97.892578 85.335938 L 97.892578 84.412109 L 104.729980 84.412109 L 104.729980 85.335938 Z " fill="rgb(0, 0, 0)" fill-opacity="1.000000" />
<path d="M 104.892578 85.335938 L 104.892578 84.412109 L 111.729980 84.412109 L 111.729980 85.335938 Z " fill="rgb(0, 0, 0)" fill-opacity="1.000000" />
<path d="M 111.892578 85.335938 L 111.892578 84.412109 L 118.729980 84.412109 L 118.729980 85.335938 Z " fill="rgb(0, 0, 0)" fill-opacity="1.000000" />
<path d="M 121.878906 91.319336 L 121.878906 85.335938 L 118.892578 85.335938 L 118.892578 84.412109 L 122.738281 84.412109 L 122.738281 91.319336 Z " fill="rgb(0, 0, 0)" fill-opacity="1.000000" />
<path d="M 135.878906 91.319336 L 135.878906 77.300781 L 136.738281 77.300781 L 136.738281 91.319336 Z " fill="rgb(0, 0, 0)" fill-opacity="1.000000" />
<path d="M 226.878906 91.319336 L 226.878906 77.300781 L 227.738281 77.300781 L 227.738281 91.319336 Z " fill="rgb(0, 0, 0)" fill-opacity="1.000000" />
<path d="M 240.878906 91.319336 L 240.878906 84.412109 L 244.729980 84.412109 L 244.729980 85.335938 L 241.738281 85.335938 L 241.738281 91.319336 Z " fill="rgb(0, 0, 0)" fill-opacity="1.000000" />
<path d="M 244.892578 85.335938 L 244.892578 84.412109 L 251.729980 84.412109 L 251.729980 85.335938 Z " fill="rgb(0, 0, 0)" fill-opacity="1.000000" />
<path d="M 251.892578 85.335938 L 251.892578 84.412109 L 258.729980 84.412109 L 258.729980 85.335938 Z " fill="rgb(0, 0, 0)" fill-opacity="1.000000" />
<path d="M 258.892578 85.335938 L 258.892578 84.412109 L 265.729980 84.412109 L 265.729980 85.335938 Z " fill="rgb(0, 0, 0)" fill-opacity="1.000000" />
<path d="M 265.892578 85.335938 L 265.892578 84.412109 L 272.729980 84.412109 L 272.729980 85.335938 Z " fill="rgb(0, 0, 0)" fill-opacity="1.000000" />
<path d="M 272.892578 85.335938 L 272.892578 84.412109 L 279.729980 84.412109 L 279.729980 85.335938 Z " fill="rgb(0, 0, 0)" fill-opacity="1.000000" />
<path d="M 279.892578 85.335938 L 279.892578 84.412109 L 286.729980 84.412109 L 286.729980 85.335938 Z " fill="rgb(0, 0, 0)" fill-opacity="1.000000" />
<path d="M 286.892578 85.335938 L 286.892578 84.412109 L 293.729980 84.412109 L 293.729980 85.335938 Z " fill="rgb(0, 0, 0)" fill-opacity="1.000000" />
<path d="M 293.892578 85.335938 L 293.892578 84.412109 L 300.729980 84.412109 L 300.729980 85.335938 Z " fill="rgb(0, 0, 0)" fill-opacity="1.000000" />
<path d="M 300.892578 85.335938 L 300.892578 84.412109 L 307.729980 84.412109 L 307.729980 85.335938 Z " fill="rgb(0, 0, 0)" fill-opacity="1.000000" />
<path d="M 307.892578 85.335938 L 307.892578 84.412109 L 314.729980 84.412109 L 314.729980 85.335938 Z " fill="rgb(0, 0, 0)" fill-opacity="1.000000" />
<path d="M 314.892578 85.335938 L 314.892578 84.412109 L 321.729980 84.412109 L 321.729980 85.335938 Z " fill="rgb(0, 0, 0)" fill-opacity="1.000000" />
<path d="M 321.892578 85.335938 L 321.892578 84.412109 L 328.729980 84.412109 L 328.729980 85.335938 Z " fill="rgb(0, 0, 0)" fill-opacity="1.000000" />
<path d="M 328.892578 85.335938 L 328.892578 84.412109 L 335.729980 84.412109 L 335.729980 85.335938 Z " fill="rgb(0, 0, 0)" fill-opacity="1.000000" />
<path d="M 335.892578 85.335938 L 335.892578 84.412109 L 342.729980 84.412109 L 342.729980 85.335938 Z " fill="rgb(0, 0, 0)" fill-opacity="1.000000" />
<path d="M 345.878906 91.319336 L 345.878906 85.335938 L 342.892578 85.335938 L 342.892578 84.412109 L 346.738281 84.412109 L 346.738281 91.319336 Z " fill="rgb(0, 0, 0)" fill-opacity="1.000000" />
<path d="M 359.878906 91.319336 L 359.878906 77.300781 L 360.738281 77.300781 L 360.738281 91.319336 Z " fill="rgb(0, 0, 0)" fill-opacity="1.000000" />
<path d="M 72.878906 65.319336 L 72.878906 51.300781 L 73.738281 51.300781 L 73.738281 65.319336 Z " fill="rgb(0, 0, 0)" fill-opacity="1.000000" />
<path d="M 73.308594 75.418945 L 70.032227 68.866211 L 76.590332 68.866211 Z " fill="rgb(0, 0, 0)" fill-opacity="1.000000" />
<path d="M 135.878906 78.319336 L 135.878906 64.300781 L 136.738281 64.300781 L 136.738281 78.319336 Z " fill="rgb(0, 0, 0)" fill-opacity="1.000000" />
<path d="M 226.878906 78.319336 L 226.878906 64.300781 L 227.738281 64.300781 L 227.738281 78.319336 Z " fill="rgb(0, 0, 0)" fill-opacity="1.000000" />
<path d="M 359.878906 78.319336 L 359.878906 64.300781 L 360.738281 64.300781 L 360.738281 78.319336 Z " fill="rgb(0, 0, 0)" fill-opacity="1.000000" />
<path d="M 135.878906 65.319336 L 135.878906 51.300781 L 136.738281 51.300781 L 136.738281 65.319336 Z " fill="rgb(0, 0, 0)" fill-opacity="1.000000" />
<path d="M 226.878906 65.319336 L 226.878906 51.300781 L 227.738281 51.300781 L 227.738281 65.319336 Z " fill="rgb(0, 0, 0)" fill-opacity="1.000000" />
<path d="M 359.878906 65.319336 L 359.878906 51.300781 L 360.738281 51.300781 L 360.738281 65.319336 Z " fill="rgb(0, 0, 0)" fill-opacity="1.000000" />
<path d="M 20.892578 46.335938 L 20.892578 45.412109 L 27.729980 45.412109 L 27.729980 46.335938 Z " fill="rgb(0, 0, 0)" fill-opacity="1.000000" />
<path d="M 27.892578 46.335938 L 27.892578 45.412109 L 34.729980 45.412109 L 34.729980 46.335938 Z " fill="rgb(0, 0, 0)" fill-opacity="1.000000" />
<path d="M 34.892578 46.335938 L 34.892578 45.412109 L 41.729980 45.412109 L 41.729980 46.335938 Z " fill="rgb(0, 0, 0)" fill-opacity="1.000000" />
<path d="M 41.892578 46.335938 L 41.892578 45.412109 L 48.729980 45.412109 L 48.729980 46.335938 Z " fill="rgb(0, 0, 0)" fill-opacity="1.000000" />
<path d="M 48.892578 46.335938 L 48.892578 45.412109 L 55.729980 45.412109 L 55.729980 46.335938 Z " fill="rgb(0, 0, 0)" fill-opacity="1.000000" />
<path d="M 55.892578 46.335938 L 55.892578 45.412109 L 62.729980 45.412109 L 62.729980 46.335938 Z " fill="rgb(0, 0, 0)" fill-opacity="1.000000" />
<path d="M 62.892578 46.335938 L 62.892578 45.412109 L 69.729980 45.412109 L 69.729980 46.335938 Z " fill="rgb(0, 0, 0)" fill-opacity="1.000000" />
<path d="M 69.892578 46.335938 L 69.892578 45.412109 L 76.729980 45.412109 L 76.729980 46.335938 Z " fill="rgb(0, 0, 0)" fill-opacity="1.000000" />
<path d="M 76.892578 46.335938 L 76.892578 45.412109 L 83.729980 45.412109 L 83.729980 46.335938 Z " fill="rgb(0, 0, 0)" fill-opacity="1.000000" />
<path d="M 83.892578 46.335938 L 83.892578 45.412109 L 90.729980 45.412109 L 90.729980 46.335938 Z " fill="rgb(0, 0, 0)" fill-opacity="1.000000" />
<path d="M 90.892578 46.335938 L 90.892578 45.412109 L 97.729980 45.412109 L 97.729980 46.335938 Z " fill="rgb(0, 0, 0)" fill-opacity="1.000000" />
<path d="M 97.892578 46.335938 L 97.892578 45.412109 L 104.729980 45.412109 L 104.729980 46.335938 Z " fill="rgb(0, 0, 0)" fill-opacity="1.000000" />
<path d="M 104.892578 46.335938 L 104.892578 45.412109 L 111.729980 45.412109 L 111.729980 46.335938 Z " fill="rgb(0, 0, 0)" fill-opacity="1.000000" />
<path d="M 111.892578 46.335938 L 111.892578 45.412109 L 118.729980 45.412109 L 118.729980 46.335938 Z " fill="rgb(0, 0, 0)" fill-opacity="1.000000" />
<path d="M 118.892578 46.335938 L 118.892578 45.412109 L 121.878906 45.412109 L 121.878906 38.300781 L 122.738281 38.300781 L 122.738281 46.335938 Z " fill="rgb(0, 0, 0)" fill-opacity="1.000000" />
<path d="M 135.878906 52.319336 L 135.878906 38.300781 L 136.738281 38.300781 L 136.738281 52.319336 Z " fill="rgb(0, 0, 0)" fill-opacity="1.000000" />
<path d="M 226.878906 52.319336 L 226.878906 38.300781 L 227.738281 38.300781 L 227.738281 52.319336 Z " fill="rgb(0, 0, 0)" fill-opacity="1.000000" />
<path d="M 359.878906 52.319336 L 359.878906 38.300781 L 360.738281 38.300781 L 360.738281 52.319336 Z " fill="rgb(0, 0, 0)" fill-opacity="1.000000" />
<path d="M 121.878906 39.319336 L 121.878906 25.300781 L 122.738281 25.300781 L 122.738281 39.319336 Z " fill="rgb(0, 0, 0)" fill-opacity="1.000000" />
<path d="M 135.878906 39.319336 L 135.878906 25.300781 L 136.738281 25.300781 L 136.738281 39.319336 Z " fill="rgb(0, 0, 0)" fill-opacity="1.000000" />
<path d="M 226.878906 39.319336 L 226.878906 25.300781 L 227.738281 25.300781 L 227.738281 39.319336 Z " fill="rgb(0, 0, 0)" fill-opacity="1.000000" />
<path d="M 359.878906 39.319336 L 359.878906 25.300781 L 360.738281 25.300781 L 360.738281 39.319336 Z " fill="rgb(0, 0, 0)" fill-opacity="1.000000" />
<path d="M 20.892578 20.335938 L 20.892578 19.412109 L 27.729980 19.412109 L 27.729980 20.335938 Z " fill="rgb(0, 0, 0)" fill-opacity="1.000000" />
<path d="M 27.892578 20.335938 L 27.892578 19.412109 L 34.729980 19.412109 L 34.729980 20.335938 Z " fill="rgb(0, 0, 0)" fill-opacity="1.000000" />
<path d="M 34.892578 20.335938 L 34.892578 19.412109 L 41.729980 19.412109 L 41.729980 20.335938 Z " fill="rgb(0, 0, 0)" fill-opacity="1.000000" />
<path d="M 41.892578 20.335938 L 41.892578 19.412109 L 48.729980 19.412109 L 48.729980 20.335938 Z " fill="rgb(0, 0, 0)" fill-opacity="1.000000" />
<path d="M 48.892578 20.335938 L 48.892578 19.412109 L 55.729980 19.412109 L 55.729980 20.335938 Z " fill="rgb(0, 0, 0)" fill-opacity="1.000000" />
<path d="M 55.892578 20.335938 L 55.892578 19.412109 L 62.729980 19.412109 L 62.729980 20.335938 Z " fill="rgb(0, 0, 0)" fill-opacity="1.000000" />
<path d="M 62.892578 20.335938 L 62.892578 19.412109 L 69.729980 19.412109 L 69.729980 20.335938 Z " fill="rgb(0, 0, 0)" fill-opacity="1.000000" />
<path d="M 69.892578 20.335938 L 69.892578 19.412109 L 76.729980 19.412109 L 76.729980 20.335938 Z " fill="rgb(0, 0, 0)" fill-opacity="1.000000" />
<path d="M 76.892578 20.335938 L 76.892578 19.412109 L 83.729980 19.412109 L 83.729980 20.335938 Z " fill="rgb(0, 0, 0)" fill-opacity="1.000000" />
<path d="M 83.892578 20.335938 L 83.892578 19.412109 L 90.729980 19.412109 L 90.729980 20.335938 Z " fill="rgb(0, 0, 0)" fill-opacity="1.000000" />
<path d="M 90.892578 20.335938 L 90.892578 19.412109 L 97.729980 19.412109 L 97.729980 20.335938 Z " fill="rgb(0, 0, 0)" fill-opacity="1.000000" />
<path d="M 97.892578 20.335938 L 97.892578 19.412109 L 104.729980 19.412109 L 104.729980 20.335938 Z " fill="rgb(0, 0, 0)" fill-opacity="1.000000" />
<path d="M 104.892578 20.335938 L 104.892578 19.412109 L 111.729980 19.412109 L 111.729980 20.335938 Z " fill="rgb(0, 0, 0)" fill-opacity="1.000000" />
<path d="M 111.892578 20.335938 L 111.892578 19.412109 L 118.729980 19.412109 L 118.729980 20.335938 Z " fill="rgb(0, 0, 0)" fill-opacity="1.000000" />
<path d="M 121.878906 26.319336 L 121.878906 20.335938 L 118.892578 20.335938 L 118.892578 19.412109 L 122.738281 19.412109 L 122.738281 26.319336 Z " fill="rgb(0, 0, 0)" fill-opacity="1.000000" />
<path d="M 135.878906 26.319336 L 135.878906 12.300781 L 136.738281 12.300781 L 136.738281 26.319336 Z " fill="rgb(0, 0, 0)" fill-opacity="1.000000" />
<path d="M 226.878906 26.319336 L 226.878906 12.300781 L 227.738281 12.300781 L 227.738281 26.319336 Z " fill="rgb(0, 0, 0)" fill-opacity="1.000000" />
<path d="M 359.878906 26.319336 L 359.878906 12.300781 L 360.738281 12.300781 L 360.738281 26.319336 Z " fill="rgb(0, 0, 0)" fill-opacity="1.000000" />
<path d="M 6.892578 7.335938 L 6.892578 6.412109 L 13.729980 6.412109 L 13.729980 7.335938 Z " fill="rgb(0, 0, 0)" fill-opacity="1.000000" />
<path d="M 13.892578 7.335938 L 13.892578 6.412109 L 20.729980 6.412109 L 20.729980 7.335938 Z " fill="rgb(0, 0, 0)" fill-opacity="1.000000" />
<path d="M 20.892578 7.335938 L 20.892578 6.412109 L 27.729980 6.412109 L 27.729980 7.335938 Z " fill="rgb(0, 0, 0)" fill-opacity="1.000000" />
<path d="M 27.892578 7.335938 L 27.892578 6.412109 L 34.729980 6.412109 L 34.729980 7.335938 Z " fill="rgb(0, 0, 0)" fill-opacity="1.000000" />
<path d="M 34.892578 7.335938 L 34.892578 6.412109 L 41.729980 6.412109 L 41.729980 7.335938 Z " fill="rgb(0, 0, 0)" fill-opacity="1.000000" />
<path d="M 41.892578 7.335938 L 41.892578 6.412109 L 48.729980 6.412109 L 48.729980 7.335938 Z " fill="rgb(0, 0, 0)" fill-opacity="1.000000" />
<path d="M 48.892578 7.335938 L 48.892578 6.412109 L 55.729980 6.412109 L 55.729980 7.335938 Z " fill="rgb(0, 0, 0)" fill-opacity="1.000000" />
<path d="M 55.892578 7.335938 L 55.892578 6.412109 L 62.729980 6.412109 L 62.729980 7.335938 Z " fill="rgb(0, 0, 0)" fill-opacity="1.000000" />
<path d="M 62.892578 7.335938 L 62.892578 6.412109 L 69.729980 6.412109 L 69.729980 7.335938 Z " fill="rgb(0, 0, 0)" fill-opacity="1.000000" />
<path d="M 69.892578 7.335938 L 69.892578 6.412109 L 76.729980 6.412109 L 76.729980 7.335938 Z " fill="rgb(0, 0, 0)" fill-opacity="1.000000" />
<path d="M 76.892578 7.335938 L 76.892578 6.412109 L 83.729980 6.412109 L 83.729980 7.335938 Z " fill="rgb(0, 0, 0)" fill-opacity="1.000000" />
<path d="M 83.892578 7.335938 L 83.892578 6.412109 L 90.729980 6.412109 L 90.729980 7.335938 Z " fill="rgb(0, 0, 0)" fill-opacity="1.000000" />
<path d="M 90.892578 7.335938 L 90.892578 6.412109 L 97.729980 6.412109 L 97.729980 7.335938 Z " fill="rgb(0, 0, 0)" fill-opacity="1.000000" />
<path d="M 97.892578 7.335938 L 97.892578 6.412109 L 104.729980 6.412109 L 104.729980 7.335938 Z " fill="rgb(0, 0, 0)" fill-opacity="1.000000" />
<path d="M 104.892578 7.335938 L 104.892578 6.412109 L 111.729980 6.412109 L 111.729980 7.335938 Z " fill="rgb(0, 0, 0)" fill-opacity="1.000000" />
<path d="M 111.892578 7.335938 L 111.892578 6.412109 L 118.729980 6.412109 L 118.729980 7.335938 Z " fill="rgb(0, 0, 0)" fill-opacity="1.000000" />
<path d="M 118.892578 7.335938 L 118.892578 6.412109 L 125.729980 6.412109 L 125.729980 7.335938 Z " fill="rgb(0, 0, 0)" fill-opacity="1.000000" />
<path d="M 125.892578 7.335938 L 125.892578 6.412109 L 132.729980 6.412109 L 132.729980 7.335938 Z " fill="rgb(0, 0, 0)" fill-opacity="1.000000" />
<path d="M 135.878906 13.319336 L 135.878906 7.335938 L 132.892578 7.335938 L 132.892578 6.412109 L 136.738281 6.412109 L 136.738281 13.319336 Z " fill="rgb(0, 0, 0)" fill-opacity="1.000000" />
<path d="M 226.878906 13.319336 L 226.878906 6.412109 L 230.729980 6.412109 L 230.729980 7.335938 L 227.738281 7.335938 L 227.738281 13.319336 Z " fill="rgb(0, 0, 0)" fill-opacity="1.000000" />
<path d="M 230.892578 7.335938 L 230.892578 6.412109 L 237.729980 6.412109 L 237.729980 7.335938 Z " fill="rgb(0, 0, 0)" fill-opacity="1.000000" />
<path d="M 237.892578 7.335938 L 237.892578 6.412109 L 244.729980 6.412109 L 244.729980 7.335938 Z " fill="rgb(0, 0, 0)" fill-opacity="1.000000" />
<path d="M 244.892578 7.335938 L 244.892578 6.412109 L 251.729980 6.412109 L 251.729980 7.335938 Z " fill="rgb(0, 0, 0)" fill-opacity="1.000000" />
<path d="M 251.892578 7.335938 L 251.892578 6.412109 L 258.729980 6.412109 L 258.729980 7.335938 Z " fill="rgb(0, 0, 0)" fill-opacity="1.000000" />
<path d="M 258.892578 7.335938 L 258.892578 6.412109 L 265.729980 6.412109 L 265.729980 7.335938 Z " fill="rgb(0, 0, 0)" fill-opacity="1.000000" />
<path d="M 265.892578 7.335938 L 265.892578 6.412109 L 272.729980 6.412109 L 272.729980 7.335938 Z " fill="rgb(0, 0, 0)" fill-opacity="1.000000" />
<path d="M 272.892578 7.335938 L 272.892578 6.412109 L 279.729980 6.412109 L 279.729980 7.335938 Z " fill="rgb(0, 0, 0)" fill-opacity="1.000000" />
<path d="M 279.892578 7.335938 L 279.892578 6.412109 L 286.729980 6.412109 L 286.729980 7.335938 Z " fill="rgb(0, 0, 0)" fill-opacity="1.000000" />
<path d="M 286.892578 7.335938 L 286.892578 6.412109 L 293.729980 6.412109 L 293.729980 7.335938 Z " fill="rgb(0, 0, 0)" fill-opacity="1.000000" />
<path d="M 293.892578 7.335938 L 293.892578 6.412109 L 300.729980 6.412109 L 300.729980 7.335938 Z " fill="rgb(0, 0, 0)" fill-opacity="1.000000" />
<path d="M 300.892578 7.335938 L 300.892578 6.412109 L 307.729980 6.412109 L 307.729980 7.335938 Z " fill="rgb(0, 0, 0)" fill-opacity="1.000000" />
<path d="M 307.892578 7.335938 L 307.892578 6.412109 L 314.729980 6.412109 L 314.729980 7.335938 Z " fill="rgb(0, 0, 0)" fill-opacity="1.000000" />
<path d="M 314.892578 7.335938 L 314.892578 6.412109 L 321.729980 6.412109 L 321.729980 7.335938 Z " fill="rgb(0, 0, 0)" fill-opacity="1.000000" />
<path d="M 321.892578 7.335938 L 321.892578 6.412109 L 328.729980 6.412109 L 328.729980 7.335938 Z " fill="rgb(0, 0, 0)" fill-opacity="1.000000" />
<path d="M 328.892578 7.335938 L 328.892578 6.412109 L 335.729980 6.412109 L 335.729980 7.335938 Z " fill="rgb(0, 0, 0)" fill-opacity="1.000000" />
<path d="M 335.892578 7.335938 L 335.892578 6.412109 L 342.729980 6.412109 L 342.729980 7.335938 Z " fill="rgb(0, 0, 0)" fill-opacity="1.000000" />
<path d="M 342.892578 7.335938 L 342.892578 6.412109 L 349.729980 6.412109 L 349.729980 7.335938 Z " fill="rgb(0, 0, 0)" fill-opacity="1.000000" />
<path d="M 349.892578 7.335938 L 349.892578 6.412109 L 356.729980 6.412109 L 356.729980 7.335938 Z " fill="rgb(0, 0, 0)" fill-opacity="1.000000" />
<path d="M 359.878906 13.319336 L 359.878906 7.335938 L 356.892578 7.335938 L 356.892578 6.412109 L 360.738281 6.412109 L 360.738281 13.319336 Z " fill="rgb(0, 0, 0)" fill-opacity="1.000000" />
</svg>