<svg xmlns="http://www.w3.org/2000/svg" version="1.1" width="365" height="170">
<path d="M 2.878906 13.319336 L 2.878906 6.412109 L 6.729980 6.412109 L 6.729980 7.335938 L 3.738281 7.335938 L 3.738281 13.319336 Z " fill="rgb(0, 0, 0)" fill-opacity="1.000000" />
<path d="M 2.878906 26.319336 L 2.878906 12.300781 L 3.738281 12.300781 L 3.738281 26.319336 Z " fill="rgb(0, 0, 0)" fill-opacity="1.000000" />
<path d="M 2.878906 39.319336 L 2.878906 25.300781 L 3.738281 25.300781 L 3.738281 39.319336 Z " fill="rgb(0, 0, 0)" fill-opacity="1.000000" />
<path d="M 2.878906 52.319336 L 2.878906 38.300781 L 3.738281 38.300781 L 3.738281 52.319336 Z " fill="rgb(0, 0, 0)" fill-opacity="1.000000" />
<path d="M 2.878906 65.319336 L 2.878906 51.300781 L 3.738281 51.300781 L 3.738281 65.319336 Z " fill="rgb(0, 0, 0)" fill-opacity="1.000000" />
<path d="M 2.878906 78.319336 L 2.878906 64.300781 L 3.738281 64.300781 L 3.738281 78.319336 Z " fill="rgb(0, 0, 0)" fill-opacity="1.000000" />
<path d="M 2.878906 91.319336 L 2.878906 77.300781 L 3.738281 77.300781 L 3.738281 91.319336 Z " fill="rgb(0, 0, 0)" fill-opacity="1.000000" />
<path d="M 2.878906 104.319336 L 2.878906 90.300781 L 3.738281 90.300781 L 3.738281 104.319336 Z " fill="rgb(0, 0, 0)" fill-opacity="1.000000" />
<path d="M 2.878906 117.319336 L 2.878906 103.300781 L 3.738281 103.300781 L 3.738281 117.319336 Z " fill="rgb(0, 0, 0)" fill-opacity="1.000000" />
<path d="M 2.878906 130.319336 L 2.878906 116.300781 L 3.738281 116.300781 L 3.738281 130.319336 Z " fill="rgb(0, 0, 0)" fill-opacity="1.000000" />
<path d="M 2.878906 143.319336 L 2.878906 129.300781 L 3.738281 129.300781 L 3.738281 143.319336 Z " fill="rgb(0, 0, 0)" fill-opacity="1.000000" />
<path d="M 2.878906 156.319336 L 2.878906 142.300781 L 3.738281 142.300781 L 3.738281 156.319336 Z " fill="rgb(0, 0, 0)" fill-opacity="1.000000" />
<path d="M 2.878906 163.335938 L 2.878906 155.300781 L 3.738281 155.300781 L 3.738281 162.412109 L 6.729980 162.412109 L 6.729980 163.335938 Z " fill="rgb(0, 0, 0)" fill-opacity="1.000000" />
<path d="M 6.892578 163.335938 L 6.892578 162.412109 L 13.729980 162.412109 L 13.729980 163.335938 Z " fill="rgb(0, 0, 0)" fill-opacity="1.000000" />
<path d="M 13.892578 163.335938 L 13.892578 162.412109 L 20.729980 162.412109 L 20.729980 163.335938 Z " fill="rgb(0, 0, 0)" fill-opacity="1.000000" />
<path d="M 20.892578 163.335938 L 20.892578 162.412109 L 27.729980 162.412109 L 27.729980 163.335938 Z " fill="rgb(0, 0, 0)" fill-opacity="1.000000" />
<path d="M 27.892578 163.335938 L 27.892578 162.412109 L 34.729980 162.412109 L 34.729980 163.335938 Z " fill="rgb(0, 0, 0)" fill-opacity="1.000000" />
<path d="M 34.892578 163.335938 L 34.892578 162.412109 L 41.729980 162.412109 L 41.729980 163.335938 Z " fill="rgb(0, 0, 0)" fill-opacity="1.000000" />
<path d="M 41.892578 163.335938 L 41.892578 162.412109 L 48.729980 162.412109 L 48.729980 163.335938 Z " fill="rgb(0, 0, 0)" fill-opacity="1.000000" />
<path d="M 48.892578 163.335938 L 48.892578 162.412109 L 55.729980 162.412109 L 55.729980 163.335938 Z " fill="rgb(0, 0, 0)" fill-opacity="1.000000" />
<path d="M 55.892578 163.335938 L 55.892578 162.412109 L 62.729980 162.412109 L 62.729980 163.335938 Z " fill="rgb(0, 0, 0)" fill-opacity="1.000000" />
<path d="M 62.892578 163.335938 L 62.892578 162.412109 L 69.729980 162.412109 L 69.729980 163.335938 Z " fill="rgb(0, 0, 0)" fill-opacity="1.000000" />
<path d="M 69.892578 163.335938 L 69.892578 162.412109 L 76.729980 162.412109 L 76.729980 163.335938 Z " fill="rgb(0, 0, 0)" fill-opacity="1.000000" />
<path d="M 76.892578 163.335938 L 76.892578 162.412109 L 83.729980 162.412109 L 83.729980 163.335938 Z " fill="rgb(0, 0, 0)" fill-opacity="1.000000" />
<path d="M 83.892578 163.335938 L 83.892578 162.412109 L 90.729980 162.412109 L 90.729980 163.335938 Z " fill="rgb(0, 0, 0)" fill-opacity="1.000000" />
<path d="M 90.892578 163.335938 L 90.892578 162.412109 L 97.729980 162.412109 L 97.729980 163.335938 Z " fill="rgb(0, 0, 0)" fill-opacity="1.000000" />
<path d="M 97.892578 163.335938 L 97.892578 162.412109 L 104.729980 162.412109 L 104.729980 163.335938 Z " fill="rgb(0, 0, 0)" fill-opacity="1.000000" />
<path d="M 104.892578 163.335938 L 104.892578 162.412109 L 111.729980 162.412109 L 111.729980 163.335938 Z " fill="rgb(0, 0, 0)" fill-opacity="1.000000" />
<path d="M 111.892578 163.335938 L 111.892578 162.412109 L 118.729980 162.412109 L 118.729980 163.335938 Z " fill="rgb(0, 0, 0)" fill-opacity="1.000000" />
<path d="M 118.892578 163.335938 L 118.892578 162.412109 L 125.729980 162.412109 L 125.729980 163.335938 Z " fill="rgb(0, 0, 0)" fill-opacity="1.000000" />
<path d="M 125.892578 163.335938 L 125.892578 162.412109 L 132.729980 162.412109 L 132.729980 163.335938 Z " fill="rgb(0, 0, 0)" fill-opacity="1.000000" />
<path d="M 132.892578 163.335938 L 132.892578 162.412109 L 135.878906 162.412109 L 135.878906 155.300781 L 136.738281 155.300781 L 136.738281 163.335938 Z " fill="rgb(0, 0, 0)" fill-opacity="1.000000" />
<path d="M 226.878906 163.335938 L 226.878906 155.300781 L 227.738281 155.300781 L 227.738281 162.412109 L 230.729980 162.412109 L 230.729980 163.335938 Z " fill="rgb(0, 0, 0)" fill-opacity="1.000000" />
<path d="M 230.892578 163.335938 L 230.892578 162.412109 L 237.729980 162.412109 L 237.729980 163.335938 Z " fill="rgb(0, 0, 0)" fill-opacity="1.000000" />
<path d="M 237.892578 163.335938 L 237.892578 162.412109 L 244.729980 162.412109 L 244.729980 163.335938 Z " fill="rgb(0, 0, 0)" fill-opacity="1.000000" />
<path d="M 244.892578 163.335938 L 244.892578 162.412109 L 251.729980 162.412109 L 251.729980 163.335938 Z " fill="rgb(0, 0, 0)" fill-opacity="1.000000" />
<path d="M 251.892578 163.335938 L 251.892578 162.412109 L 258.729980 162.412109 L 258.729980 163.335938 Z " fill="rgb(0, 0, 0)" fill-opacity="1.000000" />
<path d="M 258.892578 163.335938 L 258.892578 162.412109 L 265.729980 162.412109 L 265.729980 163.335938 Z " fill="rgb(0, 0, 0)" fill-opacity="1.000000" />
<path d="M 265.892578 163.335938 L 265.892578 162.412109 L 272.729980 162.412109 L 272.729980 163.335938 Z " fill="rgb(0, 0, 0)" fill-opacity="1.000000" />
<path d="M 272.892578 163.335938 L 272.892578 162.412109 L 279.729980 162.412109 L 279.729980 163.335938 Z " fill="rgb(0, 0, 0)" fill-opacity="1.000000" />
<path d="M 279.892578 163.335938 L 279.892578 162.412109 L 286.729980 162.412109 L 286.729980 163.335938 Z " fill="rgb(0, 0, 0)" fill-opacity="1.000000" />
<path d="M 286.892578 163.335938 L 286.892578 162.412109 L 293.729980 162.412109 L 293.729980 163.335938 Z " fill="rgb(0, 0, 0)" fill-opacity="1.000000" />
<path d="M 293.892578 163.335938 L 293.892578 162.412109 L 300.729980 162.412109 L 300.729980 163.335938 Z " fill="rgb(0, 0, 0)" fill-opacity="1.000000" />
<path d="M 300.892578 163.335938 L 300.892578 162.412109 L 307.729980 162.412109 L 307.729980 163.335938 Z " fill="rgb(0, 0, 0)" fill-opacity="1.000000" />
<path d="M 307.892578 163.335938 L 307.892578 162.412109 L 314.729980 162.412109 L 314.729980 163.335938 Z " fill="rgb(0, 0, 0)" fill-opacity="1.000000" />
<path d="M 314.892578 163.335938 L 314.892578 162.412109 L 321.729980 162.412109 L 321.729980 163.335938 Z " fill="rgb(0, 0, 0)" fill-opacity="1.000000" />
<path d="M 321.892578 163.335938 L 321.892578 162.412109 L 328.729980 162.412109 L 328.729980 163.335938 Z " fill="rgb(0, 0, 0)" fill-opacity="1.000000" />
<path d="M 328.892578 163.335938 L 328.892578 162.412109 L 335.729980 162.412109 L 335.729980 163.335938 Z " fill="rgb(0, 0, 0)" fill-opacity="1.000000" />
<path d="M 335.892578 163.335938 L 335.892578 162.412109 L 342.729980 162.412109 L 342.729980 163.335938 Z " fill="rgb(0, 0, 0)" fill-opacity="1.000000" />
<path d="M 342.892578 163.335938 L 342.892578 162.412109 L 349.729980 162.412109 L 349.729980 163.335938 Z " fill="rgb(0, 0, 0)" fill-opacity="1.000000" />
<path d="M 349.892578 163.335938 L 349.892578 162.412109 L 356.729980 162.412109 L 356.729980 163.335938 Z " fill="rgb(0, 0, 0)" fill-opacity="1.000000" />
<path d="M 356.892578 163.335938 L 356.892578 162.412109 L 359.878906 162.412109 L 359.878906 155.300781 L 360.738281 155.300781 L 360.738281 163.335938 Z " fill="rgb(0, 0, 0)" fill-opacity="1.000000" />
<path d="M 16.878906 26.319336 L 16.878906 19.412109 L 20.729980 19.412109 L 20.729980 20.335938 L 17.738281 20.335938 L 17.738281 26.319336 Z " fill="rgb(0, 0, 0)" fill-opacity="1.000000" />
<path d="M 16.878906 39.319336 L 16.878906 25.300781 L 17.738281 25.300781 L 17.738281 39.319336 Z " fill="rgb(0, 0, 0)" fill-opacity="1.000000" />
<path d="M 16.878906 46.335938 L 16.878906 38.300781 L 17.738281 38.300781 L 17.738281 45.412109 L 20.729980 45.412109 L 20.729980 46.335938 Z " fill="rgb(0, 0, 0)" fill-opacity="1.000000" />
<path d="M 16.878906 130.319336 L 16.878906 123.412109 L 20.729980 123.412109 L 20.729980 124.335938 L 17.738281 124.335938 L 17.738281 130.319336 Z " fill="rgb(0, 0, 0)" fill-opacity="1.000000" />
<path d="M 16.878906 143.319336 L 16.878906 129.300781 L 17.738281 129.300781 L 17.738281 143.319336 Z " fill="rgb(0, 0, 0)" fill-opacity="1.000000" />
<path d="M 16.878906 150.335938 L 16.878906 142.300781 L 17.738281 142.300781 L 17.738281 149.412109 L 20.729980 149.412109 L 20.729980 150.335938 Z " fill="rgb(0, 0, 0)" fill-opacity="1.000000" />
<path d="M 20.892578 150.335938 L 20.892578 149.412109 L 27.729980 149.412109 L 27.729980 150.335938 Z " fill="rgb(0, 0, 0)" fill-opacity="1.000000" />
<path d="M 27.892578 150.335938 L 27.892578 149.412109 L 34.729980 149.412109 L 34.729980 150.335938 Z " fill="rgb(0, 0, 0)" fill-opacity="1.000000" />
<path d="M 34.892578 150.335938 L 34.892578 149.412109 L 41.729980 149.412109 L 41.729980 150.335938 Z " fill="rgb(0, 0, 0)" fill-opacity="1.000000" />
<path d="M 41.892578 150.335938 L 41.892578 149.412109 L 48.729980 149.412109 L 48.729980 150.335938 Z " fill="rgb(0, 0, 0)" fill-opacity="1.000000" />
<path d="M 48.892578 150.335938 L 48.892578 149.412109 L 55.729980 149.412109 L 55.729980 150.335938 Z " fill="rgb(0, 0, 0)" fill-opacity="1.000000" />
<path d="M 55.892578 150.335938 L 55.892578 149.412109 L 62.729980 149.412109 L 62.729980 150.335938 Z " fill="rgb(0, 0, 0)" fill-opacity="1.000000" />
<path d="M 62.892578 150.335938 L 62.892578 149.412109 L 69.729980 149.412109 L 69.729980 150.335938 Z " fill="rgb(0, 0, 0)" fill-opacity="1.000000" />
<path d="M 69.892578 150.335938 L 69.892578 149.412109 L 76.729980 149.412109 L 76.729980 150.335938 Z " fill="rgb(0, 0, 0)" fill-opacity="1.000000" />
<path d="M 76.892578 150.335938 L 76.892578 149.412109 L 83.729980 149.412109 L 83.729980 150.335938 Z " fill="rgb(0, 0, 0)" fill-opacity="1.000000" />
<path d="M 83.892578 150.335938 L 83.892578 149.412109 L 90.729980 149.412109 L 90.729980 150.335938 Z " fill="rgb(0, 0, 0)" fill-opacity="1.000000" />
<path d="M 90.892578 150.335938 L 90.892578 149.412109 L 97.729980 149.412109 L 97.729980 150.335938 Z " fill="rgb(0, 0, 0)" fill-opacity="1.000000" />
<path d="M 97.892578 150.335938 L 97.892578 149.412109 L 104.729980 149.412109 L 104.729980 150.335938 Z " fill="rgb(0, 0, 0)" fill-opacity="1.000000" />
<path d="M 104.892578 150.335938 L 104.892578 149.412109 L 111.729980 149.412109 L 111.729980 150.335938 Z " fill="rgb(0, 0, 0)" fill-opacity="1.000000" />
<path d="M 111.892578 150.335938 L 111.892578 149.412109 L 118.729980 149.412109 L 118.729980 150.335938 Z " fill="rgb(0, 0, 0)" fill-opacity="1.000000" />
<path d="M 118.892578 150.335938 L 118.892578 149.412109 L 121.878906 149.412109 L 121.878906 142.300781 L 122.738281 142.300781 L 122.738281 150.335938 Z " fill="rgb(0, 0, 0)" fill-opacity="1.000000" />
<path d="M 135.878906 156.319336 L 135.878906 142.300781 L 136.738281 142.300781 L 136.738281 156.319336 Z " fill="rgb(0, 0, 0)" fill-opacity="1.000000" />
<path d="M 226.878906 156.319336 L 226.878906 142.300781 L 227.738281 142.300781 L 227.738281 156.319336 Z " fill="rgb(0, 0, 0)" fill-opacity="1.000000" />
<path d="M 240.878906 150.335938 L 240.878906 142.300781 L 241.738281 142.300781 L 241.738281 149.412109 L 244.729980 149.412109 L 244.729980 150.335938 Z " fill="rgb(0, 0, 0)" fill-opacity="1.000000" />
<path d="M 244.892578 150.335938 L 244.892578 149.412109 L 251.729980 149.412109 L 251.729980 150.335938 Z " fill="rgb(0, 0, 0)" fill-opacity="1.000000" />
<path d="M 251.892578 150.335938 L 251.892578 149.412109 L 258.729980 149.412109 L 258.729980 150.335938 Z " fill="rgb(0, 0, 0)" fill-opacity="1.000000" />
<path d="M 258.892578 150.335938 L 258.892578 149.412109 L 265.729980 149.412109 L 265.729980 150.335938 Z " fill="rgb(0, 0, 0)" fill-opacity="1.000000" />
<path d="M 265.892578 150.335938 L 265.892578 149.412109 L 272.729980 149.412109 L 272.729980 150.335938 Z " fill="rgb(0, 0, 0)" fill-opacity="1.000000" />
<path d="M 272.892578 150.335938 L 272.892578 149.412109 L 279.729980 149.412109 L 279.729980 150.335938 Z " fill="rgb(0, 0, 0)" fill-opacity="1.000000" />
<path d="M 279.892578 150.335938 L 279.892578 149.412109 L 286.729980 149.412109 L 286.729980 150.335938 Z " fill="rgb(0, 0, 0)" fill-opacity="1.000000" />
<path d="M 286.892578 150.335938 L 286.892578 149.412109 L 293.729980 149.412109 L 293.729980 150.335938 Z " fill="rgb(0, 0, 0)" fill-opacity="1.000000" />
<path d="M 293.892578 150.335938 L 293.892578 149.412109 L 300.729980 149.412109 L 300.729980 150.335938 Z " fill="rgb(0, 0, 0)" fill-opacity="1.000000" />
<path d="M 300.892578 150.335938 L 300.892578 149.412109 L 307.729980 149.412109 L 307.729980 150.335938 Z " fill="rgb(0, 0, 0)" fill-opacity="1.000000" />
<path d="M 307.892578 150.335938 L 307.892578 149.412109 L 314.729980 149.412109 L 314.729980 150.335938 Z " fill="rgb(0, 0, 0)" fill-opacity="1.000000" />
<path d="M 314.892578 150.335938 L 314.892578 149.412109 L 321.729980 149.412109 L 321.729980 150.335938 Z " fill="rgb(0, 0, 0)" fill-opacity="1.000000" />
<path d="M 321.892578 150.335938 L 321.892578 149.412109 L 328.729980 149.412109 L 328.729980 150.335938 Z " fill="rgb(0, 0, 0)" fill-opacity="1.000000" />
<path d="M 328.892578 150.335938 L 328.892578 149.412109 L 335.729980 149.412109 L 335.729980 150.335938 Z " fill="rgb(0, 0, 0)" fill-opacity="1.000000" />
<path d="M 335.892578 150.335938 L 335.892578 149.412109 L 342.729980 149.412109 L 342.729980 150.335938 Z " fill="rgb(0, 0, 0)" fill-opacity="1.000000" />
<path d="M 342.892578 150.335938 L 342.892578 149.412109 L 345.878906 149.412109 L 345.878906 142.300781 L 346.738281 142.300781 L 346.738281 150.335938 Z " fill="rgb(0, 0, 0)" fill-opacity="1.000000" />
<path d="M 359.878906 156.319336 L 359.878906 142.300781 L 360.738281 142.300781 L 360.738281 156.319336 Z " fill="rgb(0, 0, 0)" fill-opacity="1.000000" />
<path d="M 39.082031 136.213379 Q 39.500977 136.320801 39.796387 136.618896 Q 40.091797 136.916992 40.532227 137.808594 L 41.622559 140.000000 L 40.457031 140.000000 L 39.500977 137.975098 Q 39.087402 137.110352 38.757080 136.860596 Q 38.426758 136.610840 37.895020 136.610840 L 36.858398 136.610840 L 36.858398 140.000000 L 35.768066 140.000000 L 35.768066 131.980957 L 38.002441 131.980957 Q 39.323730 131.980957 40.027344 132.577148 Q 40.730957 133.173340 40.730957 134.301270 Q 40.730957 135.096191 40.298584 135.598389 Q 39.866211 136.100586 39.082031 136.213379 Z M 36.858398 132.872559 L 36.858398 135.719238 L 38.045410 135.719238 Q 38.824219 135.719238 39.205566 135.370117 Q 39.586914 135.020996 39.586914 134.301270 Q 39.586914 133.608398 39.181396 133.240479 Q 38.775879 132.872559 38.002441 132.872559 Z " fill="rgb(0, 0, 0)" fill-opacity="1.000000" />
<path d="M 48.015625 136.498047 L 48.015625 136.981445 L 43.734863 136.981445 L 43.734863 137.013672 Q 43.691895 138.243652 44.204834 138.780762 Q 44.717773 139.317871 45.652344 139.317871 Q 46.125000 139.317871 46.640625 139.167480 Q 47.156250 139.017090 47.741699 138.710938 L 47.741699 139.693848 Q 47.177734 139.924805 46.654053 140.040283 Q 46.130371 140.155762 45.641602 140.155762 Q 44.239746 140.155762 43.450195 139.315186 Q 42.660645 138.474609 42.660645 136.997559 Q 42.660645 135.558105 43.434082 134.698730 Q 44.207520 133.839355 45.496582 133.839355 Q 46.645996 133.839355 47.309326 134.618164 Q 47.972656 135.396973 48.015625 136.498047 Z M 47.027344 136.208008 Q 46.962891 135.584961 46.573486 135.131104 Q 46.184082 134.677246 45.453613 134.677246 Q 44.739258 134.677246 44.277344 135.149902 Q 43.815430 135.622559 43.772461 136.213379 Z " fill="rgb(0, 0, 0)" fill-opacity="1.000000" />
<path d="M 51.014160 139.242676 L 51.014160 142.288086 L 50.020508 142.288086 L 50.020508 133.984375 L 51.014160 133.984375 L 51.014160 134.752441 Q 51.261230 134.306641 51.672119 134.072998 Q 52.083008 133.839355 52.620117 133.839355 Q 53.710449 133.839355 54.330811 134.682617 Q 54.951172 135.525879 54.951172 137.019043 Q 54.951172 138.485352 54.328125 139.320557 Q 53.705078 140.155762 52.620117 140.155762 Q 52.072266 140.155762 51.661377 139.922119 Q 51.250488 139.688477 51.014160 139.242676 Z M 53.914551 136.997559 Q 53.914551 135.848145 53.552002 135.262695 Q 53.189453 134.677246 52.475098 134.677246 Q 51.755371 134.677246 51.384766 135.265381 Q 51.014160 135.853516 51.014160 136.997559 Q 51.014160 138.136230 51.384766 138.727051 Q 51.755371 139.317871 52.475098 139.317871 Q 53.189453 139.317871 53.552002 138.732422 Q 53.914551 138.146973 53.914551 136.997559 Z " fill="rgb(0, 0, 0)" fill-opacity="1.000000" />
<path d="M 59.861816 137.824707 Q 59.861816 138.490723 60.106201 138.829102 Q 60.350586 139.167480 60.828613 139.167480 L 61.983398 139.167480 L 61.983398 140.000000 L 60.731934 140.000000 Q 59.845703 140.000000 59.359619 139.433350 Q 58.873535 138.866699 58.873535 137.824707 L 58.873535 132.383789 L 57.289062 132.383789 L 57.289062 131.610352 L 59.861816 131.610352 Z " fill="rgb(0, 0, 0)" fill-opacity="1.000000" />
<path d="M 64.697266 134.005859 L 67.227051 134.005859 L 67.227051 139.231934 L 69.187500 139.231934 L 69.187500 140.000000 L 64.278320 140.000000 L 64.278320 139.231934 L 66.238770 139.231934 L 66.238770 134.773926 L 64.697266 134.773926 Z M 66.238770 131.669434 L 67.227051 131.669434 L 67.227051 132.915527 L 66.238770 132.915527 Z " fill="rgb(0, 0, 0)" fill-opacity="1.000000" />
<path d="M 75.698730 139.693848 Q 75.301270 139.924805 74.879639 140.040283 Q 74.458008 140.155762 74.017578 140.155762 Q 72.621094 140.155762 71.834229 139.317871 Q 71.047363 138.479980 71.047363 136.997559 Q 71.047363 135.515137 71.834229 134.677246 Q 72.621094 133.839355 74.017578 133.839355 Q 74.452637 133.839355 74.866211 133.952148 Q 75.279785 134.064941 75.698730 134.301270 L 75.698730 135.337891 Q 75.306641 134.988770 74.911865 134.833008 Q 74.517090 134.677246 74.017578 134.677246 Q 73.088379 134.677246 72.588867 135.278809 Q 72.089355 135.880371 72.089355 136.997559 Q 72.089355 138.109375 72.591553 138.713623 Q 73.093750 139.317871 74.017578 139.317871 Q 74.533203 139.317871 74.941406 139.159424 Q 75.349609 139.000977 75.698730 138.667969 Z " fill="rgb(0, 0, 0)" fill-opacity="1.000000" />
<path d="M 80.770508 136.976074 L 80.442871 136.976074 Q 79.578125 136.976074 79.140381 137.279541 Q 78.702637 137.583008 78.702637 138.184570 Q 78.702637 138.727051 79.030273 139.027832 Q 79.357910 139.328613 79.937988 139.328613 Q 80.754395 139.328613 81.221680 138.761963 Q 81.688965 138.195312 81.694336 137.196289 L 81.694336 136.976074 Z M 82.687988 136.567871 L 82.687988 140.000000 L 81.694336 140.000000 L 81.694336 139.108398 Q 81.377441 139.645508 80.896729 139.900635 Q 80.416016 140.155762 79.728516 140.155762 Q 78.810059 140.155762 78.262207 139.637451 Q 77.714355 139.119141 77.714355 138.249023 Q 77.714355 137.244629 78.388428 136.723633 Q 79.062500 136.202637 80.367676 136.202637 L 81.694336 136.202637 L 81.694336 136.046875 Q 81.688965 135.327148 81.329102 135.002197 Q 80.969238 134.677246 80.179688 134.677246 Q 79.674805 134.677246 79.159180 134.822266 Q 78.643555 134.967285 78.154785 135.246582 L 78.154785 134.258301 Q 78.702637 134.048828 79.204834 133.944092 Q 79.707031 133.839355 80.179688 133.839355 Q 80.926270 133.839355 81.455322 134.059570 Q 81.984375 134.279785 82.312012 134.720215 Q 82.516113 134.988770 82.602051 135.383545 Q 82.687988 135.778320 82.687988 136.567871 Z " fill="rgb(0, 0, 0)" fill-opacity="1.000000" />
<path d="M 87.297852 132.276367 L 87.297852 133.984375 L 89.542969 133.984375 L 89.542969 134.752441 L 87.297852 134.752441 L 87.297852 138.018066 Q 87.297852 138.684082 87.550293 138.947266 Q 87.802734 139.210449 88.431152 139.210449 L 89.542969 139.210449 L 89.542969 140.000000 L 88.334473 140.000000 Q 87.222656 140.000000 86.766113 139.554199 Q 86.309570 139.108398 86.309570 138.018066 L 86.309570 134.752441 L 84.703613 134.752441 L 84.703613 133.984375 L 86.309570 133.984375 L 86.309570 132.276367 Z " fill="rgb(0, 0, 0)" fill-opacity="1.000000" />
<path d="M 94.308594 134.677246 Q 93.556641 134.677246 93.169922 135.262695 Q 92.783203 135.848145 92.783203 136.997559 Q 92.783203 138.141602 93.169922 138.729736 Q 93.556641 139.317871 94.308594 139.317871 Q 95.065918 139.317871 95.452637 138.729736 Q 95.839355 138.141602 95.839355 136.997559 Q 95.839355 135.848145 95.452637 135.262695 Q 95.065918 134.677246 94.308594 134.677246 Z M 94.308594 133.839355 Q 95.560059 133.839355 96.223389 134.650391 Q 96.886719 135.461426 96.886719 136.997559 Q 96.886719 138.539062 96.226074 139.347412 Q 95.565430 140.155762 94.308594 140.155762 Q 93.057129 140.155762 92.396484 139.347412 Q 91.735840 138.539062 91.735840 136.997559 Q 91.735840 135.461426 92.396484 134.650391 Q 93.057129 133.839355 94.308594 133.839355 Z " fill="rgb(0, 0, 0)" fill-opacity="1.000000" />
<path d="M 104.203613 135.225098 Q 103.886719 134.978027 103.559082 134.865234 Q 103.231445 134.752441 102.839355 134.752441 Q 101.915527 134.752441 101.426758 135.332520 Q 100.937988 135.912598 100.937988 137.008301 L 100.937988 140.000000 L 99.944336 140.000000 L 99.944336 133.984375 L 100.937988 133.984375 L 100.937988 135.160645 Q 101.185059 134.521484 101.697998 134.180420 Q 102.210938 133.839355 102.914551 133.839355 Q 103.279785 133.839355 103.596680 133.930664 Q 103.913574 134.021973 104.203613 134.215332 Z " fill="rgb(0, 0, 0)" fill-opacity="1.000000" />
<path d="M 121.878906 143.319336 L 121.878906 129.300781 L 122.738281 129.300781 L 122.738281 143.319336 Z " fill="rgb(0, 0, 0)" fill-opacity="1.000000" />
<path d="M 125.892578 137.335938 L 125.892578 136.412109 L 132.729980 136.412109 L 132.729980 137.335938 Z " fill="rgb(0, 0, 0)" fill-opacity="1.000000" />
<path d="M 135.878906 143.319336 L 135.878906 129.300781 L 136.738281 129.300781 L 136.738281 143.319336 Z " fill="rgb(0, 0, 0)" fill-opacity="1.000000" />
<path d="M 139.892578 137.335938 L 139.892578 136.412109 L 146.729980 136.412109 L 146.729980 137.335938 Z " fill="rgb(0, 0, 0)" fill-opacity="1.000000" />
<path d="M 153.892578 137.335938 L 153.892578 136.412109 L 160.729980 136.412109 L 160.729980 137.335938 Z " fill="rgb(0, 0, 0)" fill-opacity="1.000000" />
<path d="M 167.892578 137.335938 L 167.892578 136.412109 L 174.729980 136.412109 L 174.729980 137.335938 Z " fill="rgb(0, 0, 0)" fill-opacity="1.000000" />
<path d="M 181.892578 137.335938 L 181.892578 136.412109 L 188.729980 136.412109 L 188.729980 137.335938 Z " fill="rgb(0, 0, 0)" fill-opacity="1.000000" />
<path d="M 195.892578 137.335938 L 195.892578 136.412109 L 202.729980 136.412109 L 202.729980 137.335938 Z " fill="rgb(0, 0, 0)" fill-opacity="1.000000" />
<path d="M 209.892578 137.335938 L 209.892578 136.412109 L 216.729980 136.412109 L 216.729980 137.335938 Z " fill="rgb(0, 0, 0)" fill-opacity="1.000000" />
<path d="M 227.738281 137.335938 L 227.738281 143.319336 L 226.878906 143.319336 L 226.878906 137.335938 L 223.892578 137.335938 L 223.892578 136.412109 L 226.878906 136.412109 L 226.878906 129.300781 L 227.738281 129.300781 L 227.738281 136.412109 L 230.729980 136.412109 L 230.729980 137.335938 Z " fill="rgb(0, 0, 0)" fill-opacity="1.000000" />
<path d="M 231.032227 140.418945 L 231.032227 133.866211 L 237.590332 137.142578 Z " fill="rgb(0, 0, 0)" fill-opacity="1.000000" />
<path d="M 240.878906 143.319336 L 240.878906 129.300781 L 241.738281 129.300781 L 241.738281 143.319336 Z " fill="rgb(0, 0, 0)" fill-opacity="1.000000" />
<path d="M 263.082031 136.213379 Q 263.500977 136.320801 263.796387 136.618896 Q 264.091797 136.916992 264.532227 137.808594 L 265.622559 140.000000 L 264.457031 140.000000 L 263.500977 137.975098 Q 263.087402 137.110352 262.757080 136.860596 Q 262.426758 136.610840 261.895020 136.610840 L 260.858398 136.610840 L 260.858398 140.000000 L 259.768066 140.000000 L 259.768066 131.980957 L 262.002441 131.980957 Q 263.323730 131.980957 264.027344 132.577148 Q 264.730957 133.173340 264.730957 134.301270 Q 264.730957 135.096191 264.298584 135.598389 Q 263.866211 136.100586 263.082031 136.213379 Z M 260.858398 132.872559 L 260.858398 135.719238 L 262.045410 135.719238 Q 262.824219 135.719238 263.205566 135.370117 Q 263.586914 135.020996 263.586914 134.301270 Q 263.586914 133.608398 263.181396 133.240479 Q 262.775879 132.872559 262.002441 132.872559 Z " fill="rgb(0, 0, 0)" fill-opacity="1.000000" />
<path d="M 272.015625 136.498047 L 272.015625 136.981445 L 267.734863 136.981445 L 267.734863 137.013672 Q 267.691895 138.243652 268.204834 138.780762 Q 268.717773 139.317871 269.652344 139.317871 Q 270.125000 139.317871 270.640625 139.167480 Q 271.156250 139.017090 271.741699 138.710938 L 271.741699 139.693848 Q 271.177734 139.924805 270.654053 140.040283 Q 270.130371 140.155762 269.641602 140.155762 Q 268.239746 140.155762 267.450195 139.315186 Q 266.660645 138.474609 266.660645 136.997559 Q 266.660645 135.558105 267.434082 134.698730 Q 268.207520 133.839355 269.496582 133.839355 Q 270.645996 133.839355 271.309326 134.618164 Q 271.972656 135.396973 272.015625 136.498047 Z M 271.027344 136.208008 Q 270.962891 135.584961 270.573486 135.131104 Q 270.184082 134.677246 269.453613 134.677246 Q 268.739258 134.677246 268.277344 135.149902 Q 267.815430 135.622559 267.772461 136.213379 Z " fill="rgb(0, 0, 0)" fill-opacity="1.000000" />
<path d="M 275.014160 139.242676 L 275.014160 142.288086 L 274.020508 142.288086 L 274.020508 133.984375 L 275.014160 133.984375 L 275.014160 134.752441 Q 275.261230 134.306641 275.672119 134.072998 Q 276.083008 133.839355 276.620117 133.839355 Q 277.710449 133.839355 278.330811 134.682617 Q 278.951172 135.525879 278.951172 137.019043 Q 278.951172 138.485352 278.328125 139.320557 Q 277.705078 140.155762 276.620117 140.155762 Q 276.072266 140.155762 275.661377 139.922119 Q 275.250488 139.688477 275.014160 139.242676 Z M 277.914551 136.997559 Q 277.914551 135.848145 277.552002 135.262695 Q 277.189453 134.677246 276.475098 134.677246 Q 275.755371 134.677246 275.384766 135.265381 Q 275.014160 135.853516 275.014160 136.997559 Q 275.014160 138.136230 275.384766 138.727051 Q 275.755371 139.317871 276.475098 139.317871 Q 277.189453 139.317871 277.552002 138.732422 Q 277.914551 138.146973 277.914551 136.997559 Z " fill="rgb(0, 0, 0)" fill-opacity="1.000000" />
<path d="M 283.861816 137.824707 Q 283.861816 138.490723 284.106201 138.829102 Q 284.350586 139.167480 284.828613 139.167480 L 285.983398 139.167480 L 285.983398 140.000000 L 284.731934 140.000000 Q 283.845703 140.000000 283.359619 139.433350 Q 282.873535 138.866699 282.873535 137.824707 L 282.873535 132.383789 L 281.289062 132.383789 L 281.289062 131.610352 L 283.861816 131.610352 Z " fill="rgb(0, 0, 0)" fill-opacity="1.000000" />
<path d="M 288.697266 134.005859 L 291.227051 134.005859 L 291.227051 139.231934 L 293.187500 139.231934 L 293.187500 140.000000 L 288.278320 140.000000 L 288.278320 139.231934 L 290.238770 139.231934 L 290.238770 134.773926 L 288.697266 134.773926 Z M 290.238770 131.669434 L 291.227051 131.669434 L 291.227051 132.915527 L 290.238770 132.915527 Z " fill="rgb(0, 0, 0)" fill-opacity="1.000000" />
<path d="M 299.698730 139.693848 Q 299.301270 139.924805 298.879639 140.040283 Q 298.458008 140.155762 298.017578 140.155762 Q 296.621094 140.155762 295.834229 139.317871 Q 295.047363 138.479980 295.047363 136.997559 Q 295.047363 135.515137 295.834229 134.677246 Q 296.621094 133.839355 298.017578 133.839355 Q 298.452637 133.839355 298.866211 133.952148 Q 299.279785 134.064941 299.698730 134.301270 L 299.698730 135.337891 Q 299.306641 134.988770 298.911865 134.833008 Q 298.517090 134.677246 298.017578 134.677246 Q 297.088379 134.677246 296.588867 135.278809 Q 296.089355 135.880371 296.089355 136.997559 Q 296.089355 138.109375 296.591553 138.713623 Q 297.093750 139.317871 298.017578 139.317871 Q 298.533203 139.317871 298.941406 139.159424 Q 299.349609 139.000977 299.698730 138.667969 Z " fill="rgb(0, 0, 0)" fill-opacity="1.000000" />
<path d="M 304.770508 136.976074 L 304.442871 136.976074 Q 303.578125 136.976074 303.140381 137.279541 Q 302.702637 137.583008 302.702637 138.184570 Q 302.702637 138.727051 303.030273 139.027832 Q 303.357910 139.328613 303.937988 139.328613 Q 304.754395 139.328613 305.221680 138.761963 Q 305.688965 138.195312 305.694336 137.196289 L 305.694336 136.976074 Z M 306.687988 136.567871 L 306.687988 140.000000 L 305.694336 140.000000 L 305.694336 139.108398 Q 305.377441 139.645508 304.896729 139.900635 Q 304.416016 140.155762 303.728516 140.155762 Q 302.810059 140.155762 302.262207 139.637451 Q 301.714355 139.119141 301.714355 138.249023 Q 301.714355 137.244629 302.388428 136.723633 Q 303.062500 136.202637 304.367676 136.202637 L 305.694336 136.202637 L 305.694336 136.046875 Q 305.688965 135.327148 305.329102 135.002197 Q 304.969238 134.677246 304.179688 134.677246 Q 303.674805 134.677246 303.159180 134.822266 Q 302.643555 134.967285 302.154785 135.246582 L 302.154785 134.258301 Q 302.702637 134.048828 303.204834 133.944092 Q 303.707031 133.839355 304.179688 133.839355 Q 304.926270 133.839355 305.455322 134.059570 Q 305.984375 134.279785 306.312012 134.720215 Q 306.516113 134.988770 306.602051 135.383545 Q 306.687988 135.778320 306.687988 136.567871 Z " fill="rgb(0, 0, 0)" fill-opacity="1.000000" />
<path d="M 311.297852 132.276367 L 311.297852 133.984375 L 313.542969 133.984375 L 313.542969 134.752441 L 311.297852 134.752441 L 311.297852 138.018066 Q 311.297852 138.684082 311.550293 138.947266 Q 311.802734 139.210449 312.431152 139.210449 L 313.542969 139.210449 L 313.542969 140.000000 L 312.334473 140.000000 Q 311.222656 140.000000 310.766113 139.554199 Q 310.309570 139.108398 310.309570 138.018066 L 310.309570 134.752441 L 308.703613 134.752441 L 308.703613 133.984375 L 310.309570 133.984375 L 310.309570 132.276367 Z " fill="rgb(0, 0, 0)" fill-opacity="1.000000" />
<path d="M 318.308594 134.677246 Q 317.556641 134.677246 317.169922 135.262695 Q 316.783203 135.848145 316.783203 136.997559 Q 316.783203 138.141602 317.169922 138.729736 Q 317.556641 139.317871 318.308594 139.317871 Q 319.065918 139.317871 319.452637 138.729736 Q 319.839355 138.141602 319.839355 136.997559 Q 319.839355 135.848145 319.452637 135.262695 Q 319.065918 134.677246 318.308594 134.677246 Z M 318.308594 133.839355 Q 319.560059 133.839355 320.223389 134.650391 Q 320.886719 135.461426 320.886719 136.997559 Q 320.886719 138.539062 320.226074 139.347412 Q 319.565430 140.155762 318.308594 140.155762 Q 317.057129 140.155762 316.396484 139.347412 Q 315.735840 138.539062 315.735840 136.997559 Q 315.735840 135.461426 316.396484 134.650391 Q 317.057129 133.839355 318.308594 133.839355 Z " fill="rgb(0, 0, 0)" fill-opacity="1.000000" />
<path d="M 328.203613 135.225098 Q 327.886719 134.978027 327.559082 134.865234 Q 327.231445 134.752441 326.839355 134.752441 Q 325.915527 134.752441 325.426758 135.332520 Q 324.937988 135.912598 324.937988 137.008301 L 324.937988 140.000000 L 323.944336 140.000000 L 323.944336 133.984375 L 324.937988 133.984375 L 324.937988 135.160645 Q 325.185059 134.521484 325.697998 134.180420 Q 326.210938 133.839355 326.914551 133.839355 Q 327.279785 133.839355 327.596680 133.930664 Q 327.913574 134.021973 328.203613 134.215332 Z " fill="rgb(0, 0, 0)" fill-opacity="1.000000" />
<path d="M 345.878906 143.319336 L 345.878906 129.300781 L 346.738281 129.300781 L 346.738281 143.319336 Z " fill="rgb(0, 0, 0)" fill-opacity="1.000000" />
<path d="M 359.878906 143.319336 L 359.878906 129.300781 L 360.738281 129.300781 L 360.738281 143.319336 Z " fill="rgb(0, 0, 0)" fill-opacity="1.000000" />
<path d="M 20.892578 124.335938 L 20.892578 123.412109 L 27.729980 123.412109 L 27.729980 124.335938 Z " fill="rgb(0, 0, 0)" fill-opacity="1.000000" />
<path d="M 27.892578 124.335938 L 27.892578 123.412109 L 34.729980 123.412109 L 34.729980 124.335938 Z " fill="rgb(0, 0, 0)" fill-opacity="1.000000" />
<path d="M 34.892578 124.335938 L 34.892578 123.412109 L 41.729980 123.412109 L 41.729980 124.335938 Z " fill="rgb(0, 0, 0)" fill-opacity="1.000000" />
<path d="M 41.892578 124.335938 L 41.892578 123.412109 L 48.729980 123.412109 L 48.729980 124.335938 Z " fill="rgb(0, 0, 0)" fill-opacity="1.000000" />
<path d="M 48.892578 124.335938 L 48.892578 123.412109 L 55.729980 123.412109 L 55.729980 124.335938 Z " fill="rgb(0, 0, 0)" fill-opacity="1.000000" />
<path d="M 55.892578 124.335938 L 55.892578 123.412109 L 62.729980 123.412109 L 62.729980 124.335938 Z " fill="rgb(0, 0, 0)" fill-opacity="1.000000" />
<path d="M 62.892578 124.335938 L 62.892578 123.412109 L 69.729980 123.412109 L 69.729980 124.335938 Z " fill="rgb(0, 0, 0)" fill-opacity="1.000000" />
<path d="M 69.892578 124.335938 L 69.892578 123.412109 L 76.729980 123.412109 L 76.729980 124.335938 Z " fill="rgb(0, 0, 0)" fill-opacity="1.000000" />
<path d="M 76.892578 124.335938 L 76.892578 123.412109 L 83.729980 123.412109 L 83.729980 124.335938 Z " fill="rgb(0, 0, 0)" fill-opacity="1.000000" />
<path d="M 83.892578 124.335938 L 83.892578 123.412109 L 90.729980 123.412109 L 90.729980 124.335938 Z " fill="rgb(0, 0, 0)" fill-opacity="1.000000" />
<path d="M 90.892578 124.335938 L 90.892578 123.412109 L 97.729980 123.412109 L 97.729980 124.335938 Z " fill="rgb(0, 0, 0)" fill-opacity="1.000000" />
<path d="M 97.892578 124.335938 L 97.892578 123.412109 L 104.729980 123.412109 L 104.729980 124.335938 Z " fill="rgb(0, 0, 0)" fill-opacity="1.000000" />
<path d="M 104.892578 124.335938 L 104.892578 123.412109 L 111.729980 123.412109 L 111.729980 124.335938 Z " fill="rgb(0, 0, 0)" fill-opacity="1.000000" />
<path d="M 111.892578 124.335938 L 111.892578 123.412109 L 118.729980 123.412109 L 118.729980 124.335938 Z " fill="rgb(0, 0, 0)" fill-opacity="1.000000" />
<path d="M 121.878906 130.319336 L 121.878906 124.335938 L 118.892578 124.335938 L 118.892578 123.412109 L 122.738281 123.412109 L 122.738281 130.319336 Z " fill="rgb(0, 0, 0)" fill-opacity="1.000000" />
<path d="M 135.878906 130.319336 L 135.878906 116.300781 L 136.738281 116.300781 L 136.738281 130.319336 Z " fill="rgb(0, 0, 0)" fill-opacity="1.000000" />
<path d="M 166.929688 126.339355 Q 166.494629 126.742188 165.949463 126.948975 Q 165.404297 127.155762 164.770508 127.155762 Q 163.245117 127.155762 162.396484 126.062744 Q 161.547852 124.969727 161.547852 122.998535 Q 161.547852 121.032715 162.407227 119.934326 Q 163.266602 118.835938 164.797363 118.835938 Q 165.302246 118.835938 165.764160 118.978271 Q 166.226074 119.120605 166.655762 119.410645 L 166.655762 120.522461 Q 166.220703 120.108887 165.764160 119.912842 Q 165.307617 119.716797 164.797363 119.716797 Q 163.739258 119.716797 163.210205 120.535889 Q 162.681152 121.354980 162.681152 122.998535 Q 162.681152 124.668945 163.194092 125.471924 Q 163.707031 126.274902 164.770508 126.274902 Q 165.130371 126.274902 165.401611 126.191650 Q 165.672852 126.108398 165.893066 125.931152 L 165.893066 123.777344 L 164.727539 123.777344 L 164.727539 122.885742 L 166.929688 122.885742 Z " fill="rgb(0, 0, 0)" fill-opacity="1.000000" />
<path d="M 171.308594 121.677246 Q 170.556641 121.677246 170.169922 122.262695 Q 169.783203 122.848145 169.783203 123.997559 Q 169.783203 125.141602 170.169922 125.729736 Q 170.556641 126.317871 171.308594 126.317871 Q 172.065918 126.317871 172.452637 125.729736 Q 172.839355 125.141602 172.839355 123.997559 Q 172.839355 122.848145 172.452637 122.262695 Q 172.065918 121.677246 171.308594 121.677246 Z M 171.308594 120.839355 Q 172.560059 120.839355 173.223389 121.650391 Q 173.886719 122.461426 173.886719 123.997559 Q 173.886719 125.539062 173.226074 126.347412 Q 172.565430 127.155762 171.308594 127.155762 Q 170.057129 127.155762 169.396484 126.347412 Q 168.735840 125.539062 168.735840 123.997559 Q 168.735840 122.461426 169.396484 121.650391 Q 170.057129 120.839355 171.308594 120.839355 Z " fill="rgb(0, 0, 0)" fill-opacity="1.000000" />
<path d="M 180.226074 121.193848 L 180.226074 122.160645 Q 179.801758 121.913574 179.372070 121.790039 Q 178.942383 121.666504 178.496582 121.666504 Q 177.825195 121.666504 177.494873 121.884033 Q 177.164551 122.101562 177.164551 122.547363 Q 177.164551 122.950195 177.411621 123.148926 Q 177.658691 123.347656 178.641602 123.535645 L 179.039062 123.610840 Q 179.774902 123.750488 180.153564 124.169434 Q 180.532227 124.588379 180.532227 125.259766 Q 180.532227 126.151367 179.898438 126.653564 Q 179.264648 127.155762 178.136719 127.155762 Q 177.690918 127.155762 177.202148 127.061768 Q 176.713379 126.967773 176.144043 126.779785 L 176.144043 125.759277 Q 176.697266 126.043945 177.202148 126.186279 Q 177.707031 126.328613 178.158203 126.328613 Q 178.813477 126.328613 179.173340 126.062744 Q 179.533203 125.796875 179.533203 125.318848 Q 179.533203 124.631348 178.217285 124.368164 L 178.174316 124.357422 L 177.803711 124.282227 Q 176.949707 124.115723 176.557617 123.720947 Q 176.165527 123.326172 176.165527 122.644043 Q 176.165527 121.779297 176.750977 121.309326 Q 177.336426 120.839355 178.421387 120.839355 Q 178.904785 120.839355 179.350586 120.927979 Q 179.796387 121.016602 180.226074 121.193848 Z " fill="rgb(0, 0, 0)" fill-opacity="1.000000" />
<path d="M 187.226074 121.193848 L 187.226074 122.160645 Q 186.801758 121.913574 186.372070 121.790039 Q 185.942383 121.666504 185.496582 121.666504 Q 184.825195 121.666504 184.494873 121.884033 Q 184.164551 122.101562 184.164551 122.547363 Q 184.164551 122.950195 184.411621 123.148926 Q 184.658691 123.347656 185.641602 123.535645 L 186.039062 123.610840 Q 186.774902 123.750488 187.153564 124.169434 Q 187.532227 124.588379 187.532227 125.259766 Q 187.532227 126.151367 186.898438 126.653564 Q 186.264648 127.155762 185.136719 127.155762 Q 184.690918 127.155762 184.202148 127.061768 Q 183.713379 126.967773 183.144043 126.779785 L 183.144043 125.759277 Q 183.697266 126.043945 184.202148 126.186279 Q 184.707031 126.328613 185.158203 126.328613 Q 185.813477 126.328613 186.173340 126.062744 Q 186.533203 125.796875 186.533203 125.318848 Q 186.533203 124.631348 185.217285 124.368164 L 185.174316 124.357422 L 184.803711 124.282227 Q 183.949707 124.115723 183.557617 123.720947 Q 183.165527 123.326172 183.165527 122.644043 Q 183.165527 121.779297 183.750977 121.309326 Q 184.336426 120.839355 185.421387 120.839355 Q 185.904785 120.839355 186.350586 120.927979 Q 186.796387 121.016602 187.226074 121.193848 Z " fill="rgb(0, 0, 0)" fill-opacity="1.000000" />
<path d="M 190.697266 121.005859 L 193.227051 121.005859 L 193.227051 126.231934 L 195.187500 126.231934 L 195.187500 127.000000 L 190.278320 127.000000 L 190.278320 126.231934 L 192.238770 126.231934 L 192.238770 121.773926 L 190.697266 121.773926 Z M 192.238770 118.669434 L 193.227051 118.669434 L 193.227051 119.915527 L 192.238770 119.915527 Z " fill="rgb(0, 0, 0)" fill-opacity="1.000000" />
<path d="M 198.014160 126.242676 L 198.014160 129.288086 L 197.020508 129.288086 L 197.020508 120.984375 L 198.014160 120.984375 L 198.014160 121.752441 Q 198.261230 121.306641 198.672119 121.072998 Q 199.083008 120.839355 199.620117 120.839355 Q 200.710449 120.839355 201.330811 121.682617 Q 201.951172 122.525879 201.951172 124.019043 Q 201.951172 125.485352 201.328125 126.320557 Q 200.705078 127.155762 199.620117 127.155762 Q 199.072266 127.155762 198.661377 126.922119 Q 198.250488 126.688477 198.014160 126.242676 Z M 200.914551 123.997559 Q 200.914551 122.848145 200.552002 122.262695 Q 200.189453 121.677246 199.475098 121.677246 Q 198.755371 121.677246 198.384766 122.265381 Q 198.014160 122.853516 198.014160 123.997559 Q 198.014160 125.136230 198.384766 125.727051 Q 198.755371 126.317871 199.475098 126.317871 Q 200.189453 126.317871 200.552002 125.732422 Q 200.914551 125.146973 200.914551 123.997559 Z " fill="rgb(0, 0, 0)" fill-opacity="1.000000" />
<path d="M 226.878906 130.319336 L 226.878906 116.300781 L 227.738281 116.300781 L 227.738281 130.319336 Z " fill="rgb(0, 0, 0)" fill-opacity="1.000000" />
<path d="M 240.878906 130.319336 L 240.878906 123.412109 L 244.729980 123.412109 L 244.729980 124.335938 L 241.738281 124.335938 L 241.738281 130.319336 Z " fill="rgb(0, 0, 0)" fill-opacity="1.000000" />
<path d="M 244.892578 124.335938 L 244.892578 123.412109 L 251.729980 123.412109 L 251.729980 124.335938 Z " fill="rgb(0, 0, 0)" fill-opacity="1.000000" />
<path d="M 251.892578 124.335938 L 251.892578 123.412109 L 258.729980 123.412109 L 258.729980 124.335938 Z " fill="rgb(0, 0, 0)" fill-opacity="1.000000" />
<path d="M 258.892578 124.335938 L 258.892578 123.412109 L 265.729980 123.412109 L 265.729980 124.335938 Z " fill="rgb(0, 0, 0)" fill-opacity="1.000000" />
<path d="M 265.892578 124.335938 L 265.892578 123.412109 L 272.729980 123.412109 L 272.729980 124.335938 Z " fill="rgb(0, 0, 0)" fill-opacity="1.000000" />
<path d="M 272.892578 124.335938 L 272.892578 123.412109 L 279.729980 123.412109 L 279.729980 124.335938 Z " fill="rgb(0, 0, 0)" fill-opacity="1.000000" />
<path d="M 279.892578 124.335938 L 279.892578 123.412109 L 286.729980 123.412109 L 286.729980 124.335938 Z " fill="rgb(0, 0, 0)" fill-opacity="1.000000" />
<path d="M 286.892578 124.335938 L 286.892578 123.412109 L 293.729980 123.412109 L 293.729980 124.335938 Z " fill="rgb(0, 0, 0)" fill-opacity="1.000000" />
<path d="M 293.892578 124.335938 L 293.892578 123.412109 L 300.729980 123.412109 L 300.729980 124.335938 Z " fill="rgb(0, 0, 0)" fill-opacity="1.000000" />
<path d="M 300.892578 124.335938 L 300.892578 123.412109 L 307.729980 123.412109 L 307.729980 124.335938 Z " fill="rgb(0, 0, 0)" fill-opacity="1.000000" />
<path d="M 307.892578 124.335938 L 307.892578 123.412109 L 314.729980 123.412109 L 314.729980 124.335938 Z " fill="rgb(0, 0, 0)" fill-opacity="1.000000" />
<path d="M 314.892578 124.335938 L 314.892578 123.412109 L 321.729980 123.412109 L 321.729980 124.335938 Z " fill="rgb(0, 0, 0)" fill-opacity="1.000000" />
<path d="M 321.892578 124.335938 L 321.892578 123.412109 L 328.729980 123.412109 L 328.729980 124.335938 Z " fill="rgb(0, 0, 0)" fill-opacity="1.000000" />
<path d="M 328.892578 124.335938 L 328.892578 123.412109 L 335.729980 123.412109 L 335.729980 124.335938 Z " fill="rgb(0, 0, 0)" fill-opacity="1.000000" />
<path d="M 335.892578 124.335938 L 335.892578 123.412109 L 342.729980 123.412109 L 342.729980 124.335938 Z " fill="rgb(0, 0, 0)" fill-opacity="1.000000" />
<path d="M 345.878906 130.319336 L 345.878906 124.335938 L 342.892578 124.335938 L 342.892578 123.412109 L 346.738281 123.412109 L 346.738281 130.319336 Z " fill="rgb(0, 0, 0)" fill-opacity="1.000000" />
<path d="M 359.878906 130.319336 L 359.878906 116.300781 L 360.738281 116.300781 L 360.738281 130.319336 Z " fill="rgb(0, 0, 0)" fill-opacity="1.000000" />
<path d="M 49.789551 84.922363 L 49.789551 79.980957 L 50.879883 79.980957 L 50.879883 85.416504 Q 50.879883 86.001953 50.912109 86.251709 Q 50.944336 86.501465 51.024902 86.635742 Q 51.196777 86.952637 51.521729 87.113770 Q 51.846680 87.274902 52.308594 87.274902 Q 52.775879 87.274902 53.098145 87.113770 Q 53.420410 86.952637 53.597656 86.635742 Q 53.678223 86.501465 53.710449 86.254395 Q 53.742676 86.007324 53.742676 85.427246 L 53.742676 79.980957 L 54.827637 79.980957 L 54.827637 84.922363 Q 54.827637 86.152344 54.674561 86.670654 Q 54.521484 87.188965 54.145508 87.527344 Q 53.791016 87.844238 53.334473 88.000000 Q 52.877930 88.155762 52.308594 88.155762 Q 51.744629 88.155762 51.288086 88.000000 Q 50.831543 87.844238 50.471680 87.527344 Q 50.101074 87.194336 49.945312 86.665283 Q 49.789551 86.136230 49.789551 84.922363 Z " fill="rgb(0, 0, 0)" fill-opacity="1.000000" />
<path d="M 72.878906 104.319336 L 72.878906 90.300781 L 73.738281 90.300781 L 73.738281 104.319336 Z " fill="rgb(0, 0, 0)" fill-opacity="1.000000" />
<path d="M 73.308594 114.418945 L 70.032227 107.866211 L 76.590332 107.866211 Z " fill="rgb(0, 0, 0)" fill-opacity="1.000000" />
<path d="M 135.878906 117.319336 L 135.878906 103.300781 L 136.738281 103.300781 L 136.738281 117.319336 Z " fill="rgb(0, 0, 0)" fill-opacity="1.000000" />
<path d="M 226.878906 117.319336 L 226.878906 103.300781 L 227.738281 103.300781 L 227.738281 117.319336 Z " fill="rgb(0, 0, 0)" fill-opacity="1.000000" />
<path d="M 296.878906 117.319336 L 296.878906 103.300781 L 297.738281 103.300781 L 297.738281 117.319336 Z " fill="rgb(0, 0, 0)" fill-opacity="1.000000" />
<path d="M 359.878906 117.319336 L 359.878906 103.300781 L 360.738281 103.300781 L 360.738281 117.319336 Z " fill="rgb(0, 0, 0)" fill-opacity="1.000000" />
<path d="M 135.878906 104.319336 L 135.878906 90.300781 L 136.738281 90.300781 L 136.738281 104.319336 Z " fill="rgb(0, 0, 0)" fill-opacity="1.000000" />
<path d="M 226.878906 104.319336 L 226.878906 90.300781 L 227.738281 90.300781 L 227.738281 104.319336 Z " fill="rgb(0, 0, 0)" fill-opacity="1.000000" />
<path d="M 296.878906 104.319336 L 296.878906 90.300781 L 297.738281 90.300781 L 297.738281 104.319336 Z " fill="rgb(0, 0, 0)" fill-opacity="1.000000" />
<path d="M 359.878906 104.319336 L 359.878906 90.300781 L 360.738281 90.300781 L 360.738281 104.319336 Z " fill="rgb(0, 0, 0)" fill-opacity="1.000000" />
<path d="M 58.014160 87.242676 L 58.014160 90.288086 L 57.020508 90.288086 L 57.020508 81.984375 L 58.014160 81.984375 L 58.014160 82.752441 Q 58.261230 82.306641 58.672119 82.072998 Q 59.083008 81.839355 59.620117 81.839355 Q 60.710449 81.839355 61.330811 82.682617 Q 61.951172 83.525879 61.951172 85.019043 Q 61.951172 86.485352 61.328125 87.320557 Q 60.705078 88.155762 59.620117 88.155762 Q 59.072266 88.155762 58.661377 87.922119 Q 58.250488 87.688477 58.014160 87.242676 Z M 60.914551 84.997559 Q 60.914551 83.848145 60.552002 83.262695 Q 60.189453 82.677246 59.475098 82.677246 Q 58.755371 82.677246 58.384766 83.265381 Q 58.014160 83.853516 58.014160 84.997559 Q 58.014160 86.136230 58.384766 86.727051 Q 58.755371 87.317871 59.475098 87.317871 Q 60.189453 87.317871 60.552002 86.732422 Q 60.914551 86.146973 60.914551 84.997559 Z " fill="rgb(0, 0, 0)" fill-opacity="1.000000" />
<path d="M 67.608398 82.752441 L 67.608398 79.642578 L 68.596680 79.642578 L 68.596680 88.000000 L 67.608398 88.000000 L 67.608398 87.242676 Q 67.361328 87.688477 66.950439 87.922119 Q 66.539551 88.155762 66.002441 88.155762 Q 64.912109 88.155762 64.286377 87.309814 Q 63.660645 86.463867 63.660645 84.976074 Q 63.660645 83.509766 64.289062 82.674561 Q 64.917480 81.839355 66.002441 81.839355 Q 66.544922 81.839355 66.958496 82.072998 Q 67.372070 82.306641 67.608398 82.752441 Z M 64.702637 84.997559 Q 64.702637 86.146973 65.067871 86.732422 Q 65.433105 87.317871 66.147461 87.317871 Q 66.861816 87.317871 67.235107 86.727051 Q 67.608398 86.136230 67.608398 84.997559 Q 67.608398 83.853516 67.235107 83.265381 Q 66.861816 82.677246 66.147461 82.677246 Q 65.433105 82.677246 65.067871 83.262695 Q 64.702637 83.848145 64.702637 84.997559 Z " fill="rgb(0, 0, 0)" fill-opacity="1.000000" />
<path d="M 73.770508 84.976074 L 73.442871 84.976074 Q 72.578125 84.976074 72.140381 85.279541 Q 71.702637 85.583008 71.702637 86.184570 Q 71.702637 86.727051 72.030273 87.027832 Q 72.357910 87.328613 72.937988 87.328613 Q 73.754395 87.328613 74.221680 86.761963 Q 74.688965 86.195312 74.694336 85.196289 L 74.694336 84.976074 Z M 75.687988 84.567871 L 75.687988 88.000000 L 74.694336 88.000000 L 74.694336 87.108398 Q 74.377441 87.645508 73.896729 87.900635 Q 73.416016 88.155762 72.728516 88.155762 Q 71.810059 88.155762 71.262207 87.637451 Q 70.714355 87.119141 70.714355 86.249023 Q 70.714355 85.244629 71.388428 84.723633 Q 72.062500 84.202637 73.367676 84.202637 L 74.694336 84.202637 L 74.694336 84.046875 Q 74.688965 83.327148 74.329102 83.002197 Q 73.969238 82.677246 73.179688 82.677246 Q 72.674805 82.677246 72.159180 82.822266 Q 71.643555 82.967285 71.154785 83.246582 L 71.154785 82.258301 Q 71.702637 82.048828 72.204834 81.944092 Q 72.707031 81.839355 73.179688 81.839355 Q 73.926270 81.839355 74.455322 82.059570 Q 74.984375 82.279785 75.312012 82.720215 Q 75.516113 82.988770 75.602051 83.383545 Q 75.687988 83.778320 75.687988 84.567871 Z " fill="rgb(0, 0, 0)" fill-opacity="1.000000" />
<path d="M 80.297852 80.276367 L 80.297852 81.984375 L 82.542969 81.984375 L 82.542969 82.752441 L 80.297852 82.752441 L 80.297852 86.018066 Q 80.297852 86.684082 80.550293 86.947266 Q 80.802734 87.210449 81.431152 87.210449 L 82.542969 87.210449 L 82.542969 88.000000 L 81.334473 88.000000 Q 80.222656 88.000000 79.766113 87.554199 Q 79.309570 87.108398 79.309570 86.018066 L 79.309570 82.752441 L 77.703613 82.752441 L 77.703613 81.984375 L 79.309570 81.984375 L 79.309570 80.276367 Z " fill="rgb(0, 0, 0)" fill-opacity="1.000000" />
<path d="M 90.015625 84.498047 L 90.015625 84.981445 L 85.734863 84.981445 L 85.734863 85.013672 Q 85.691895 86.243652 86.204834 86.780762 Q 86.717773 87.317871 87.652344 87.317871 Q 88.125000 87.317871 88.640625 87.167480 Q 89.156250 87.017090 89.741699 86.710938 L 89.741699 87.693848 Q 89.177734 87.924805 88.654053 88.040283 Q 88.130371 88.155762 87.641602 88.155762 Q 86.239746 88.155762 85.450195 87.315186 Q 84.660645 86.474609 84.660645 84.997559 Q 84.660645 83.558105 85.434082 82.698730 Q 86.207520 81.839355 87.496582 81.839355 Q 88.645996 81.839355 89.309326 82.618164 Q 89.972656 83.396973 90.015625 84.498047 Z M 89.027344 84.208008 Q 88.962891 83.584961 88.573486 83.131104 Q 88.184082 82.677246 87.453613 82.677246 Q 86.739258 82.677246 86.277344 83.149902 Q 85.815430 83.622559 85.772461 84.213379 Z " fill="rgb(0, 0, 0)" fill-opacity="1.000000" />
<path d="M 135.878906 91.319336 L 135.878906 77.300781 L 136.738281 77.300781 L 136.738281 91.319336 Z " fill="rgb(0, 0, 0)" fill-opacity="1.000000" />
<path d="M 226.878906 91.319336 L 226.878906 77.300781 L 227.738281 77.300781 L 227.738281 91.319336 Z " fill="rgb(0, 0, 0)" fill-opacity="1.000000" />
<path d="M 292.929688 87.339355 Q 292.494629 87.742188 291.949463 87.948975 Q 291.404297 88.155762 290.770508 88.155762 Q 289.245117 88.155762 288.396484 87.062744 Q 287.547852 85.969727 287.547852 83.998535 Q 287.547852 82.032715 288.407227 80.934326 Q 289.266602 79.835938 290.797363 79.835938 Q 291.302246 79.835938 291.764160 79.978271 Q 292.226074 80.120605 292.655762 80.410645 L 292.655762 81.522461 Q 292.220703 81.108887 291.764160 80.912842 Q 291.307617 80.716797 290.797363 80.716797 Q 289.739258 80.716797 289.210205 81.535889 Q 288.681152 82.354980 288.681152 83.998535 Q 288.681152 85.668945 289.194092 86.471924 Q 289.707031 87.274902 290.770508 87.274902 Q 291.130371 87.274902 291.401611 87.191650 Q 291.672852 87.108398 291.893066 86.931152 L 291.893066 84.777344 L 290.727539 84.777344 L 290.727539 83.885742 L 292.929688 83.885742 Z " fill="rgb(0, 0, 0)" fill-opacity="1.000000" />
<path d="M 300.015625 84.498047 L 300.015625 84.981445 L 295.734863 84.981445 L 295.734863 85.013672 Q 295.691895 86.243652 296.204834 86.780762 Q 296.717773 87.317871 297.652344 87.317871 Q 298.125000 87.317871 298.640625 87.167480 Q 299.156250 87.017090 299.741699 86.710938 L 299.741699 87.693848 Q 299.177734 87.924805 298.654053 88.040283 Q 298.130371 88.155762 297.641602 88.155762 Q 296.239746 88.155762 295.450195 87.315186 Q 294.660645 86.474609 294.660645 84.997559 Q 294.660645 83.558105 295.434082 82.698730 Q 296.207520 81.839355 297.496582 81.839355 Q 298.645996 81.839355 299.309326 82.618164 Q 299.972656 83.396973 300.015625 84.498047 Z M 299.027344 84.208008 Q 298.962891 83.584961 298.573486 83.131104 Q 298.184082 82.677246 297.453613 82.677246 Q 296.739258 82.677246 296.277344 83.149902 Q 295.815430 83.622559 295.772461 84.213379 Z " fill="rgb(0, 0, 0)" fill-opacity="1.000000" />
<path d="M 304.297852 80.276367 L 304.297852 81.984375 L 306.542969 81.984375 L 306.542969 82.752441 L 304.297852 82.752441 L 304.297852 86.018066 Q 304.297852 86.684082 304.550293 86.947266 Q 304.802734 87.210449 305.431152 87.210449 L 306.542969 87.210449 L 306.542969 88.000000 L 305.334473 88.000000 Q 304.222656 88.000000 303.766113 87.554199 Q 303.309570 87.108398 303.309570 86.018066 L 303.309570 82.752441 L 301.703613 82.752441 L 301.703613 81.984375 L 303.309570 81.984375 L 303.309570 80.276367 Z " fill="rgb(0, 0, 0)" fill-opacity="1.000000" />
<path d="M 359.878906 91.319336 L 359.878906 77.300781 L 360.738281 77.300781 L 360.738281 91.319336 Z " fill="rgb(0, 0, 0)" fill-opacity="1.000000" />
<path d="M 72.878906 65.319336 L 72.878906 51.300781 L 73.738281 51.300781 L 73.738281 65.319336 Z " fill="rgb(0, 0, 0)" fill-opacity="1.000000" />
<path d="M 72.878906 78.319336 L 72.878906 64.300781 L 73.738281 64.300781 L 73.738281 78.319336 Z " fill="rgb(0, 0, 0)" fill-opacity="1.000000" />
<path d="M 135.878906 65.319336 L 135.878906 51.300781 L 136.738281 51.300781 L 136.738281 65.319336 Z " fill="rgb(0, 0, 0)" fill-opacity="1.000000" />
<path d="M 135.878906 78.319336 L 135.878906 64.300781 L 136.738281 64.300781 L 136.738281 78.319336 Z " fill="rgb(0, 0, 0)" fill-opacity="1.000000" />
<path d="M 226.878906 65.319336 L 226.878906 51.300781 L 227.738281 51.300781 L 227.738281 65.319336 Z " fill="rgb(0, 0, 0)" fill-opacity="1.000000" />
<path d="M 226.878906 78.319336 L 226.878906 64.300781 L 227.738281 64.300781 L 227.738281 78.319336 Z " fill="rgb(0, 0, 0)" fill-opacity="1.000000" />
<path d="M 294.032227 62.418945 L 297.308594 55.866211 L 300.590332 62.418945 Z " fill="rgb(0, 0, 0)" fill-opacity="1.000000" />
<path d="M 296.878906 78.319336 L 296.878906 64.300781 L 297.738281 64.300781 L 297.738281 78.319336 Z " fill="rgb(0, 0, 0)" fill-opacity="1.000000" />
<path d="M 359.878906 78.319336 L 359.878906 64.300781 L 360.738281 64.300781 L 360.738281 78.319336 Z " fill="rgb(0, 0, 0)" fill-opacity="1.000000" />
<path d="M 359.878906 65.319336 L 359.878906 51.300781 L 360.738281 51.300781 L 360.738281 65.319336 Z " fill="rgb(0, 0, 0)" fill-opacity="1.000000" />
<path d="M 20.892578 46.335938 L 20.892578 45.412109 L 27.729980 45.412109 L 27.729980 46.335938 Z " fill="rgb(0, 0, 0)" fill-opacity="1.000000" />
<path d="M 27.892578 46.335938 L 27.892578 45.412109 L 34.729980 45.412109 L 34.729980 46.335938 Z " fill="rgb(0, 0, 0)" fill-opacity="1.000000" />
<path d="M 34.892578 46.335938 L 34.892578 45.412109 L 41.729980 45.412109 L 41.729980 46.335938 Z " fill="rgb(0, 0, 0)" fill-opacity="1.000000" />
<path d="M 41.892578 46.335938 L 41.892578 45.412109 L 48.729980 45.412109 L 48.729980 46.335938 Z " fill="rgb(0, 0, 0)" fill-opacity="1.000000" />
<path d="M 48.892578 46.335938 L 48.892578 45.412109 L 55.729980 45.412109 L 55.729980 46.335938 Z " fill="rgb(0, 0, 0)" fill-opacity="1.000000" />
<path d="M 55.892578 46.335938 L 55.892578 45.412109 L 62.729980 45.412109 L 62.729980 46.335938 Z " fill="rgb(0, 0, 0)" fill-opacity="1.000000" />
<path d="M 62.892578 46.335938 L 62.892578 45.412109 L 69.729980 45.412109 L 69.729980 46.335938 Z " fill="rgb(0, 0, 0)" fill-opacity="1.000000" />
<path d="M 69.892578 46.335938 L 69.892578 45.412109 L 76.729980 45.412109 L 76.729980 46.335938 Z " fill="rgb(0, 0, 0)" fill-opacity="1.000000" />
<path d="M 76.892578 46.335938 L 76.892578 45.412109 L 83.729980 45.412109 L 83.729980 46.335938 Z " fill="rgb(0, 0, 0)" fill-opacity="1.000000" />
<path d="M 83.892578 46.335938 L 83.892578 45.412109 L 90.729980 45.412109 L 90.729980 46.335938 Z " fill="rgb(0, 0, 0)" fill-opacity="1.000000" />
<path d="M 90.892578 46.335938 L 90.892578 45.412109 L 97.729980 45.412109 L 97.729980 46.335938 Z " fill="rgb(0, 0, 0)" fill-opacity="1.000000" />
<path d="M 97.892578 46.335938 L 97.892578 45.412109 L 104.729980 45.412109 L 104.729980 46.335938 Z " fill="rgb(0, 0, 0)" fill-opacity="1.000000" />
<path d="M 104.892578 46.335938 L 104.892578 45.412109 L 111.729980 45.412109 L 111.729980 46.335938 Z " fill="rgb(0, 0, 0)" fill-opacity="1.000000" />
<path d="M 111.892578 46.335938 L 111.892578 45.412109 L 118.729980 45.412109 L 118.729980 46.335938 Z " fill="rgb(0, 0, 0)" fill-opacity="1.000000" />
<path d="M 118.892578 46.335938 L 118.892578 45.412109 L 121.878906 45.412109 L 121.878906 38.300781 L 122.738281 38.300781 L 122.738281 46.335938 Z " fill="rgb(0, 0, 0)" fill-opacity="1.000000" />
<path d="M 135.878906 52.319336 L 135.878906 38.300781 L 136.738281 38.300781 L 136.738281 52.319336 Z " fill="rgb(0, 0, 0)" fill-opacity="1.000000" />
<path d="M 226.878906 52.319336 L 226.878906 38.300781 L 227.738281 38.300781 L 227.738281 52.319336 Z " fill="rgb(0, 0, 0)" fill-opacity="1.000000" />
<path d="M 240.878906 46.335938 L 240.878906 38.300781 L 241.738281 38.300781 L 241.738281 45.412109 L 244.729980 45.412109 L 244.729980 46.335938 Z " fill="rgb(0, 0, 0)" fill-opacity="1.000000" />
<path d="M 244.892578 46.335938 L 244.892578 45.412109 L 251.729980 45.412109 L 251.729980 46.335938 Z " fill="rgb(0, 0, 0)" fill-opacity="1.000000" />
<path d="M 251.892578 46.335938 L 251.892578 45.412109 L 258.729980 45.412109 L 258.729980 46.335938 Z " fill="rgb(0, 0, 0)" fill-opacity="1.000000" />
<path d="M 258.892578 46.335938 L 258.892578 45.412109 L 265.729980 45.412109 L 265.729980 46.335938 Z " fill="rgb(0, 0, 0)" fill-opacity="1.000000" />
<path d="M 265.892578 46.335938 L 265.892578 45.412109 L 272.729980 45.412109 L 272.729980 46.335938 Z " fill="rgb(0, 0, 0)" fill-opacity="1.000000" />
<path d="M 272.892578 46.335938 L 272.892578 45.412109 L 279.729980 45.412109 L 279.729980 46.335938 Z " fill="rgb(0, 0, 0)" fill-opacity="1.000000" />
<path d="M 279.892578 46.335938 L 279.892578 45.412109 L 286.729980 45.412109 L 286.729980 46.335938 Z " fill="rgb(0, 0, 0)" fill-opacity="1.000000" />
<path d="M 286.892578 46.335938 L 286.892578 45.412109 L 293.729980 45.412109 L 293.729980 46.335938 Z " fill="rgb(0, 0, 0)" fill-opacity="1.000000" />
<path d="M 293.892578 46.335938 L 293.892578 45.412109 L 300.729980 45.412109 L 300.729980 46.335938 Z " fill="rgb(0, 0, 0)" fill-opacity="1.000000" />
<path d="M 300.892578 46.335938 L 300.892578 45.412109 L 307.729980 45.412109 L 307.729980 46.335938 Z " fill="rgb(0, 0, 0)" fill-opacity="1.000000" />
<path d="M 307.892578 46.335938 L 307.892578 45.412109 L 314.729980 45.412109 L 314.729980 46.335938 Z " fill="rgb(0, 0, 0)" fill-opacity="1.000000" />
<path d="M 314.892578 46.335938 L 314.892578 45.412109 L 321.729980 45.412109 L 321.729980 46.335938 Z " fill="rgb(0, 0, 0)" fill-opacity="1.000000" />
<path d="M 321.892578 46.335938 L 321.892578 45.412109 L 328.729980 45.412109 L 328.729980 46.335938 Z " fill="rgb(0, 0, 0)" fill-opacity="1.000000" />
<path d="M 328.892578 46.335938 L 328.892578 45.412109 L 335.729980 45.412109 L 335.729980 46.335938 Z " fill="rgb(0, 0, 0)" fill-opacity="1.000000" />
<path d="M 335.892578 46.335938 L 335.892578 45.412109 L 342.729980 45.412109 L 342.729980 46.335938 Z " fill="rgb(0, 0, 0)" fill-opacity="1.000000" />
<path d="M 342.892578 46.335938 L 342.892578 45.412109 L 345.878906 45.412109 L 345.878906 38.300781 L 346.738281 38.300781 L 346.738281 46.335938 Z " fill="rgb(0, 0, 0)" fill-opacity="1.000000" />
<path d="M 359.878906 52.319336 L 359.878906 38.300781 L 360.738281 38.300781 L 360.738281 52.319336 Z " fill="rgb(0, 0, 0)" fill-opacity="1.000000" />
<path d="M 121.878906 39.319336 L 121.878906 25.300781 L 122.738281 25.300781 L 122.738281 39.319336 Z " fill="rgb(0, 0, 0)" fill-opacity="1.000000" />
<path d="M 135.878906 39.319336 L 135.878906 25.300781 L 136.738281 25.300781 L 136.738281 39.319336 Z " fill="rgb(0, 0, 0)" fill-opacity="1.000000" />
<path d="M 226.878906 39.319336 L 226.878906 25.300781 L 227.738281 25.300781 L 227.738281 39.319336 Z " fill="rgb(0, 0, 0)" fill-opacity="1.000000" />
<path d="M 240.878906 39.319336 L 240.878906 25.300781 L 241.738281 25.300781 L 241.738281 39.319336 Z " fill="rgb(0, 0, 0)" fill-opacity="1.000000" />
<path d="M 345.878906 39.319336 L 345.878906 25.300781 L 346.738281 25.300781 L 346.738281 39.319336 Z " fill="rgb(0, 0, 0)" fill-opacity="1.000000" />
<path d="M 359.878906 39.319336 L 359.878906 25.300781 L 360.738281 25.300781 L 360.738281 39.319336 Z " fill="rgb(0, 0, 0)" fill-opacity="1.000000" />
<path d="M 20.892578 20.335938 L 20.892578 19.412109 L 27.729980 19.412109 L 27.729980 20.335938 Z " fill="rgb(0, 0, 0)" fill-opacity="1.000000" />
<path d="M 27.892578 20.335938 L 27.892578 19.412109 L 34.729980 19.412109 L 34.729980 20.335938 Z " fill="rgb(0, 0, 0)" fill-opacity="1.000000" />
<path d="M 34.892578 20.335938 L 34.892578 19.412109 L 41.729980 19.412109 L 41.729980 20.335938 Z " fill="rgb(0, 0, 0)" fill-opacity="1.000000" />
<path d="M 41.892578 20.335938 L 41.892578 19.412109 L 48.729980 19.412109 L 48.729980 20.335938 Z " fill="rgb(0, 0, 0)" fill-opacity="1.000000" />
<path d="M 48.892578 20.335938 L 48.892578 19.412109 L 55.729980 19.412109 L 55.729980 20.335938 Z " fill="rgb(0, 0, 0)" fill-opacity="1.000000" />
<path d="M 55.892578 20.335938 L 55.892578 19.412109 L 62.729980 19.412109 L 62.729980 20.335938 Z " fill="rgb(0, 0, 0)" fill-opacity="1.000000" />
<path d="M 62.892578 20.335938 L 62.892578 19.412109 L 69.729980 19.412109 L 69.729980 20.335938 Z " fill="rgb(0, 0, 0)" fill-opacity="1.000000" />
<path d="M 69.892578 20.335938 L 69.892578 19.412109 L 76.729980 19.412109 L 76.729980 20.335938 Z " fill="rgb(0, 0, 0)" fill-opacity="1.000000" />
<path d="M 76.892578 20.335938 L 76.892578 19.412109 L 83.729980 19.412109 L 83.729980 20.335938 Z " fill="rgb(0, 0, 0)" fill-opacity="1.000000" />
<path d="M 83.892578 20.335938 L 83.892578 19.412109 L 90.729980 19.412109 L 90.729980 20.335938 Z " fill="rgb(0, 0, 0)" fill-opacity="1.000000" />
<path d="M 90.892578 20.335938 L 90.892578 19.412109 L 97.729980 19.412109 L 97.729980 20.335938 Z " fill="rgb(0, 0, 0)" fill-opacity="1.000000" />
<path d="M 97.892578 20.335938 L 97.892578 19.412109 L 104.729980 19.412109 L 104.729980 20.335938 Z " fill="rgb(0, 0, 0)" fill-opacity="1.000000" />
<path d="M 104.892578 20.335938 L 104.892578 19.412109 L 111.729980 19.412109 L 111.729980 20.335938 Z " fill="rgb(0, 0, 0)" fill-opacity="1.000000" />
<path d="M 111.892578 20.335938 L 111.892578 19.412109 L 118.729980 19.412109 L 118.729980 20.335938 Z " fill="rgb(0, 0, 0)" fill-opacity="1.000000" />
<path d="M 121.878906 26.319336 L 121.878906 20.335938 L 118.892578 20.335938 L 118.892578 19.412109 L 122.738281 19.412109 L 122.738281 26.319336 Z " fill="rgb(0, 0, 0)" fill-opacity="1.000000" />
<path d="M 135.878906 26.319336 L 135.878906 12.300781 L 136.738281 12.300781 L 136.738281 26.319336 Z " fill="rgb(0, 0, 0)" fill-opacity="1.000000" />
<path d="M 226.878906 26.319336 L 226.878906 12.300781 L 227.738281 12.300781 L 227.738281 26.319336 Z " fill="rgb(0, 0, 0)" fill-opacity="1.000000" />
<path d="M 240.878906 26.319336 L 240.878906 19.412109 L 244.729980 19.412109 L 244.729980 20.335938 L 241.738281 20.335938 L 241.738281 26.319336 Z " fill="rgb(0, 0, 0)" fill-opacity="1.000000" />
<path d="M 244.892578 20.335938 L 244.892578 19.412109 L 251.729980 19.412109 L 251.729980 20.335938 Z " fill="rgb(0, 0, 0)" fill-opacity="1.000000" />
<path d="M 251.892578 20.335938 L 251.892578 19.412109 L 258.729980 19.412109 L 258.729980 20.335938 Z " fill="rgb(0, 0, 0)" fill-opacity="1.000000" />
<path d="M 258.892578 20.335938 L 258.892578 19.412109 L 265.729980 19.412109 L 265.729980 20.335938 Z " fill="rgb(0, 0, 0)" fill-opacity="1.000000" />
<path d="M 265.892578 20.335938 L 265.892578 19.412109 L 272.729980 19.412109 L 272.729980 20.335938 Z " fill="rgb(0, 0, 0)" fill-opacity="1.000000" />
<path d="M 272.892578 20.335938 L 272.892578 19.412109 L 279.729980 19.412109 L 279.729980 20.335938 Z " fill="rgb(0, 0, 0)" fill-opacity="1.000000" />
<path d="M 279.892578 20.335938 L 279.892578 19.412109 L 286.729980 19.412109 L 286.729980 20.335938 Z " fill="rgb(0, 0, 0)" fill-opacity="1.000000" />
<path d="M 286.892578 20.335938 L 286.892578 19.412109 L 293.729980 19.412109 L 293.729980 20.335938 Z " fill="rgb(0, 0, 0)" fill-opacity="1.000000" />
<path d="M 293.892578 20.335938 L 293.892578 19.412109 L 300.729980 19.412109 L 300.729980 20.335938 Z " fill="rgb(0, 0, 0)" fill-opacity="1.000000" />
<path d="M 300.892578 20.335938 L 300.892578 19.412109 L 307.729980 19.412109 L 307.729980 20.335938 Z " fill="rgb(0, 0, 0)" fill-opacity="1.000000" />
<path d="M 307.892578 20.335938 L 307.892578 19.412109 L 314.729980 19.412109 L 314.729980 20.335938 Z " fill="rgb(0, 0, 0)" fill-opacity="1.000000" />
<path d="M 314.892578 20.335938 L 314.892578 19.412109 L 321.729980 19.412109 L 321.729980 20.335938 Z " fill="rgb(0, 0, 0)" fill-opacity="1.000000" />
<path d="M 321.892578 20.335938 L 321.892578 19.412109 L 328.729980 19.412109 L 328.729980 20.335938 Z " fill="rgb(0, 0, 0)" fill-opacity="1.000000" />
<path d="M 328.892578 20.335938 L 328.892578 19.412109 L 335.729980 19.412109 L 335.729980 20.335938 Z " fill="rgb(0, 0, 0)" fill-opacity="1.000000" />
<path d="M 335.892578 20.335938 L 335.892578 19.412109 L 342.729980 19.412109 L 342.729980 20.335938 Z " fill="rgb(0, 0, 0)" fill-opacity="1.000000" />
<path d="M 345.878906 26.319336 L 345.878906 20.335938 L 342.892578 20.335938 L 342.892578 19.412109 L 346.738281 19.412109 L 346.738281 26.319336 Z " fill="rgb(0, 0, 0)" fill-opacity="1.000000" />
<path d="M 359.878906 26.319336 L 359.878906 12.300781 L 360.738281 12.300781 L 360.738281 26.319336 Z " fill="rgb(0, 0, 0)" fill-opacity="1.000000" />
<path d="M 6.892578 7.335938 L 6.892578 6.412109 L 13.729980 6.412109 L 13.729980 7.335938 Z " fill="rgb(0, 0, 0)" fill-opacity="1.000000" />
<path d="M 13.892578 7.335938 L 13.892578 6.412109 L 20.729980 6.412109 L 20.729980 7.335938 Z " fill="rgb(0, 0, 0)" fill-opacity="1.000000" />
<path d="M 20.892578 7.335938 L 20.892578 6.412109 L 27.729980 6.412109 L 27.729980 7.335938 Z " fill="rgb(0, 0, 0)" fill-opacity="1.000000" />
<path d="M 27.892578 7.335938 L 27.892578 6.412109 L 34.729980 6.412109 L 34.729980 7.335938 Z " fill="rgb(0, 0, 0)" fill-opacity="1.000000" />
<path d="M 34.892578 7.335938 L 34.892578 6.412109 L 41.729980 6.412109 L 41.729980 7.335938 Z " fill="rgb(0, 0, 0)" fill-opacity="1.000000" />
<path d="M 41.892578 7.335938 L 41.892578 6.412109 L 48.729980 6.412109 L 48.729980 7.335938 Z " fill="rgb(0, 0, 0)" fill-opacity="1.000000" />
<path d="M 48.892578 7.335938 L 48.892578 6.412109 L 55.729980 6.412109 L 55.729980 7.335938 Z " fill="rgb(0, 0, 0)" fill-opacity="1.000000" />
<path d="M 55.892578 7.335938 L 55.892578 6.412109 L 62.729980 6.412109 L 62.729980 7.335938 Z " fill="rgb(0, 0, 0)" fill-opacity="1.000000" />
<path d="M 62.892578 7.335938 L 62.892578 6.412109 L 69.729980 6.412109 L 69.729980 7.335938 Z " fill="rgb(0, 0, 0)" fill-opacity="1.000000" />
<path d="M 69.892578 7.335938 L 69.892578 6.412109 L 76.729980 6.412109 L 76.729980 7.335938 Z " fill="rgb(0, 0, 0)" fill-opacity="1.000000" />
<path d="M 76.892578 7.335938 L 76.892578 6.412109 L 83.729980 6.412109 L 83.729980 7.335938 Z " fill="rgb(0, 0, 0)" fill-opacity="1.000000" />
<path d="M 83.892578 7.335938 L 83.892578 6.412109 L 90.729980 6.412109 L 90.729980 7.335938 Z " fill="rgb(0, 0, 0)" fill-opacity="1.000000" />
<path d="M 90.892578 7.335938 L 90.892578 6.412109 L 97.729980 6.412109 L 97.729980 7.335938 Z " fill="rgb(0, 0, 0)" fill-opacity="1.000000" />
<path d="M 97.892578 7.335938 L 97.892578 6.412109 L 104.729980 6.412109 L 104.729980 7.335938 Z " fill="rgb(0, 0, 0)" fill-opacity="1.000000" />
<path d="M 104.892578 7.335938 L 104.892578 6.412109 L 111.729980 6.412109 L 111.729980 7.335938 Z " fill="rgb(0, 0, 0)" fill-opacity="1.000000" />
<path d="M 111.892578 7.335938 L 111.892578 6.412109 L 118.729980 6.412109 L 118.729980 7.335938 Z " fill="rgb(0, 0, 0)" fill-opacity="1.000000" />
<path d="M 118.892578 7.335938 L 118.892578 6.412109 L 125.729980 6.412109 L 125.729980 7.335938 Z " fill="rgb(0, 0, 0)" fill-opacity="1.000000" />
<path d="M 125.892578 7.335938 L 125.892578 6.412109 L 132.729980 6.412109 L 132.729980 7.335938 Z " fill="rgb(0, 0, 0)" fill-opacity="1.000000" />
<path d="M 135.878906 13.319336 L 135.878906 7.335938 L 132.892578 7.335938 L 132.892578 6.412109 L 136.738281 6.412109 L 136.738281 13.319336 Z " fill="rgb(0, 0, 0)" fill-opacity="1.000000" />
<path d="M 226.878906 13.319336 L 226.878906 6.412109 L 230.729980 6.412109 L 230.729980 7.335938 L 227.738281 7.335938 L 227.738281 13.319336 Z " fill="rgb(0, 0, 0)" fill-opacity="1.000000" />
<path d="M 230.892578 7.335938 L 230.892578 6.412109 L 237.729980 6.412109 L 237.729980 7.335938 Z " fill="rgb(0, 0, 0)" fill-opacity="1.000000" />
<path d="M 237.892578 7.335938 L 237.892578 6.412109 L 244.729980 6.412109 L 244.729980 7.335938 Z " fill="rgb(0, 0, 0)" fill-opacity="1.000000" />
<path d="M 244.892578 7.335938 L 244.892578 6.412109 L 251.729980 6.412109 L 251.729980 7.335938 Z " fill="rgb(0, 0, 0)" fill-opacity="1.000000" />
<path d="M 251.892578 7.335938 L 251.892578 6.412109 L 258.729980 6.412109 L 258.729980 7.335938 Z " fill="rgb(0, 0, 0)" fill-opacity="1.000000" />
<path d="M 258.892578 7.335938 L 258.892578 6.412109 L 265.729980 6.412109 L 265.729980 7.335938 Z " fill="rgb(0, 0, 0)" fill-opacity="1.000000" />
<path d="M 265.892578 7.335938 L 265.892578 6.412109 L 272.729980 6.412109 L 272.729980 7.335938 Z " fill="rgb(0, 0, 0)" fill-opacity="1.000000" />
<path d="M 272.892578 7.335938 L 272.892578 6.412109 L 279.729980 6.412109 L 279.729980 7.335938 Z " fill="rgb(0, 0, 0)" fill-opacity="1.000000" />
<path d="M 279.892578 7.335938 L 279.892578 6.412109 L 286.729980 6.412109 L 286.729980 7.335938 Z " fill="rgb(0, 0, 0)" fill-opacity="1.000000" />
<path d="M 286.892578 7.335938 L 286.892578 6.412109 L 293.729980 6.412109 L 293.729980 7.335938 Z " fill="rgb(0, 0, 0)" fill-opacity="1.000000" />
<path d="M 293.892578 7.335938 L 293.892578 6.412109 L 300.729980 6.412109 L 300.729980 7.335938 Z " fill="rgb(0, 0, 0)" fill-opacity="1.000000" />
<path d="M 300.892578 7.335938 L 300.892578 6.412109 L 307.729980 6.412109 L 307.729980 7.335938 Z " fill="rgb(0, 0, 0)" fill-opacity="1.000000" />
<path d="M 307.892578 7.335938 L 307.892578 6.412109 L 314.729980 6.412109 L 314.729980 7.335938 Z " fill="rgb(0, 0, 0)" fill-opacity="1.000000" />
<path d="M 314.892578 7.335938 L 314.892578 6.412109 L 321.729980 6.412109 L 321.729980 7.335938 Z " fill="rgb(0, 0, 0)" fill-opacity="1.000000" />
<path d="M 321.892578 7.335938 L 321.892578 6.412109 L 328.729980 6.412109 L 328.729980 7.335938 Z " fill="rgb(0, 0, 0)" fill-opacity="1.000000" />
<path d="M 328.892578 7.335938 L 328.892578 6.412109 L 335.729980 6.412109 L 335.729980 7.335938 Z " fill="rgb(0, 0, 0)" fill-opacity="1.000000" />
<path d="M 335.892578 7.335938 L 335.892578 6.412109 L 342.729980 6.412109 L 342.729980 7.335938 Z " fill="rgb(0, 0, 0)" fill-opacity="1.000000" />
<path d="M 342.892578 7.335938 L 342.892578 6.412109 L 349.729980 6.412109 L 349.729980 7.335938 Z " fill="rgb(0, 0, 0)" fill-opacity="1.000000" />
<path d="M 349.892578 7.335938 L 349.892578 6.412109 L 356.729980 6.412109 L 356.729980 7.335938 Z " fill="rgb(0, 0, 0)" fill-opacity="1.000000" />
<path d="M 359.878906 13.319336 L 359.878906 7.335938 L 356.892578 7.335938 L 356.892578 6.412109 L 360.738281 6.412109 L 360.738281 13.319336 Z " fill="rgb(0, 0, 0)" fill-opacity="1.000000" />
</svg>